<?xml version="1.0" encoding="UTF-8" standalone="no"?>
<!-- Created with Inkscape (http://www.inkscape.org/) -->

<svg
   version="1.1"
   id="svg1"
   width="644.85498"
   height="399.38531"
   viewBox="0 0 644.85498 399.38531"
   sodipodi:docname="fp_versus_fn.svg"
   inkscape:version="1.3.2 (1:1.3.2+202311252150+091e20ef0f)"
   xmlns:inkscape="http://www.inkscape.org/namespaces/inkscape"
   xmlns:sodipodi="http://sodipodi.sourceforge.net/DTD/sodipodi-0.dtd"
   xmlns="http://www.w3.org/2000/svg"
   xmlns:svg="http://www.w3.org/2000/svg">
  <sodipodi:namedview
     id="namedview1"
     pagecolor="#ffffff"
     bordercolor="#000000"
     borderopacity="0.25"
     inkscape:showpageshadow="2"
     inkscape:pageopacity="0.0"
     inkscape:pagecheckerboard="0"
     inkscape:deskcolor="#d1d1d1"
     inkscape:zoom="1.1087764"
     inkscape:cx="249.37399"
     inkscape:cy="-258.39294"
     inkscape:window-width="1920"
     inkscape:window-height="1043"
     inkscape:window-x="0"
     inkscape:window-y="0"
     inkscape:window-maximized="1"
     inkscape:current-layer="svg1" />
  <defs
     id="defs1">
    <clipPath
       clipPathUnits="userSpaceOnUse"
       id="clipPath6">
      <path
         d="M 158.152,5.48 H 504.523 V 280.652 H 158.152 Z"
         id="path6" />
    </clipPath>
    <clipPath
       clipPathUnits="userSpaceOnUse"
       id="clipPath8">
      <path
         d="M 158.152,5.48 H 504.523 V 280.652 H 158.152 Z"
         id="path8" />
    </clipPath>
    <clipPath
       clipPathUnits="userSpaceOnUse"
       id="clipPath10">
      <path
         d="M 158.152,5.48 H 504.523 V 280.652 H 158.152 Z"
         id="path10" />
    </clipPath>
    <clipPath
       clipPathUnits="userSpaceOnUse"
       id="clipPath12">
      <path
         d="M 158.152,5.48 H 504.523 V 280.652 H 158.152 Z"
         id="path12" />
    </clipPath>
    <clipPath
       clipPathUnits="userSpaceOnUse"
       id="clipPath14">
      <path
         d="M 158.152,5.48 H 504.523 V 280.652 H 158.152 Z"
         id="path14" />
    </clipPath>
    <clipPath
       clipPathUnits="userSpaceOnUse"
       id="clipPath16">
      <path
         d="M 158.152,5.48 H 504.523 V 280.652 H 158.152 Z"
         id="path16" />
    </clipPath>
    <clipPath
       clipPathUnits="userSpaceOnUse"
       id="clipPath18">
      <path
         d="M 158.152,5.48 H 504.523 V 280.652 H 158.152 Z"
         id="path18" />
    </clipPath>
    <clipPath
       clipPathUnits="userSpaceOnUse"
       id="clipPath20">
      <path
         d="M 158.152,5.48 H 504.523 V 280.652 H 158.152 Z"
         id="path20" />
    </clipPath>
    <clipPath
       clipPathUnits="userSpaceOnUse"
       id="clipPath22">
      <path
         d="M 158.152,5.48 H 504.523 V 280.652 H 158.152 Z"
         id="path22" />
    </clipPath>
    <clipPath
       clipPathUnits="userSpaceOnUse"
       id="clipPath24">
      <path
         d="M 158.152,5.48 H 504.523 V 280.652 H 158.152 Z"
         id="path24" />
    </clipPath>
    <clipPath
       clipPathUnits="userSpaceOnUse"
       id="clipPath26">
      <path
         d="M 158.152,5.48 H 504.523 V 280.652 H 158.152 Z"
         id="path26" />
    </clipPath>
    <clipPath
       clipPathUnits="userSpaceOnUse"
       id="clipPath28">
      <path
         d="M 158.152,5.48 H 504.523 V 280.652 H 158.152 Z"
         id="path28" />
    </clipPath>
    <clipPath
       clipPathUnits="userSpaceOnUse"
       id="clipPath30">
      <path
         d="M 158.152,5.48 H 504.523 V 280.652 H 158.152 Z"
         id="path30" />
    </clipPath>
    <clipPath
       clipPathUnits="userSpaceOnUse"
       id="clipPath32">
      <path
         d="M 158.152,5.48 H 504.523 V 280.652 H 158.152 Z"
         id="path32" />
    </clipPath>
    <clipPath
       clipPathUnits="userSpaceOnUse"
       id="clipPath34">
      <path
         d="M 158.152,5.48 H 504.523 V 280.652 H 158.152 Z"
         id="path34" />
    </clipPath>
    <clipPath
       clipPathUnits="userSpaceOnUse"
       id="clipPath36">
      <path
         d="M 158.152,5.48 H 504.523 V 280.652 H 158.152 Z"
         id="path36" />
    </clipPath>
    <clipPath
       clipPathUnits="userSpaceOnUse"
       id="clipPath38">
      <path
         d="M 158.152,5.48 H 504.523 V 280.652 H 158.152 Z"
         id="path38" />
    </clipPath>
    <clipPath
       clipPathUnits="userSpaceOnUse"
       id="clipPath40">
      <path
         d="M 158.152,5.48 H 504.523 V 280.652 H 158.152 Z"
         id="path40" />
    </clipPath>
    <clipPath
       clipPathUnits="userSpaceOnUse"
       id="clipPath42">
      <path
         d="M 158.152,5.48 H 504.523 V 280.652 H 158.152 Z"
         id="path42" />
    </clipPath>
    <clipPath
       clipPathUnits="userSpaceOnUse"
       id="clipPath44">
      <path
         d="M 158.152,5.48 H 504.523 V 280.652 H 158.152 Z"
         id="path44" />
    </clipPath>
    <clipPath
       clipPathUnits="userSpaceOnUse"
       id="clipPath46">
      <path
         d="M 158.152,5.48 H 504.523 V 280.652 H 158.152 Z"
         id="path46" />
    </clipPath>
    <clipPath
       clipPathUnits="userSpaceOnUse"
       id="clipPath48">
      <path
         d="M 158.152,5.48 H 504.523 V 280.652 H 158.152 Z"
         id="path48" />
    </clipPath>
    <clipPath
       clipPathUnits="userSpaceOnUse"
       id="clipPath50">
      <path
         d="M 158.152,5.48 H 504.523 V 280.652 H 158.152 Z"
         id="path50" />
    </clipPath>
    <clipPath
       clipPathUnits="userSpaceOnUse"
       id="clipPath52">
      <path
         d="M 158.152,5.48 H 504.523 V 280.652 H 158.152 Z"
         id="path52" />
    </clipPath>
    <clipPath
       clipPathUnits="userSpaceOnUse"
       id="clipPath54">
      <path
         d="M 158.152,5.48 H 504.523 V 280.652 H 158.152 Z"
         id="path54" />
    </clipPath>
    <clipPath
       clipPathUnits="userSpaceOnUse"
       id="clipPath56">
      <path
         d="M 158.152,5.48 H 504.523 V 280.652 H 158.152 Z"
         id="path56" />
    </clipPath>
    <clipPath
       clipPathUnits="userSpaceOnUse"
       id="clipPath58">
      <path
         d="M 158.152,5.48 H 504.523 V 280.652 H 158.152 Z"
         id="path58" />
    </clipPath>
    <clipPath
       clipPathUnits="userSpaceOnUse"
       id="clipPath60">
      <path
         d="M 158.152,5.48 H 504.523 V 280.652 H 158.152 Z"
         id="path60" />
    </clipPath>
    <clipPath
       clipPathUnits="userSpaceOnUse"
       id="clipPath62">
      <path
         d="M 158.152,5.48 H 504.523 V 280.652 H 158.152 Z"
         id="path62" />
    </clipPath>
    <clipPath
       clipPathUnits="userSpaceOnUse"
       id="clipPath64">
      <path
         d="M 158.152,5.48 H 504.523 V 280.652 H 158.152 Z"
         id="path64" />
    </clipPath>
    <clipPath
       clipPathUnits="userSpaceOnUse"
       id="clipPath66">
      <path
         d="M 158.152,5.48 H 504.523 V 280.652 H 158.152 Z"
         id="path66" />
    </clipPath>
    <clipPath
       clipPathUnits="userSpaceOnUse"
       id="clipPath68">
      <path
         d="M 158.152,5.48 H 504.523 V 280.652 H 158.152 Z"
         id="path68" />
    </clipPath>
    <clipPath
       clipPathUnits="userSpaceOnUse"
       id="clipPath70">
      <path
         d="M 158.152,5.48 H 504.523 V 280.652 H 158.152 Z"
         id="path70" />
    </clipPath>
    <clipPath
       clipPathUnits="userSpaceOnUse"
       id="clipPath72">
      <path
         d="M 158.152,5.48 H 504.523 V 280.652 H 158.152 Z"
         id="path72" />
    </clipPath>
    <clipPath
       clipPathUnits="userSpaceOnUse"
       id="clipPath74">
      <path
         d="M 158.152,5.48 H 504.523 V 280.652 H 158.152 Z"
         id="path74" />
    </clipPath>
    <clipPath
       clipPathUnits="userSpaceOnUse"
       id="clipPath76">
      <path
         d="M 158.152,5.48 H 504.523 V 280.652 H 158.152 Z"
         id="path76" />
    </clipPath>
    <clipPath
       clipPathUnits="userSpaceOnUse"
       id="clipPath78">
      <path
         d="M 158.152,5.48 H 504.523 V 280.652 H 158.152 Z"
         id="path78" />
    </clipPath>
    <clipPath
       clipPathUnits="userSpaceOnUse"
       id="clipPath80">
      <path
         d="M 158.152,5.48 H 504.523 V 280.652 H 158.152 Z"
         id="path80" />
    </clipPath>
    <clipPath
       clipPathUnits="userSpaceOnUse"
       id="clipPath82">
      <path
         d="M 158.152,5.48 H 504.523 V 280.652 H 158.152 Z"
         id="path82" />
    </clipPath>
    <clipPath
       clipPathUnits="userSpaceOnUse"
       id="clipPath84">
      <path
         d="M 158.152,5.48 H 504.523 V 280.652 H 158.152 Z"
         id="path84" />
    </clipPath>
    <clipPath
       clipPathUnits="userSpaceOnUse"
       id="clipPath86">
      <path
         d="M 158.152,5.48 H 504.523 V 280.652 H 158.152 Z"
         id="path86" />
    </clipPath>
    <clipPath
       clipPathUnits="userSpaceOnUse"
       id="clipPath88">
      <path
         d="M 158.152,5.48 H 504.523 V 280.652 H 158.152 Z"
         id="path88" />
    </clipPath>
    <clipPath
       clipPathUnits="userSpaceOnUse"
       id="clipPath90">
      <path
         d="M 158.152,5.48 H 504.523 V 280.652 H 158.152 Z"
         id="path90" />
    </clipPath>
    <clipPath
       clipPathUnits="userSpaceOnUse"
       id="clipPath92">
      <path
         d="M 158.152,5.48 H 504.523 V 280.652 H 158.152 Z"
         id="path92" />
    </clipPath>
    <clipPath
       clipPathUnits="userSpaceOnUse"
       id="clipPath94">
      <path
         d="M 158.152,5.48 H 504.523 V 280.652 H 158.152 Z"
         id="path94" />
    </clipPath>
    <clipPath
       clipPathUnits="userSpaceOnUse"
       id="clipPath96">
      <path
         d="M 158.152,5.48 H 504.523 V 280.652 H 158.152 Z"
         id="path96" />
    </clipPath>
    <clipPath
       clipPathUnits="userSpaceOnUse"
       id="clipPath98">
      <path
         d="M 158.152,5.48 H 504.523 V 280.652 H 158.152 Z"
         id="path98" />
    </clipPath>
    <clipPath
       clipPathUnits="userSpaceOnUse"
       id="clipPath100">
      <path
         d="M 158.152,5.48 H 504.523 V 280.652 H 158.152 Z"
         id="path100" />
    </clipPath>
    <clipPath
       clipPathUnits="userSpaceOnUse"
       id="clipPath102">
      <path
         d="M 158.152,5.48 H 504.523 V 280.652 H 158.152 Z"
         id="path102" />
    </clipPath>
    <clipPath
       clipPathUnits="userSpaceOnUse"
       id="clipPath104">
      <path
         d="M 158.152,5.48 H 504.523 V 280.652 H 158.152 Z"
         id="path104" />
    </clipPath>
    <clipPath
       clipPathUnits="userSpaceOnUse"
       id="clipPath106">
      <path
         d="M 158.152,5.48 H 504.523 V 280.652 H 158.152 Z"
         id="path106" />
    </clipPath>
    <clipPath
       clipPathUnits="userSpaceOnUse"
       id="clipPath108">
      <path
         d="M 158.152,5.48 H 504.523 V 280.652 H 158.152 Z"
         id="path108" />
    </clipPath>
    <clipPath
       clipPathUnits="userSpaceOnUse"
       id="clipPath110">
      <path
         d="M 158.152,5.48 H 504.523 V 280.652 H 158.152 Z"
         id="path110" />
    </clipPath>
    <clipPath
       clipPathUnits="userSpaceOnUse"
       id="clipPath112">
      <path
         d="M 158.152,5.48 H 504.523 V 280.652 H 158.152 Z"
         id="path112" />
    </clipPath>
    <clipPath
       clipPathUnits="userSpaceOnUse"
       id="clipPath114">
      <path
         d="M 158.152,5.48 H 504.523 V 280.652 H 158.152 Z"
         id="path114" />
    </clipPath>
    <clipPath
       clipPathUnits="userSpaceOnUse"
       id="clipPath116">
      <path
         d="M 158.152,5.48 H 504.523 V 280.652 H 158.152 Z"
         id="path116" />
    </clipPath>
    <clipPath
       clipPathUnits="userSpaceOnUse"
       id="clipPath118">
      <path
         d="M 158.152,5.48 H 504.523 V 280.652 H 158.152 Z"
         id="path118" />
    </clipPath>
    <clipPath
       clipPathUnits="userSpaceOnUse"
       id="clipPath120">
      <path
         d="M 158.152,5.48 H 504.523 V 280.652 H 158.152 Z"
         id="path120" />
    </clipPath>
    <clipPath
       clipPathUnits="userSpaceOnUse"
       id="clipPath122">
      <path
         d="M 158.152,5.48 H 504.523 V 280.652 H 158.152 Z"
         id="path122" />
    </clipPath>
    <clipPath
       clipPathUnits="userSpaceOnUse"
       id="clipPath124">
      <path
         d="M 158.152,5.48 H 504.523 V 280.652 H 158.152 Z"
         id="path124" />
    </clipPath>
    <clipPath
       clipPathUnits="userSpaceOnUse"
       id="clipPath126">
      <path
         d="M 158.152,5.48 H 504.523 V 280.652 H 158.152 Z"
         id="path126" />
    </clipPath>
    <clipPath
       clipPathUnits="userSpaceOnUse"
       id="clipPath128">
      <path
         d="M 158.152,5.48 H 504.523 V 280.652 H 158.152 Z"
         id="path128" />
    </clipPath>
    <clipPath
       clipPathUnits="userSpaceOnUse"
       id="clipPath130">
      <path
         d="M 158.152,5.48 H 504.523 V 280.652 H 158.152 Z"
         id="path130" />
    </clipPath>
  </defs>
  <rect
     style="fill:#95c11f;fill-opacity:0.15;stroke:none;stroke-width:1;stroke-linejoin:round;stroke-dasharray:none;stroke-dashoffset:0;stroke-opacity:1;paint-order:stroke fill markers"
     id="rect160"
     width="427.58081"
     height="147.3647"
     x="201.18536"
     y="0.56546402" />
  <rect
     style="fill:#007b3d;fill-opacity:0.15;stroke:none;stroke-width:1.61166;stroke-linejoin:round;stroke-dasharray:1.61166, 1.61166;stroke-dashoffset:0;stroke-opacity:1;paint-order:stroke fill markers"
     id="rect159"
     width="427.56784"
     height="98.627937"
     x="200.71736"
     y="153.96696" />
  <path
     id="path5"
     d="m 407.586,264.887 h 77.332"
     style="fill:none;stroke:#d51317;stroke-width:1.06698;stroke-linecap:butt;stroke-linejoin:round;stroke-miterlimit:10;stroke-dasharray:none;stroke-opacity:1"
     transform="matrix(1.3333333,0,0,1.3333333,-27.838313,-65.306666)"
     clip-path="url(#clipPath6)" />
  <path
     id="path7"
     d="M 342.652,264.887 H 282.043"
     style="fill:none;stroke:#d51317;stroke-width:1.06698;stroke-linecap:butt;stroke-linejoin:round;stroke-miterlimit:10;stroke-dasharray:none;stroke-opacity:1"
     transform="matrix(1.3333333,0,0,1.3333333,-27.838313,-65.306666)"
     clip-path="url(#clipPath8)" />
  <path
     id="path9"
     d="m 342.652,258.438 h 64.934 v 12.898 h -64.934 z"
     style="fill:#ffffff;fill-opacity:1;fill-rule:nonzero;stroke:#d51317;stroke-width:1.06698;stroke-linecap:butt;stroke-linejoin:miter;stroke-miterlimit:10;stroke-dasharray:none;stroke-opacity:1"
     transform="matrix(1.3333333,0,0,1.3333333,-27.838313,-65.306666)"
     clip-path="url(#clipPath10)" />
  <path
     id="path11"
     d="M 386.281,271.336 V 258.438"
     style="fill:none;stroke:#d51317;stroke-width:2.13396;stroke-linecap:butt;stroke-linejoin:miter;stroke-miterlimit:10;stroke-dasharray:none;stroke-opacity:1"
     transform="matrix(1.3333333,0,0,1.3333333,-27.838313,-65.306666)"
     clip-path="url(#clipPath12)" />
  <path
     id="path13"
     d="m 279.516,250.555 c 0,2.605 -3.911,2.605 -3.911,0 0,-2.606 3.911,-2.606 3.911,0"
     style="fill:#f39200;fill-opacity:1;fill-rule:nonzero;stroke:#f39200;stroke-width:0.708661;stroke-linecap:round;stroke-linejoin:round;stroke-miterlimit:10;stroke-dasharray:none;stroke-opacity:1"
     transform="matrix(1.3333333,0,0,1.3333333,-27.838313,-65.306666)"
     clip-path="url(#clipPath14)" />
  <path
     id="path15"
     d="m 437.27,250.555 h 51.507"
     style="fill:none;stroke:#f39200;stroke-width:1.06698;stroke-linecap:butt;stroke-linejoin:round;stroke-miterlimit:10;stroke-dasharray:none;stroke-opacity:1"
     transform="matrix(1.3333333,0,0,1.3333333,-27.838313,-65.306666)"
     clip-path="url(#clipPath16)" />
  <path
     id="path17"
     d="m 379.133,250.555 h -33.61"
     style="fill:none;stroke:#f39200;stroke-width:1.06698;stroke-linecap:butt;stroke-linejoin:round;stroke-miterlimit:10;stroke-dasharray:none;stroke-opacity:1"
     transform="matrix(1.3333333,0,0,1.3333333,-27.838313,-65.306666)"
     clip-path="url(#clipPath18)" />
  <path
     id="path19"
     d="m 379.133,244.105 h 58.137 v 12.898 h -58.137 z"
     style="fill:#ffffff;fill-opacity:1;fill-rule:nonzero;stroke:#f39200;stroke-width:1.06698;stroke-linecap:butt;stroke-linejoin:miter;stroke-miterlimit:10;stroke-dasharray:none;stroke-opacity:1"
     transform="matrix(1.3333333,0,0,1.3333333,-27.838313,-65.306666)"
     clip-path="url(#clipPath20)" />
  <path
     id="path21"
     d="M 402.109,257.004 V 244.105"
     style="fill:none;stroke:#f39200;stroke-width:2.13396;stroke-linecap:butt;stroke-linejoin:miter;stroke-miterlimit:10;stroke-dasharray:none;stroke-opacity:1"
     transform="matrix(1.3333333,0,0,1.3333333,-27.838313,-65.306666)"
     clip-path="url(#clipPath22)" />
  <path
     id="path23"
     d="M 376.645,226.668 H 436.23"
     style="fill:none;stroke:#d51317;stroke-width:1.06698;stroke-linecap:butt;stroke-linejoin:round;stroke-miterlimit:10;stroke-dasharray:none;stroke-opacity:1"
     transform="matrix(1.3333333,0,0,1.3333333,-27.838313,-65.306666)"
     clip-path="url(#clipPath24)" />
  <path
     id="path25"
     d="M 309.301,226.668 H 271.938"
     style="fill:none;stroke:#d51317;stroke-width:1.06698;stroke-linecap:butt;stroke-linejoin:round;stroke-miterlimit:10;stroke-dasharray:none;stroke-opacity:1"
     transform="matrix(1.3333333,0,0,1.3333333,-27.838313,-65.306666)"
     clip-path="url(#clipPath26)" />
  <path
     id="path27"
     d="m 309.301,220.219 h 67.344 v 12.898 h -67.344 z"
     style="fill:#ffffff;fill-opacity:1;fill-rule:nonzero;stroke:#d51317;stroke-width:1.06698;stroke-linecap:butt;stroke-linejoin:miter;stroke-miterlimit:10;stroke-dasharray:none;stroke-opacity:1"
     transform="matrix(1.3333333,0,0,1.3333333,-27.838313,-65.306666)"
     clip-path="url(#clipPath28)" />
  <path
     id="path29"
     d="M 330.766,233.117 V 220.219"
     style="fill:none;stroke:#d51317;stroke-width:2.13396;stroke-linecap:butt;stroke-linejoin:miter;stroke-miterlimit:10;stroke-dasharray:none;stroke-opacity:1"
     transform="matrix(1.3333333,0,0,1.3333333,-27.838313,-65.306666)"
     clip-path="url(#clipPath30)" />
  <path
     id="path31"
     d="m 356.523,212.336 h 45.579"
     style="fill:none;stroke:#f39200;stroke-width:1.06698;stroke-linecap:butt;stroke-linejoin:round;stroke-miterlimit:10;stroke-dasharray:none;stroke-opacity:1"
     transform="matrix(1.3333333,0,0,1.3333333,-27.838313,-65.306666)"
     clip-path="url(#clipPath32)" />
  <path
     id="path33"
     d="M 312.453,212.336 H 248.781"
     style="fill:none;stroke:#f39200;stroke-width:1.06698;stroke-linecap:butt;stroke-linejoin:round;stroke-miterlimit:10;stroke-dasharray:none;stroke-opacity:1"
     transform="matrix(1.3333333,0,0,1.3333333,-27.838313,-65.306666)"
     clip-path="url(#clipPath34)" />
  <path
     id="path35"
     d="m 312.453,205.887 h 44.07 v 12.898 h -44.07 z"
     style="fill:#ffffff;fill-opacity:1;fill-rule:nonzero;stroke:#f39200;stroke-width:1.06698;stroke-linecap:butt;stroke-linejoin:miter;stroke-miterlimit:10;stroke-dasharray:none;stroke-opacity:1"
     transform="matrix(1.3333333,0,0,1.3333333,-27.838313,-65.306666)"
     clip-path="url(#clipPath36)" />
  <path
     id="path37"
     d="M 335.836,218.785 V 205.887"
     style="fill:none;stroke:#f39200;stroke-width:2.13396;stroke-linecap:butt;stroke-linejoin:miter;stroke-miterlimit:10;stroke-dasharray:none;stroke-opacity:1"
     transform="matrix(1.3333333,0,0,1.3333333,-27.838313,-65.306666)"
     clip-path="url(#clipPath38)" />
  <path
     id="path39"
     d="m 308.359,188.449 h 79.579"
     style="fill:none;stroke:#d51317;stroke-width:1.06698;stroke-linecap:butt;stroke-linejoin:round;stroke-miterlimit:10;stroke-dasharray:none;stroke-opacity:1"
     transform="matrix(1.3333333,0,0,1.3333333,-27.838313,-65.306666)"
     clip-path="url(#clipPath40)" />
  <path
     id="path41"
     d="m 250.898,188.449 h -11.07"
     style="fill:none;stroke:#d51317;stroke-width:1.06698;stroke-linecap:butt;stroke-linejoin:round;stroke-miterlimit:10;stroke-dasharray:none;stroke-opacity:1"
     transform="matrix(1.3333333,0,0,1.3333333,-27.838313,-65.306666)"
     clip-path="url(#clipPath42)" />
  <path
     id="path43"
     d="m 250.898,182 h 57.461 v 12.898 h -57.461 z"
     style="fill:#ffffff;fill-opacity:1;fill-rule:nonzero;stroke:#d51317;stroke-width:1.06698;stroke-linecap:butt;stroke-linejoin:miter;stroke-miterlimit:10;stroke-dasharray:none;stroke-opacity:1"
     transform="matrix(1.3333333,0,0,1.3333333,-27.838313,-65.306666)"
     clip-path="url(#clipPath44)" />
  <path
     id="path45"
     d="M 276.668,194.898 V 182"
     style="fill:none;stroke:#d51317;stroke-width:2.13396;stroke-linecap:butt;stroke-linejoin:miter;stroke-miterlimit:10;stroke-dasharray:none;stroke-opacity:1"
     transform="matrix(1.3333333,0,0,1.3333333,-27.838313,-65.306666)"
     clip-path="url(#clipPath46)" />
  <path
     id="path47"
     d="m 303.84,174.117 h 55.543"
     style="fill:none;stroke:#f39200;stroke-width:1.06698;stroke-linecap:butt;stroke-linejoin:round;stroke-miterlimit:10;stroke-dasharray:none;stroke-opacity:1"
     transform="matrix(1.3333333,0,0,1.3333333,-27.838313,-65.306666)"
     clip-path="url(#clipPath48)" />
  <path
     id="path49"
     d="m 266.559,174.117 h -41.59"
     style="fill:none;stroke:#f39200;stroke-width:1.06698;stroke-linecap:butt;stroke-linejoin:round;stroke-miterlimit:10;stroke-dasharray:none;stroke-opacity:1"
     transform="matrix(1.3333333,0,0,1.3333333,-27.838313,-65.306666)"
     clip-path="url(#clipPath50)" />
  <path
     id="path51"
     d="m 266.559,167.668 h 37.281 v 12.898 h -37.281 z"
     style="fill:#ffffff;fill-opacity:1;fill-rule:nonzero;stroke:#f39200;stroke-width:1.06698;stroke-linecap:butt;stroke-linejoin:miter;stroke-miterlimit:10;stroke-dasharray:none;stroke-opacity:1"
     transform="matrix(1.3333333,0,0,1.3333333,-27.838313,-65.306666)"
     clip-path="url(#clipPath52)" />
  <path
     id="path53"
     d="M 275.25,180.566 V 167.668"
     style="fill:none;stroke:#f39200;stroke-width:2.13396;stroke-linecap:butt;stroke-linejoin:miter;stroke-miterlimit:10;stroke-dasharray:none;stroke-opacity:1"
     transform="matrix(1.3333333,0,0,1.3333333,-27.838313,-65.306666)"
     clip-path="url(#clipPath54)" />
  <path
     id="path55"
     d="m 319.945,150.23 c 0,2.606 -3.91,2.606 -3.91,0 0,-2.605 3.91,-2.605 3.91,0"
     style="fill:#d51317;fill-opacity:1;fill-rule:nonzero;stroke:#d51317;stroke-width:0.708661;stroke-linecap:round;stroke-linejoin:round;stroke-miterlimit:10;stroke-dasharray:none;stroke-opacity:1"
     transform="matrix(1.3333333,0,0,1.3333333,-27.838313,-65.306666)"
     clip-path="url(#clipPath56)" />
  <path
     id="path57"
     d="m 218.234,150.23 h 28.914"
     style="fill:none;stroke:#d51317;stroke-width:1.06698;stroke-linecap:butt;stroke-linejoin:round;stroke-miterlimit:10;stroke-dasharray:none;stroke-opacity:1"
     transform="matrix(1.3333333,0,0,1.3333333,-27.838313,-65.306666)"
     clip-path="url(#clipPath58)" />
  <path
     id="path59"
     d="M 196.789,150.23 H 177.77"
     style="fill:none;stroke:#d51317;stroke-width:1.06698;stroke-linecap:butt;stroke-linejoin:round;stroke-miterlimit:10;stroke-dasharray:none;stroke-opacity:1"
     transform="matrix(1.3333333,0,0,1.3333333,-27.838313,-65.306666)"
     clip-path="url(#clipPath60)" />
  <path
     id="path61"
     d="m 196.789,143.781 h 21.445 v 12.898 h -21.445 z"
     style="fill:#ffffff;fill-opacity:1;fill-rule:nonzero;stroke:#d51317;stroke-width:1.06698;stroke-linecap:butt;stroke-linejoin:miter;stroke-miterlimit:10;stroke-dasharray:none;stroke-opacity:1"
     transform="matrix(1.3333333,0,0,1.3333333,-27.838313,-65.306666)"
     clip-path="url(#clipPath62)" />
  <path
     id="path63"
     d="M 204.289,156.68 V 143.781"
     style="fill:none;stroke:#d51317;stroke-width:2.13396;stroke-linecap:butt;stroke-linejoin:miter;stroke-miterlimit:10;stroke-dasharray:none;stroke-opacity:1"
     transform="matrix(1.3333333,0,0,1.3333333,-27.838313,-65.306666)"
     clip-path="url(#clipPath64)" />
  <path
     id="path65"
     d="m 251.578,135.898 h 70.391"
     style="fill:none;stroke:#f39200;stroke-width:1.06698;stroke-linecap:butt;stroke-linejoin:round;stroke-miterlimit:10;stroke-dasharray:none;stroke-opacity:1"
     transform="matrix(1.3333333,0,0,1.3333333,-27.838313,-65.306666)"
     clip-path="url(#clipPath66)" />
  <path
     id="path67"
     d="M 195.535,135.898 H 176.48"
     style="fill:none;stroke:#f39200;stroke-width:1.06698;stroke-linecap:butt;stroke-linejoin:round;stroke-miterlimit:10;stroke-dasharray:none;stroke-opacity:1"
     transform="matrix(1.3333333,0,0,1.3333333,-27.838313,-65.306666)"
     clip-path="url(#clipPath68)" />
  <path
     id="path69"
     d="m 195.535,129.449 h 56.043 v 12.898 h -56.043 z"
     style="fill:#ffffff;fill-opacity:1;fill-rule:nonzero;stroke:#f39200;stroke-width:1.06698;stroke-linecap:butt;stroke-linejoin:miter;stroke-miterlimit:10;stroke-dasharray:none;stroke-opacity:1"
     transform="matrix(1.3333333,0,0,1.3333333,-27.838313,-65.306666)"
     clip-path="url(#clipPath70)" />
  <path
     id="path71"
     d="M 219.809,142.348 V 129.449"
     style="fill:none;stroke:#f39200;stroke-width:2.13396;stroke-linecap:butt;stroke-linejoin:miter;stroke-miterlimit:10;stroke-dasharray:none;stroke-opacity:1"
     transform="matrix(1.3333333,0,0,1.3333333,-27.838313,-65.306666)"
     clip-path="url(#clipPath72)" />
  <path
     id="path73"
     d="m 227.227,112.012 h 47.382"
     style="fill:none;stroke:#d51317;stroke-width:1.06698;stroke-linecap:butt;stroke-linejoin:round;stroke-miterlimit:10;stroke-dasharray:none;stroke-opacity:1"
     transform="matrix(1.3333333,0,0,1.3333333,-27.838313,-65.306666)"
     clip-path="url(#clipPath74)" />
  <path
     id="path75"
     d="m 186.281,112.012 h -6.426"
     style="fill:none;stroke:#d51317;stroke-width:1.06698;stroke-linecap:butt;stroke-linejoin:round;stroke-miterlimit:10;stroke-dasharray:none;stroke-opacity:1"
     transform="matrix(1.3333333,0,0,1.3333333,-27.838313,-65.306666)"
     clip-path="url(#clipPath76)" />
  <path
     id="path77"
     d="m 186.281,105.562 h 40.945 v 12.898 h -40.945 z"
     style="fill:#ffffff;fill-opacity:1;fill-rule:nonzero;stroke:#d51317;stroke-width:1.06698;stroke-linecap:butt;stroke-linejoin:miter;stroke-miterlimit:10;stroke-dasharray:none;stroke-opacity:1"
     transform="matrix(1.3333333,0,0,1.3333333,-27.838313,-65.306666)"
     clip-path="url(#clipPath78)" />
  <path
     id="path79"
     d="M 202.402,118.461 V 105.562"
     style="fill:none;stroke:#d51317;stroke-width:2.13396;stroke-linecap:butt;stroke-linejoin:miter;stroke-miterlimit:10;stroke-dasharray:none;stroke-opacity:1"
     transform="matrix(1.3333333,0,0,1.3333333,-27.838313,-65.306666)"
     clip-path="url(#clipPath80)" />
  <path
     id="path81"
     d="m 249.809,97.68 h 78.078"
     style="fill:none;stroke:#f39200;stroke-width:1.06698;stroke-linecap:butt;stroke-linejoin:round;stroke-miterlimit:10;stroke-dasharray:none;stroke-opacity:1"
     transform="matrix(1.3333333,0,0,1.3333333,-27.838313,-65.306666)"
     clip-path="url(#clipPath82)" />
  <path
     id="path83"
     d="M 193.094,97.68 H 173.895"
     style="fill:none;stroke:#f39200;stroke-width:1.06698;stroke-linecap:butt;stroke-linejoin:round;stroke-miterlimit:10;stroke-dasharray:none;stroke-opacity:1"
     transform="matrix(1.3333333,0,0,1.3333333,-27.838313,-65.306666)"
     clip-path="url(#clipPath84)" />
  <path
     id="path85"
     d="m 193.094,91.23 h 56.715 v 12.898 h -56.715 z"
     style="fill:#ffffff;fill-opacity:1;fill-rule:nonzero;stroke:#f39200;stroke-width:1.06698;stroke-linecap:butt;stroke-linejoin:miter;stroke-miterlimit:10;stroke-dasharray:none;stroke-opacity:1"
     transform="matrix(1.3333333,0,0,1.3333333,-27.838313,-65.306666)"
     clip-path="url(#clipPath86)" />
  <path
     id="path87"
     d="M 206.922,104.129 V 91.23"
     style="fill:none;stroke:#f39200;stroke-width:2.13396;stroke-linecap:butt;stroke-linejoin:miter;stroke-miterlimit:10;stroke-dasharray:none;stroke-opacity:1"
     transform="matrix(1.3333333,0,0,1.3333333,-27.838313,-65.306666)"
     clip-path="url(#clipPath88)" />
  <path
     id="path89"
     d="m 232.98,73.793 c 0,2.609 -3.91,2.609 -3.91,0 0,-2.605 3.91,-2.605 3.91,0"
     style="fill:#d51317;fill-opacity:1;fill-rule:nonzero;stroke:#d51317;stroke-width:0.708661;stroke-linecap:round;stroke-linejoin:round;stroke-miterlimit:10;stroke-dasharray:none;stroke-opacity:1"
     transform="matrix(1.3333333,0,0,1.3333333,-27.838313,-65.306666)"
     clip-path="url(#clipPath90)" />
  <path
     id="path91"
     d="m 189.73,73.793 h 16.145"
     style="fill:none;stroke:#d51317;stroke-width:1.06698;stroke-linecap:butt;stroke-linejoin:round;stroke-miterlimit:10;stroke-dasharray:none;stroke-opacity:1"
     transform="matrix(1.3333333,0,0,1.3333333,-27.838313,-65.306666)"
     clip-path="url(#clipPath92)" />
  <path
     id="path93"
     d="m 175.59,73.793 h -1.621"
     style="fill:none;stroke:#d51317;stroke-width:1.06698;stroke-linecap:butt;stroke-linejoin:round;stroke-miterlimit:10;stroke-dasharray:none;stroke-opacity:1"
     transform="matrix(1.3333333,0,0,1.3333333,-27.838313,-65.306666)"
     clip-path="url(#clipPath94)" />
  <path
     id="path95"
     d="m 175.59,67.344 h 14.141 V 80.242 H 175.59 Z"
     style="fill:#ffffff;fill-opacity:1;fill-rule:nonzero;stroke:#d51317;stroke-width:1.06698;stroke-linecap:butt;stroke-linejoin:miter;stroke-miterlimit:10;stroke-dasharray:none;stroke-opacity:1"
     transform="matrix(1.3333333,0,0,1.3333333,-27.838313,-65.306666)"
     clip-path="url(#clipPath96)" />
  <path
     id="path97"
     d="M 177.688,80.242 V 67.344"
     style="fill:none;stroke:#d51317;stroke-width:2.13396;stroke-linecap:butt;stroke-linejoin:miter;stroke-miterlimit:10;stroke-dasharray:none;stroke-opacity:1"
     transform="matrix(1.3333333,0,0,1.3333333,-27.838313,-65.306666)"
     clip-path="url(#clipPath98)" />
  <path
     id="path99"
     d="m 207.098,59.461 h 45.574"
     style="fill:none;stroke:#f39200;stroke-width:1.06698;stroke-linecap:butt;stroke-linejoin:round;stroke-miterlimit:10;stroke-dasharray:none;stroke-opacity:1"
     transform="matrix(1.3333333,0,0,1.3333333,-27.838313,-65.306666)"
     clip-path="url(#clipPath100)" />
  <path
     id="path101"
     d="m 175.559,59.461 h -1.664"
     style="fill:none;stroke:#f39200;stroke-width:1.06698;stroke-linecap:butt;stroke-linejoin:round;stroke-miterlimit:10;stroke-dasharray:none;stroke-opacity:1"
     transform="matrix(1.3333333,0,0,1.3333333,-27.838313,-65.306666)"
     clip-path="url(#clipPath102)" />
  <path
     id="path103"
     d="m 175.559,53.012 h 31.539 v 12.902 h -31.539 z"
     style="fill:#ffffff;fill-opacity:1;fill-rule:nonzero;stroke:#f39200;stroke-width:1.06698;stroke-linecap:butt;stroke-linejoin:miter;stroke-miterlimit:10;stroke-dasharray:none;stroke-opacity:1"
     transform="matrix(1.3333333,0,0,1.3333333,-27.838313,-65.306666)"
     clip-path="url(#clipPath104)" />
  <path
     id="path105"
     d="M 183.785,65.914 V 53.012"
     style="fill:none;stroke:#f39200;stroke-width:2.13396;stroke-linecap:butt;stroke-linejoin:miter;stroke-miterlimit:10;stroke-dasharray:none;stroke-opacity:1"
     transform="matrix(1.3333333,0,0,1.3333333,-27.838313,-65.306666)"
     clip-path="url(#clipPath106)" />
  <path
     id="path131"
     d="M 183.03102,308.89599 V 0"
     style="fill:none;stroke:#000000;stroke-width:1.42264;stroke-linecap:butt;stroke-linejoin:round;stroke-miterlimit:10;stroke-dasharray:none;stroke-opacity:1"
     sodipodi:nodetypes="cc" />
  <text
     id="text131"
     xml:space="preserve"
     x="140.45335"
     y="282.20505"
     style="font-size:16px;stroke-width:1.33333"><tspan
       style="font-variant:normal;font-weight:normal;font-size:11.7331px;font-family:'Nimbus Sans';writing-mode:lr-tb;fill:#4d4d4d;fill-opacity:1;fill-rule:nonzero;stroke:none;stroke-width:1.33333"
       x="140.45335 148.45532 155.11971 161.78409 167.12263 173.78702"
       y="282.20505"
       id="tspan131">Causal</tspan><tspan
       style="font-variant:normal;font-weight:normal;font-size:11.7331px;font-family:'Nimbus Sans';writing-mode:lr-tb;fill:#4d4d4d;fill-opacity:1;fill-rule:nonzero;stroke:none;stroke-width:1.33333"
       x="128.45335 136.45532 145.78311 152.44749 155.12263 159.12361 161.78702 167.12556 173.78995"
       y="231.25192"
       id="tspan132">Empirical</tspan><tspan
       style="font-variant:normal;font-weight:normal;font-size:11.7331px;font-family:'Nimbus Sans';writing-mode:lr-tb;fill:#4d4d4d;fill-opacity:1;fill-rule:nonzero;stroke:none;stroke-width:1.33333"
       x="131.12003 139.12198 141.78539 144.44881 147.12395 155.11417 163.11612 171.11807"
       y="180.29359"
       id="tspan133">All SNPs</tspan><tspan
       style="font-variant:normal;font-weight:normal;font-size:11.7331px;font-family:'Nimbus Sans';writing-mode:lr-tb;fill:#4d4d4d;fill-opacity:1;fill-rule:nonzero;stroke:none;stroke-width:1.33333"
       x="59.120026 61.783432 68.447815 73.786369 80.450752 89.790283 96.454666 99.118073 105.78246 108.4576 115.12199 117.78539 121.78637 128.45076 135.11514 141.79126 144.45467 153.78246 160.45857 167.12297 172.44978"
       y="129.33527"
       id="tspan134">Incomplete (5+5 QTLs)</tspan><tspan
       style="font-variant:normal;font-weight:normal;font-size:11.7331px;font-family:'Nimbus Sans';writing-mode:lr-tb;fill:#4d4d4d;fill-opacity:1;fill-rule:nonzero;stroke:none;stroke-width:1.33333"
       x="-0.87998247 8.4478168 11.122956 16.44977 21.788322 24.451723 31.116112 37.792225 40.455639 45.782452 52.458569 57.785385 64.449776 71.114159 77.790283 84.454666 88.455643 93.782455 96.457596 99.121002 103.12199 109.78637 112.44978 115.12492 117.78832 121.78931 128.45369 135.11807 141.78246 144.4576 153.78539 160.44978 167.11417 172.45271"
       y="78.376923"
       id="tspan135">Missing secondary trait (5+0 QTLs)</tspan><tspan
       style="font-variant:normal;font-weight:normal;font-size:11.7331px;font-family:'Nimbus Sans';writing-mode:lr-tb;fill:#4d4d4d;fill-opacity:1;fill-rule:nonzero;stroke:none;stroke-width:1.33333"
       x="13.786694 23.114483 25.789623 31.116436 36.454987 39.118397 45.782776 52.458904 55.122307 61.78669 65.787674 68.45108 77.790604 84.454994 88.455971 93.782791 96.457932 99.121338 103.12231 109.7867 112.4501 115.12524 117.78865 121.78963 128.45401 135.11841 141.78279 144.45793 153.78572 160.4501 167.11449 172.45305"
       y="27.418594"
       id="tspan136">Missing primary trait (0+5 QTLs)</tspan><tspan
       style="font-variant:normal;font-weight:normal;font-size:11.7331px;font-family:'Nimbus Sans';writing-mode:lr-tb;fill:#4d4d4d;fill-opacity:1;fill-rule:nonzero;stroke:none;stroke-width:1.33333"
       id="tspan137" /></text>
  <path
     id="path137"
     d="m 179.37502,278.31866 h 3.656"
     style="fill:none;stroke:#333333;stroke-width:1.42264;stroke-linecap:butt;stroke-linejoin:round;stroke-miterlimit:10;stroke-dasharray:none;stroke-opacity:1" />
  <path
     id="path138"
     d="m 179.37502,227.36533 h 3.656"
     style="fill:none;stroke:#333333;stroke-width:1.42264;stroke-linecap:butt;stroke-linejoin:round;stroke-miterlimit:10;stroke-dasharray:none;stroke-opacity:1" />
  <path
     id="path139"
     d="m 179.37502,176.40666 h 3.656"
     style="fill:none;stroke:#333333;stroke-width:1.42264;stroke-linecap:butt;stroke-linejoin:round;stroke-miterlimit:10;stroke-dasharray:none;stroke-opacity:1" />
  <path
     id="path140"
     d="m 179.37502,125.448 h 3.656"
     style="fill:none;stroke:#333333;stroke-width:1.42264;stroke-linecap:butt;stroke-linejoin:round;stroke-miterlimit:10;stroke-dasharray:none;stroke-opacity:1" />
  <path
     id="path141"
     d="m 179.37502,74.49066 h 3.656"
     style="fill:none;stroke:#333333;stroke-width:1.42264;stroke-linecap:butt;stroke-linejoin:round;stroke-miterlimit:10;stroke-dasharray:none;stroke-opacity:1" />
  <path
     id="path142"
     d="m 179.37502,23.531998 h 3.656"
     style="fill:none;stroke:#333333;stroke-width:1.42264;stroke-linecap:butt;stroke-linejoin:round;stroke-miterlimit:10;stroke-dasharray:none;stroke-opacity:1" />
  <path
     id="path144"
     d="M 183.03102,308.89599 H 644.85501"
     style="fill:none;stroke:#000000;stroke-width:1.42264;stroke-linecap:butt;stroke-linejoin:round;stroke-miterlimit:10;stroke-dasharray:none;stroke-opacity:1" />
  <path
     id="path145"
     d="m 210.83902,312.54799 v -3.652"
     style="fill:none;stroke:#333333;stroke-width:1.42264;stroke-linecap:butt;stroke-linejoin:round;stroke-miterlimit:10;stroke-dasharray:none;stroke-opacity:1" />
  <path
     id="path146"
     d="m 344.41635,312.54799 v -3.652"
     style="fill:none;stroke:#333333;stroke-width:1.42264;stroke-linecap:butt;stroke-linejoin:round;stroke-miterlimit:10;stroke-dasharray:none;stroke-opacity:1" />
  <path
     id="path147"
     d="m 477.99501,312.54799 v -3.652"
     style="fill:none;stroke:#333333;stroke-width:1.42264;stroke-linecap:butt;stroke-linejoin:round;stroke-miterlimit:10;stroke-dasharray:none;stroke-opacity:1" />
  <path
     id="path148"
     d="m 611.57767,312.54799 v -3.652"
     style="fill:none;stroke:#333333;stroke-width:1.42264;stroke-linecap:butt;stroke-linejoin:round;stroke-miterlimit:10;stroke-dasharray:none;stroke-opacity:1" />
  <text
     id="text148"
     xml:space="preserve"
     x="202.83878"
     y="324.02277"
     style="font-size:16px;stroke-width:1.33333"><tspan
       style="font-variant:normal;font-weight:normal;font-size:11.7331px;font-family:'Nimbus Sans';writing-mode:lr-tb;fill:#4d4d4d;fill-opacity:1;fill-rule:nonzero;stroke:none;stroke-width:1.33333"
       x="202.83878 209.50316 212.16656 336.4198 343.08356 345.74698 470.00021 476.66458 479.328 603.57837 610.24274 612.90613"
       y="324.02277"
       id="tspan148">0.00.20.40.6</tspan></text>
  <text
     id="text149"
     xml:space="preserve"
     x="351.27628"
     y="341.81702"
     style="font-size:16px;stroke-width:1.33333"><tspan
       style="font-variant:normal;font-weight:normal;font-size:14.6667px;font-family:'Nimbus Sans';writing-mode:lr-tb;fill:#000000;fill-opacity:1;fill-rule:nonzero;stroke:none;stroke-width:1.33333"
       x="351.27628 360.60428 368.61227 371.28162 379.27493 385.94827 389.93759 397.94559 405.93893 409.94293 420.60559 424.60959 431.28293 439.27628 447.26959 455.27759 460.61627 468.60959"
       y="341.81702"
       id="tspan149">Adjusted R squared</tspan></text>
  <path
     id="path149"
     d="m 279.65102,361.73466 h 268.58399 v 37.65066 H 279.65102 Z"
     style="fill:#ffffff;fill-opacity:1;fill-rule:nonzero;stroke:none;stroke-width:1.33333" />
  <path
     id="path150"
     d="m 294.26035,369.04266 h 23.04133 v 23.04133 h -23.04133 z"
     style="fill:#ffffff;fill-opacity:1;fill-rule:nonzero;stroke:none;stroke-width:1.33333" />
  <path
     id="path151"
     d="m 296.56835,380.56266 h 3.45333"
     style="fill:none;stroke:#d51317;stroke-width:1.42264;stroke-linecap:butt;stroke-linejoin:miter;stroke-miterlimit:10;stroke-dasharray:none;stroke-opacity:1" />
  <path
     id="path152"
     d="m 311.54168,380.56266 h 3.45867"
     style="fill:none;stroke:#d51317;stroke-width:1.42264;stroke-linecap:butt;stroke-linejoin:miter;stroke-miterlimit:10;stroke-dasharray:none;stroke-opacity:1" />
  <path
     id="path153"
     d="m 300.02168,371.92266 h 11.52133 v 17.28133 h -11.52133 z"
     style="fill:#ffffff;fill-opacity:1;fill-rule:nonzero;stroke:#d51317;stroke-width:1.42264;stroke-linecap:butt;stroke-linejoin:miter;stroke-miterlimit:10;stroke-dasharray:none;stroke-opacity:1" />
  <path
     id="path154"
     d="M 305.78168,389.20399 V 371.92266"
     style="fill:none;stroke:#d51317;stroke-width:1.42264;stroke-linecap:butt;stroke-linejoin:miter;stroke-miterlimit:10;stroke-dasharray:none;stroke-opacity:1" />
  <path
     id="path155"
     d="m 418.58301,369.04266 h 23.04133 v 23.04133 h -23.04133 z"
     style="fill:#ffffff;fill-opacity:1;fill-rule:nonzero;stroke:none;stroke-width:1.33333" />
  <path
     id="path156"
     d="m 420.88568,380.56266 h 3.45867"
     style="fill:none;stroke:#f39200;stroke-width:1.42264;stroke-linecap:butt;stroke-linejoin:miter;stroke-miterlimit:10;stroke-dasharray:none;stroke-opacity:1" />
  <path
     id="path157"
     d="m 435.85901,380.56266 h 3.45867"
     style="fill:none;stroke:#f39200;stroke-width:1.42264;stroke-linecap:butt;stroke-linejoin:miter;stroke-miterlimit:10;stroke-dasharray:none;stroke-opacity:1" />
  <path
     id="path158"
     d="m 424.34435,371.92266 h 11.52133 v 17.28133 h -11.52133 z"
     style="fill:#ffffff;fill-opacity:1;fill-rule:nonzero;stroke:#f39200;stroke-width:1.42264;stroke-linecap:butt;stroke-linejoin:miter;stroke-miterlimit:10;stroke-dasharray:none;stroke-opacity:1" />
  <path
     id="path159"
     d="M 430.09901,389.20399 V 371.92266"
     style="fill:none;stroke:#f39200;stroke-width:1.42264;stroke-linecap:butt;stroke-linejoin:miter;stroke-miterlimit:10;stroke-dasharray:none;stroke-opacity:1" />
  <text
     id="text159"
     xml:space="preserve"
     x="324.60962"
     y="384.44983"
     style="font-size:16px;stroke-width:1.33333"><tspan
       style="font-variant:normal;font-weight:normal;font-size:11.7331px;font-family:'Nimbus Sans';writing-mode:lr-tb;fill:#000000;fill-opacity:1;fill-rule:nonzero;stroke:none;stroke-width:1.33333"
       x="324.60962 335.27496 341.93936 348.60376 353.94229 356.60571 363.28183 368.60864 373.94717 383.27496 392.6145 399.2789 401.94229 405.94327 448.92151 456.92346 459.59863 463.59961 470.26398 476.92838 483.59274 486.25616 492.93228 498.25909 503.59766 512.92542 522.26495 528.92932 531.59277 535.59375"
       y="384.44983"
       id="tspan159">Weak asymmetryStrong asymmetry</tspan></text>
  <text
     xml:space="preserve"
     style="font-style:italic;font-weight:bold;font-size:16px;font-family:'Liberation Sans';-inkscape-font-specification:'Liberation Sans Bold Italic';text-align:center;text-anchor:middle;fill:#000000;fill-opacity:1;stroke:none;stroke-width:1.983;stroke-linejoin:round;stroke-dasharray:1.983, 1.983;stroke-dashoffset:0;stroke-opacity:1;paint-order:stroke fill markers"
     x="575.37488"
     y="197.41766"
     id="text160"><tspan
       id="tspan160"
       x="575.37488"
       y="197.41766">Increase false </tspan><tspan
       x="575.37488"
       y="217.41766"
       id="tspan161">positives</tspan></text>
  <text
     xml:space="preserve"
     style="font-style:italic;font-weight:bold;font-size:16px;font-family:'Liberation Sans';-inkscape-font-specification:'Liberation Sans Bold Italic';text-align:center;text-anchor:middle;fill:#000000;fill-opacity:1;stroke:none;stroke-width:1.983;stroke-linejoin:round;stroke-dasharray:1.983, 1.983;stroke-dashoffset:0;stroke-opacity:1;paint-order:stroke fill markers"
     x="575.37488"
     y="68.384529"
     id="text163"><tspan
       id="tspan162"
       x="575.37488"
       y="68.384529">Increase false </tspan><tspan
       x="575.37488"
       y="88.384521"
       id="tspan163">negatives</tspan></text>
</svg>
