<?xml version="1.0" encoding="UTF-8" standalone="no"?>
<!-- Created with Inkscape (http://www.inkscape.org/) -->

<svg
   version="1.1"
   id="svg1"
   width="791.51599"
   height="375.13599"
   viewBox="0 0 791.51599 375.13599"
   xmlns="http://www.w3.org/2000/svg"
   xmlns:svg="http://www.w3.org/2000/svg">
  <defs
     id="defs1" />
  <g
     id="g1">
    <path
       id="path1"
       d="m 6.531,22.949 v 1.168 H 0 V 22.949 L 1.602,22.516 9.234,2.477 h 4.645 l 7.601,20.039 1.633,0.433 v 1.168 h -9.554 v -1.168 l 2.48,-0.433 -2.047,-5.555 H 5.746 L 3.777,22.516 Z M 9.941,5.707 6.402,15.199 h 6.981 z"
       style="fill:#000000;fill-opacity:0.921569;fill-rule:nonzero;stroke:none"
       transform="scale(1.3333333)" />
    <path
       id="path2"
       d="m 313.336,222.852 0.57,0.109 v 3.078 l -0.57,-0.109 -0.211,-0.805 -9.781,-5.219 v -1.875 l 9.781,-1.984 0.211,-0.852 0.57,0.11 v 4.289 l -0.57,-0.11 -0.211,-1.078 -2.711,0.477 v 3.687 l 2.711,1.438 z m -8.164,-3.024 4.383,2.305 v -3.094 z m 8.89,-7.445 c 0,0.594 -0.23,1.07 -0.687,1.429 -0.457,0.36 -1.09,0.54 -1.891,0.54 -0.922,0 -1.777,-0.164 -2.562,-0.5 -0.785,-0.336 -1.406,-0.809 -1.86,-1.414 -0.457,-0.61 -0.687,-1.282 -0.687,-2.024 0,-0.566 0.074,-1.019 0.219,-1.359 l -0.235,-0.024 -0.734,-0.086 -2.125,-0.359 -0.188,1.25 -0.507,-0.094 v -3.398 l 10.437,1.851 0.196,-0.773 0.468,0.094 v 2.593 l -1.125,0.055 c 0.41,0.309 0.731,0.66 0.953,1.055 0.219,0.398 0.328,0.785 0.328,1.164 z m -2.921,-0.086 c 0.562,0 0.996,-0.07 1.304,-0.219 0.309,-0.148 0.461,-0.344 0.461,-0.586 0,-0.195 -0.105,-0.433 -0.312,-0.711 -0.207,-0.281 -0.465,-0.531 -0.774,-0.75 l -4.297,-0.758 c -0.105,0.106 -0.191,0.266 -0.265,0.485 -0.074,0.215 -0.11,0.402 -0.11,0.562 0,0.356 0.184,0.688 0.555,0.992 0.371,0.305 0.871,0.543 1.5,0.719 0.629,0.18 1.277,0.266 1.938,0.266 z m 2.062,-12.188 0.25,-0.851 0.453,0.062 v 2.711 l -1.078,0.031 c 0.387,0.309 0.692,0.657 0.914,1.047 0.219,0.387 0.328,0.782 0.328,1.18 0,0.652 -0.234,1.16 -0.703,1.523 -0.469,0.36 -1.121,0.54 -1.953,0.54 -0.91,0 -1.754,-0.188 -2.531,-0.571 -0.781,-0.379 -1.395,-0.906 -1.836,-1.586 -0.449,-0.679 -0.672,-1.429 -0.672,-2.25 0,-0.718 0.117,-1.371 0.352,-1.961 l -0.289,-0.64 v -0.422 z m -2.039,4.188 c 0.535,0 0.965,-0.086 1.281,-0.266 0.313,-0.179 0.469,-0.406 0.469,-0.679 0,-0.207 -0.105,-0.438 -0.312,-0.696 -0.207,-0.254 -0.465,-0.484 -0.774,-0.687 l -4.398,-0.774 c -0.176,0.235 -0.266,0.559 -0.266,0.969 0,0.387 0.184,0.742 0.555,1.07 0.363,0.328 0.863,0.59 1.492,0.782 0.625,0.187 1.277,0.281 1.953,0.281 z m -2.187,-13.274 c 0.925,0 1.781,0.172 2.562,0.508 0.777,0.34 1.391,0.817 1.844,1.43 0.453,0.617 0.679,1.305 0.679,2.07 0,0.449 -0.085,0.852 -0.257,1.211 l 0.226,0.016 0.742,0.094 1.844,0.296 0.188,-1.25 0.507,0.094 v 4.188 l -0.507,-0.094 -0.188,-0.813 -9.39,-1.671 -0.196,0.773 -0.469,-0.094 v -2.695 l 1.079,0.047 c -0.848,-0.649 -1.274,-1.344 -1.274,-2.086 0,-0.609 0.235,-1.098 0.703,-1.469 0.469,-0.367 1.106,-0.555 1.907,-0.555 z m 0.343,2.055 c -0.547,0 -0.976,0.082 -1.289,0.242 -0.316,0.157 -0.476,0.368 -0.476,0.625 0,0.356 0.347,0.793 1.039,1.313 l 4.32,0.765 c 0.125,-0.125 0.219,-0.273 0.281,-0.445 0.063,-0.176 0.094,-0.328 0.094,-0.461 0,-0.375 -0.184,-0.719 -0.547,-1.031 -0.371,-0.316 -0.863,-0.563 -1.484,-0.742 -0.625,-0.176 -1.27,-0.266 -1.938,-0.266 z m 3.758,-5.883 c 0,-0.175 -0.066,-0.461 -0.203,-0.859 l 0.547,-0.203 c 0.183,0.258 0.336,0.582 0.461,0.976 0.121,0.391 0.179,0.766 0.179,1.118 0,0.574 -0.136,1.015 -0.406,1.328 -0.277,0.308 -0.676,0.461 -1.195,0.461 -0.238,0 -0.613,-0.047 -1.125,-0.141 l -3.961,-0.719 v 0.899 l -0.508,-0.086 -0.305,-1.11 -1.664,-1.086 v -1.14 l 1.664,0.297 v -1.235 l 0.813,0.141 v 1.234 l 3.977,0.711 c 0.425,0.086 0.738,0.125 0.937,0.125 0.277,0 0.477,-0.066 0.602,-0.203 0.125,-0.141 0.187,-0.308 0.187,-0.508 z m 0.125,-7.531 0.25,-0.852 0.453,0.063 v 2.711 l -1.078,0.031 c 0.387,0.309 0.692,0.656 0.914,1.047 0.219,0.387 0.328,0.781 0.328,1.18 0,0.652 -0.234,1.16 -0.703,1.523 -0.469,0.36 -1.121,0.539 -1.953,0.539 -0.91,0 -1.754,-0.187 -2.531,-0.57 -0.781,-0.379 -1.395,-0.906 -1.836,-1.586 -0.449,-0.68 -0.672,-1.43 -0.672,-2.25 0,-0.719 0.117,-1.371 0.352,-1.961 l -0.289,-0.641 v -0.421 z m -2.039,4.188 c 0.535,0 0.965,-0.086 1.281,-0.266 0.313,-0.18 0.469,-0.406 0.469,-0.68 0,-0.207 -0.105,-0.437 -0.312,-0.695 -0.207,-0.254 -0.465,-0.484 -0.774,-0.688 l -4.398,-0.773 c -0.176,0.234 -0.266,0.559 -0.266,0.969 0,0.386 0.184,0.742 0.555,1.07 0.363,0.328 0.863,0.59 1.492,0.781 0.625,0.188 1.277,0.282 1.953,0.282 z m 1.914,-9.102 c 0,-0.176 -0.066,-0.461 -0.203,-0.859 l 0.547,-0.203 c 0.183,0.257 0.336,0.582 0.461,0.976 0.121,0.391 0.179,0.766 0.179,1.117 0,0.574 -0.136,1.016 -0.406,1.328 -0.277,0.309 -0.676,0.461 -1.195,0.461 -0.238,0 -0.613,-0.047 -1.125,-0.14 l -3.961,-0.719 v 0.898 l -0.508,-0.086 -0.305,-1.109 -1.664,-1.086 v -1.14 l 1.664,0.296 v -1.234 l 0.813,0.141 v 1.234 l 3.977,0.711 c 0.425,0.086 0.738,0.125 0.937,0.125 0.277,0 0.477,-0.066 0.602,-0.203 0.125,-0.141 0.187,-0.309 0.187,-0.508 z m 0.125,-3.734 0.188,-0.93 0.515,0.09 v 3.07 l -6.64,-1.172 -0.188,0.711 -0.516,-0.09 v -2.851 z M 304,171.672 c -0.34,0 -0.621,-0.117 -0.852,-0.352 -0.23,-0.238 -0.343,-0.523 -0.343,-0.851 0,-0.332 0.117,-0.614 0.351,-0.844 0.231,-0.234 0.512,-0.352 0.844,-0.352 0.328,0 0.613,0.118 0.852,0.344 0.234,0.231 0.351,0.516 0.351,0.852 0,0.336 -0.113,0.617 -0.344,0.851 -0.234,0.235 -0.519,0.352 -0.859,0.352 z m 2.555,-5.047 5.109,-1.164 -2.453,-1.586 c -0.262,-0.164 -0.52,-0.293 -0.773,-0.383 -0.254,-0.086 -0.465,-0.129 -0.633,-0.129 -0.137,0 -0.246,0.024 -0.328,0.067 -0.09,0.043 -0.161,0.101 -0.219,0.172 -0.059,0.074 -0.121,0.226 -0.188,0.46 l -0.508,-0.093 v -1.805 c 0.122,-0.133 0.286,-0.203 0.493,-0.203 0.48,0 1.05,0.219 1.718,0.648 l 5.289,3.414 v 0.961 l -6.804,1.594 -0.188,0.477 -0.515,-0.086 z m 1.414,-11.27 c 0.469,0 0.902,0.172 1.297,0.516 0.394,0.344 0.722,0.84 0.976,1.492 0.254,0.645 0.414,1.379 0.477,2.199 0.105,0.028 0.281,0.04 0.531,0.04 1.23,0 1.844,-0.469 1.844,-1.414 0,-0.383 -0.074,-0.743 -0.219,-1.071 -0.152,-0.328 -0.324,-0.633 -0.516,-0.922 l 0.493,-0.34 c 0.386,0.457 0.683,0.954 0.898,1.489 0.207,0.539 0.312,1.054 0.312,1.547 0,0.921 -0.23,1.625 -0.695,2.109 -0.465,0.484 -1.144,0.727 -2.039,0.727 -0.894,0 -1.726,-0.188 -2.492,-0.571 -0.766,-0.379 -1.367,-0.883 -1.805,-1.508 -0.441,-0.625 -0.664,-1.273 -0.664,-1.945 0,-0.719 0.145,-1.289 0.438,-1.711 0.285,-0.426 0.675,-0.64 1.164,-0.64 z m 1.969,4.086 c -0.067,-0.636 -0.297,-1.156 -0.688,-1.562 -0.395,-0.414 -0.855,-0.617 -1.383,-0.617 -0.219,0 -0.383,0.054 -0.492,0.164 -0.109,0.101 -0.164,0.226 -0.164,0.375 0,0.359 0.266,0.695 0.797,1.008 0.531,0.304 1.176,0.515 1.93,0.632 z m -0.961,-15.953 c 0.925,0 1.781,0.168 2.562,0.508 0.777,0.336 1.391,0.813 1.844,1.43 0.453,0.613 0.679,1.304 0.679,2.07 0,0.445 -0.085,0.852 -0.257,1.211 l 0.226,0.012 0.742,0.093 1.844,0.297 0.188,-1.25 0.507,0.094 v 4.188 l -0.507,-0.094 -0.188,-0.813 -9.39,-1.672 -0.196,0.774 -0.469,-0.094 v -2.695 l 1.079,0.047 c -0.848,-0.649 -1.274,-1.344 -1.274,-2.086 0,-0.61 0.235,-1.098 0.703,-1.469 0.469,-0.367 1.106,-0.555 1.907,-0.555 z m 0.343,2.055 c -0.547,0 -0.976,0.078 -1.289,0.242 -0.316,0.156 -0.476,0.363 -0.476,0.625 0,0.352 0.347,0.789 1.039,1.313 l 4.32,0.765 c 0.125,-0.125 0.219,-0.273 0.281,-0.445 0.063,-0.18 0.094,-0.332 0.094,-0.461 0,-0.375 -0.184,-0.719 -0.547,-1.031 -0.371,-0.321 -0.863,-0.567 -1.484,-0.742 -0.625,-0.18 -1.27,-0.266 -1.938,-0.266 z m -1.422,-5.945 c -1.019,-0.805 -1.531,-1.797 -1.531,-2.985 0,-0.508 0.141,-0.914 0.422,-1.218 0.277,-0.309 0.652,-0.461 1.133,-0.461 0.269,0 0.648,0.043 1.133,0.132 l 4.148,0.743 0.188,-0.907 0.515,0.102 v 3.016 l -4.445,-0.797 c -0.606,-0.118 -1.012,-0.172 -1.219,-0.172 -0.504,0 -0.758,0.234 -0.758,0.711 0,0.328 0.184,0.695 0.547,1.109 0.364,0.41 0.778,0.715 1.235,0.914 l 4.64,0.828 v 2.078 l -10.398,-1.828 -0.188,0.711 -0.515,-0.086 v -2.851 l 3.617,0.656 1.25,0.246 z m 0.071,-12.243 c 0.469,0 0.902,0.172 1.297,0.516 0.394,0.344 0.722,0.84 0.976,1.492 0.254,0.645 0.414,1.379 0.477,2.203 0.105,0.024 0.281,0.039 0.531,0.039 1.23,0 1.844,-0.472 1.844,-1.414 0,-0.386 -0.074,-0.742 -0.219,-1.07 -0.152,-0.328 -0.324,-0.637 -0.516,-0.922 l 0.493,-0.344 c 0.386,0.457 0.683,0.954 0.898,1.493 0.207,0.535 0.312,1.05 0.312,1.547 0,0.921 -0.23,1.625 -0.695,2.109 -0.465,0.484 -1.144,0.726 -2.039,0.726 -0.894,0 -1.726,-0.191 -2.492,-0.57 -0.766,-0.383 -1.367,-0.883 -1.805,-1.508 -0.441,-0.625 -0.664,-1.273 -0.664,-1.945 0,-0.719 0.145,-1.289 0.438,-1.711 0.285,-0.43 0.675,-0.641 1.164,-0.641 z m 1.969,4.086 c -0.067,-0.636 -0.297,-1.156 -0.688,-1.562 -0.395,-0.414 -0.855,-0.617 -1.383,-0.617 -0.219,0 -0.383,0.054 -0.492,0.164 -0.109,0.101 -0.164,0.226 -0.164,0.375 0,0.359 0.266,0.695 0.797,1.008 0.531,0.304 1.176,0.515 1.93,0.632 z m -1.696,-10.406 c -0.504,0 -0.758,0.235 -0.758,0.711 0,0.328 0.184,0.695 0.547,1.109 0.364,0.411 0.778,0.715 1.235,0.915 l 4.64,0.828 v 2.078 l -6.633,-1.156 -0.195,0.695 -0.516,-0.102 v -2.609 l 1.368,0.062 c -1.043,-0.808 -1.563,-1.796 -1.563,-2.968 0,-0.516 0.137,-0.926 0.414,-1.227 0.278,-0.305 0.664,-0.453 1.164,-0.453 0.27,0 0.746,0.062 1.43,0.195 l 3.828,0.68 0.188,-0.906 0.515,0.101 v 3.016 l -4.445,-0.797 c -0.606,-0.117 -1.012,-0.172 -1.219,-0.172 z m 0.781,-8.265 c -1.253,0 -1.882,0.324 -1.882,0.976 0,0.328 0.199,0.652 0.593,0.977 0.395,0.316 0.926,0.574 1.594,0.773 0.668,0.192 1.363,0.289 2.086,0.289 0.598,0 1.063,-0.097 1.391,-0.289 0.324,-0.195 0.484,-0.441 0.484,-0.742 0,-0.336 -0.191,-0.656 -0.578,-0.969 -0.387,-0.312 -0.906,-0.562 -1.563,-0.742 -0.656,-0.184 -1.363,-0.273 -2.125,-0.273 z m 5.039,2.164 c 0,0.882 -0.277,1.593 -0.835,2.125 -0.559,0.531 -1.305,0.796 -2.243,0.796 -0.843,0 -1.621,-0.183 -2.328,-0.546 -0.707,-0.368 -1.265,-0.875 -1.672,-1.524 -0.41,-0.656 -0.617,-1.394 -0.617,-2.211 0,-0.886 0.278,-1.594 0.836,-2.125 0.559,-0.531 1.305,-0.797 2.242,-0.797 0.844,0 1.621,0.18 2.328,0.547 0.707,0.363 1.27,0.875 1.68,1.531 0.406,0.649 0.609,1.383 0.609,2.204 z m -0.984,-8.172 c 0,-0.18 -0.066,-0.465 -0.203,-0.86 l 0.547,-0.203 c 0.183,0.254 0.336,0.578 0.461,0.977 0.121,0.39 0.179,0.762 0.179,1.117 0,0.57 -0.136,1.016 -0.406,1.328 -0.277,0.305 -0.676,0.461 -1.195,0.461 -0.238,0 -0.613,-0.047 -1.125,-0.141 l -3.961,-0.718 v 0.898 l -0.508,-0.086 -0.305,-1.109 -1.664,-1.086 v -1.141 l 1.664,0.297 v -1.234 l 0.813,0.14 v 1.235 l 3.977,0.711 c 0.425,0.082 0.738,0.125 0.937,0.125 0.277,0 0.477,-0.071 0.602,-0.203 0.125,-0.141 0.187,-0.313 0.187,-0.508 z m -6.023,-8.25 c 0.468,0 1.043,0.211 1.718,0.633 l 5.594,3.429 c 0.817,0.5 1.418,0.922 1.805,1.266 0.39,0.336 0.683,0.683 0.883,1.039 0.203,0.351 0.304,0.726 0.304,1.125 0,0.266 -0.011,0.476 -0.031,0.633 -0.016,0.16 -0.055,0.367 -0.117,0.625 l -1.891,-0.328 v -0.469 l 0.985,-0.156 c 0.121,-0.133 0.179,-0.313 0.179,-0.547 0,-0.313 -0.179,-0.657 -0.539,-1.024 -0.359,-0.371 -1.027,-0.843 -2,-1.422 l -6.679,1.672 -0.188,0.477 -0.516,-0.086 v -2.367 l 4.993,-1.188 -2.344,-1.414 c -0.227,-0.14 -0.477,-0.258 -0.75,-0.351 -0.273,-0.102 -0.492,-0.149 -0.656,-0.149 -0.137,0 -0.246,0.024 -0.328,0.07 -0.09,0.04 -0.161,0.098 -0.219,0.172 -0.059,0.071 -0.121,0.227 -0.188,0.461 l -0.508,-0.093 v -1.805 c 0.122,-0.137 0.286,-0.203 0.493,-0.203 z m 1.922,-7.469 c 0.925,0 1.781,0.168 2.562,0.508 0.777,0.336 1.391,0.812 1.844,1.429 0.453,0.614 0.679,1.305 0.679,2.071 0,0.445 -0.085,0.851 -0.257,1.211 l 0.226,0.015 0.742,0.094 1.844,0.297 0.188,-1.25 0.507,0.094 v 4.183 l -0.507,-0.09 -0.188,-0.812 -9.39,-1.672 -0.196,0.774 -0.469,-0.094 v -2.696 l 1.079,0.047 c -0.848,-0.652 -1.274,-1.347 -1.274,-2.086 0,-0.609 0.235,-1.101 0.703,-1.468 0.469,-0.371 1.106,-0.555 1.907,-0.555 z m 0.343,2.055 c -0.547,0 -0.976,0.078 -1.289,0.242 -0.316,0.156 -0.476,0.363 -0.476,0.625 0,0.351 0.347,0.789 1.039,1.312 l 4.32,0.766 c 0.125,-0.125 0.219,-0.273 0.281,-0.445 0.063,-0.18 0.094,-0.332 0.094,-0.461 0,-0.375 -0.184,-0.719 -0.547,-1.032 -0.371,-0.32 -0.863,-0.566 -1.484,-0.742 -0.625,-0.179 -1.27,-0.265 -1.938,-0.265 z m -1.351,-9.289 c 0.469,0 0.902,0.171 1.297,0.515 0.394,0.344 0.722,0.84 0.976,1.492 0.254,0.645 0.414,1.379 0.477,2.204 0.105,0.023 0.281,0.039 0.531,0.039 1.23,0 1.844,-0.473 1.844,-1.414 0,-0.387 -0.074,-0.743 -0.219,-1.071 -0.152,-0.328 -0.324,-0.636 -0.516,-0.922 l 0.493,-0.343 c 0.386,0.457 0.683,0.953 0.898,1.492 0.207,0.535 0.312,1.051 0.312,1.547 0,0.922 -0.23,1.625 -0.695,2.109 -0.465,0.484 -1.144,0.727 -2.039,0.727 -0.894,0 -1.726,-0.192 -2.492,-0.571 -0.766,-0.383 -1.367,-0.883 -1.805,-1.508 -0.441,-0.625 -0.664,-1.273 -0.664,-1.945 0,-0.719 0.145,-1.289 0.438,-1.711 0.285,-0.429 0.675,-0.64 1.164,-0.64 z m 1.969,4.086 c -0.067,-0.637 -0.297,-1.157 -0.688,-1.563 -0.395,-0.414 -0.855,-0.617 -1.383,-0.617 -0.219,0 -0.383,0.055 -0.492,0.164 -0.109,0.101 -0.164,0.226 -0.164,0.375 0,0.359 0.266,0.695 0.797,1.008 0.531,0.304 1.176,0.515 1.93,0.633 z m -3.383,-11.016 5.109,-1.164 -2.453,-1.586 c -0.262,-0.168 -0.52,-0.297 -0.773,-0.383 -0.254,-0.09 -0.465,-0.133 -0.633,-0.133 -0.137,0 -0.246,0.024 -0.328,0.071 -0.09,0.039 -0.161,0.097 -0.219,0.171 -0.059,0.071 -0.121,0.227 -0.188,0.461 l -0.508,-0.093 v -1.805 c 0.122,-0.137 0.286,-0.203 0.493,-0.203 0.48,0 1.05,0.215 1.718,0.648 l 5.289,3.414 v 0.961 l -6.804,1.594 -0.188,0.477 -0.515,-0.086 z m 6.648,-10.953 0.25,-0.852 0.453,0.063 v 2.711 l -1.078,0.031 c 0.387,0.305 0.692,0.656 0.914,1.047 0.219,0.383 0.328,0.777 0.328,1.179 0,0.649 -0.234,1.157 -0.703,1.524 -0.469,0.359 -1.121,0.539 -1.953,0.539 -0.91,0 -1.754,-0.191 -2.531,-0.57 -0.781,-0.383 -1.395,-0.91 -1.836,-1.586 -0.449,-0.684 -0.672,-1.434 -0.672,-2.25 0,-0.719 0.117,-1.375 0.352,-1.961 l -0.289,-0.641 v -0.422 z m -2.039,4.187 c 0.535,0 0.965,-0.09 1.281,-0.265 0.313,-0.184 0.469,-0.41 0.469,-0.68 0,-0.211 -0.105,-0.441 -0.312,-0.695 -0.207,-0.258 -0.465,-0.485 -0.774,-0.688 l -4.398,-0.773 c -0.176,0.234 -0.266,0.554 -0.266,0.968 0,0.383 0.184,0.743 0.555,1.071 0.363,0.328 0.863,0.586 1.492,0.781 0.625,0.188 1.277,0.281 1.953,0.281 z m 2.039,-8.336 0.188,-0.929 0.515,0.086 v 3.07 l -10.398,-1.844 -0.188,0.711 -0.515,-0.086 v -2.851 z m -0.984,-4.601 c 0.504,0 0.758,-0.238 0.758,-0.711 0,-0.336 -0.184,-0.711 -0.555,-1.125 -0.375,-0.418 -0.785,-0.719 -1.227,-0.899 l -4.633,-0.828 v -2.078 l 6.633,1.156 0.196,-0.851 0.515,0.101 v 2.766 l -1.375,-0.062 c 1.043,0.804 1.563,1.796 1.563,2.968 0,0.524 -0.141,0.938 -0.422,1.235 -0.285,0.297 -0.695,0.445 -1.227,0.445 -0.097,0 -0.269,-0.016 -0.507,-0.047 -0.239,-0.039 -1.797,-0.312 -4.672,-0.828 l -0.188,0.906 -0.516,-0.101 V 56.207 L 311,57.004 c 0.598,0.113 1.004,0.172 1.219,0.172 z m -4.25,-12.914 c 0.469,0 0.902,0.172 1.297,0.515 0.394,0.344 0.722,0.84 0.976,1.493 0.254,0.644 0.414,1.378 0.477,2.203 0.105,0.023 0.281,0.039 0.531,0.039 1.23,0 1.844,-0.473 1.844,-1.414 0,-0.387 -0.074,-0.743 -0.219,-1.071 -0.152,-0.328 -0.324,-0.636 -0.516,-0.922 l 0.493,-0.343 c 0.386,0.457 0.683,0.953 0.898,1.492 0.207,0.535 0.312,1.051 0.312,1.547 0,0.922 -0.23,1.625 -0.695,2.109 -0.465,0.485 -1.144,0.727 -2.039,0.727 -0.894,0 -1.726,-0.192 -2.492,-0.571 -0.766,-0.382 -1.367,-0.882 -1.805,-1.507 -0.441,-0.625 -0.664,-1.274 -0.664,-1.946 0,-0.718 0.145,-1.289 0.438,-1.711 0.285,-0.429 0.675,-0.64 1.164,-0.64 z m 1.969,4.086 c -0.067,-0.637 -0.297,-1.157 -0.688,-1.563 -0.395,-0.414 -0.855,-0.617 -1.383,-0.617 -0.219,0 -0.383,0.055 -0.492,0.164 -0.109,0.102 -0.164,0.227 -0.164,0.375 0,0.359 0.266,0.695 0.797,1.008 0.531,0.305 1.176,0.515 1.93,0.633 z"
       style="fill:#000000;fill-opacity:0.921569;fill-rule:nonzero;stroke:none"
       transform="scale(1.3333333)" />
    <path
       id="path3"
       d="m 112.828,269.027 -1.633,-0.254 0.129,-0.711 h 10.274 l -0.586,3.329 h -0.891 l 0.059,-2.118 c -0.707,-0.089 -1.754,-0.136 -3.133,-0.136 h -1.348 l -0.851,4.804 h 2.746 l 0.554,-1.445 h 0.872 l -0.715,4.024 h -0.867 l -0.04,-1.485 h -2.746 l -0.886,5.047 h 1.785 c 1.648,0 2.75,-0.051 3.301,-0.156 l 1.007,-2.422 h 0.887 l -0.82,3.652 H 109.02 l 0.117,-0.711 1.726,-0.265 z m 17.137,5.051 c 0,-0.633 -0.297,-0.949 -0.887,-0.949 -0.41,0 -0.875,0.23 -1.387,0.683 -0.515,0.458 -0.894,0.973 -1.144,1.543 l -1.035,5.801 h -2.598 l 1.445,-8.289 -0.867,-0.246 0.125,-0.644 h 3.262 l -0.078,1.711 c 1.011,-1.301 2.246,-1.954 3.711,-1.954 0.644,0 1.156,0.172 1.535,0.516 0.375,0.348 0.566,0.832 0.566,1.457 0,0.34 -0.082,0.934 -0.246,1.785 l -0.847,4.785 1.132,0.235 -0.129,0.644 h -3.769 l 0.996,-5.554 c 0.145,-0.754 0.215,-1.262 0.215,-1.524 z m 6.887,-2.109 1.453,6.386 1.984,-3.066 c 0.207,-0.324 0.367,-0.648 0.477,-0.969 0.113,-0.316 0.168,-0.582 0.168,-0.789 0,-0.168 -0.032,-0.304 -0.09,-0.41 -0.051,-0.109 -0.121,-0.203 -0.215,-0.273 -0.09,-0.071 -0.281,-0.149 -0.574,-0.235 l 0.117,-0.636 h 2.254 c 0.172,0.152 0.254,0.355 0.254,0.617 0,0.597 -0.27,1.316 -0.809,2.148 l -4.269,6.61 h -1.2 l -1.992,-8.504 -0.598,-0.235 0.11,-0.644 z m 8.945,8.308 1.16,0.235 -0.105,0.644 h -3.84 l 1.465,-8.301 -0.887,-0.234 0.105,-0.644 h 3.567 z m -0.82,-11.504 c 0,-0.421 0.144,-0.777 0.437,-1.062 0.301,-0.285 0.656,-0.43 1.066,-0.43 0.415,0 0.766,0.145 1.055,0.438 0.293,0.289 0.438,0.64 0.438,1.054 0,0.411 -0.141,0.766 -0.43,1.067 -0.285,0.293 -0.641,0.437 -1.063,0.437 -0.418,0 -0.773,-0.14 -1.066,-0.429 -0.293,-0.293 -0.437,-0.649 -0.437,-1.075 z m 7.363,5.176 c 0.355,-0.695 0.789,-1.238 1.297,-1.629 0.515,-0.39 1.031,-0.586 1.543,-0.586 0.312,0 0.582,0.032 0.812,0.098 l -0.566,3.289 h -0.539 l -0.43,-1.336 c -0.488,0 -0.914,0.125 -1.277,0.371 -0.368,0.246 -0.719,0.641 -1.055,1.18 l -1.027,5.82 h -2.625 l 1.465,-8.301 -1.145,-0.234 0.109,-0.644 h 3.66 z m 10.176,1.106 c 0,-1.571 -0.407,-2.356 -1.223,-2.356 -0.41,0 -0.816,0.25 -1.219,0.742 -0.398,0.497 -0.719,1.161 -0.969,1.993 -0.238,0.836 -0.359,1.703 -0.359,2.609 0,0.75 0.121,1.328 0.359,1.738 0.243,0.403 0.551,0.606 0.93,0.606 0.414,0 0.82,-0.242 1.211,-0.723 0.391,-0.48 0.699,-1.133 0.926,-1.953 0.23,-0.82 0.344,-1.707 0.344,-2.656 z m -2.707,6.297 c -1.106,0 -1.993,-0.348 -2.657,-1.043 -0.664,-0.696 -0.996,-1.633 -0.996,-2.805 0,-1.055 0.231,-2.024 0.684,-2.91 0.457,-0.883 1.09,-1.582 1.906,-2.09 0.82,-0.512 1.742,-0.77 2.762,-0.77 1.109,0 1.992,0.348 2.656,1.043 0.664,0.7 0.996,1.633 0.996,2.805 0,1.055 -0.226,2.023 -0.683,2.91 -0.454,0.887 -1.094,1.586 -1.915,2.098 -0.812,0.508 -1.73,0.762 -2.753,0.762 z m 13.496,-7.274 c 0,-0.633 -0.297,-0.949 -0.887,-0.949 -0.41,0 -0.875,0.23 -1.387,0.683 -0.515,0.458 -0.894,0.973 -1.144,1.543 l -1.035,5.801 h -2.598 l 1.445,-8.289 -0.867,-0.246 0.125,-0.644 h 3.262 l -0.078,1.711 c 1.011,-1.301 2.246,-1.954 3.711,-1.954 0.644,0 1.156,0.172 1.535,0.516 0.375,0.348 0.566,0.832 0.566,1.457 0,0.34 -0.082,0.934 -0.246,1.785 l -0.848,4.785 1.133,0.235 -0.129,0.644 h -3.769 l 0.996,-5.554 c 0.144,-0.754 0.215,-1.262 0.215,-1.524 z m 15.578,0 c 0,-0.633 -0.235,-0.949 -0.703,-0.949 -0.231,0 -0.5,0.133 -0.813,0.391 -0.305,0.261 -0.582,0.593 -0.828,0.996 -0.242,0.406 -0.394,0.785 -0.461,1.144 l -0.965,5.496 h -2.609 l 0.996,-5.554 c 0.145,-0.754 0.215,-1.262 0.215,-1.524 0,-0.633 -0.238,-0.949 -0.723,-0.949 -0.312,0 -0.668,0.219 -1.062,0.656 -0.399,0.43 -0.715,0.953 -0.95,1.57 l -1.035,5.801 h -2.597 l 1.445,-8.289 -0.867,-0.246 0.125,-0.644 h 3.203 l -0.027,1.64 c 0.468,-0.637 0.964,-1.109 1.492,-1.414 0.527,-0.312 1.117,-0.469 1.769,-0.469 0.578,0 1.032,0.172 1.356,0.516 0.332,0.34 0.504,0.812 0.508,1.418 0.918,-1.289 2.019,-1.934 3.3,-1.934 0.575,0 1.032,0.184 1.368,0.547 0.339,0.36 0.507,0.864 0.507,1.512 0,0.242 -0.054,0.672 -0.164,1.289 l -0.929,5.195 1.132,0.235 -0.125,0.644 h -3.769 l 0.996,-5.554 c 0.141,-0.754 0.215,-1.262 0.215,-1.524 z m 12.078,-0.344 c 0,0.586 -0.215,1.129 -0.645,1.621 -0.429,0.497 -1.05,0.903 -1.863,1.223 -0.808,0.32 -1.726,0.516 -2.754,0.594 -0.035,0.133 -0.051,0.351 -0.051,0.664 0,1.539 0.59,2.305 1.77,2.305 0.48,0 0.926,-0.09 1.336,-0.274 0.41,-0.187 0.797,-0.402 1.152,-0.644 l 0.43,0.617 c -0.57,0.48 -1.195,0.855 -1.863,1.121 -0.672,0.262 -1.317,0.391 -1.934,0.391 -1.152,0 -2.031,-0.29 -2.637,-0.868 -0.605,-0.578 -0.91,-1.429 -0.91,-2.55 0,-1.118 0.238,-2.157 0.715,-3.114 0.473,-0.957 1.102,-1.711 1.883,-2.258 0.781,-0.55 1.594,-0.828 2.433,-0.828 0.899,0 1.61,0.184 2.137,0.547 0.535,0.36 0.801,0.844 0.801,1.453 z m -5.106,2.461 c 0.793,-0.082 1.446,-0.371 1.954,-0.859 0.511,-0.492 0.769,-1.07 0.769,-1.727 0,-0.273 -0.066,-0.48 -0.203,-0.617 -0.133,-0.137 -0.289,-0.203 -0.469,-0.203 -0.449,0 -0.871,0.332 -1.261,0.996 -0.383,0.664 -0.649,1.469 -0.79,2.41 z m 13.008,-2.117 c 0,-0.633 -0.297,-0.949 -0.89,-0.949 -0.411,0 -0.871,0.23 -1.387,0.683 -0.512,0.458 -0.895,0.973 -1.141,1.543 l -1.035,5.801 h -2.598 l 1.446,-8.289 -0.871,-0.246 0.129,-0.644 h 3.261 l -0.078,1.711 c 1.008,-1.301 2.246,-1.954 3.711,-1.954 0.645,0 1.156,0.172 1.531,0.516 0.379,0.348 0.567,0.832 0.567,1.457 0,0.34 -0.082,0.934 -0.242,1.785 l -0.852,4.785 1.133,0.235 -0.125,0.644 h -3.77 l 0.996,-5.554 c 0.141,-0.754 0.215,-1.262 0.215,-1.524 z m 7.84,6.043 c 0.223,0 0.582,-0.082 1.074,-0.254 l 0.254,0.684 c -0.316,0.23 -0.726,0.422 -1.219,0.578 -0.488,0.148 -0.953,0.223 -1.398,0.223 -0.715,0 -1.269,-0.168 -1.66,-0.508 -0.383,-0.344 -0.574,-0.84 -0.574,-1.492 0,-0.301 0.058,-0.77 0.175,-1.407 l 0.899,-4.953 h -1.125 l 0.109,-0.633 1.387,-0.382 1.355,-2.079 h 1.426 l -0.371,2.079 h 1.543 l -0.176,1.015 h -1.543 l -0.886,4.973 c -0.106,0.535 -0.157,0.926 -0.157,1.172 0,0.343 0.082,0.593 0.254,0.75 0.176,0.156 0.387,0.234 0.633,0.234 z"
       style="fill:#000000;fill-opacity:0.921569;fill-rule:nonzero;stroke:none"
       transform="scale(1.3333333)" />
    <path
       id="path4"
       d="m 407.449,269.027 -1.629,-0.254 0.125,-0.711 h 10.274 l -0.586,3.329 h -0.887 l 0.059,-2.118 c -0.711,-0.089 -1.754,-0.136 -3.137,-0.136 h -1.348 l -0.847,4.804 h 2.742 l 0.558,-1.445 h 0.868 l -0.711,4.024 h -0.871 l -0.039,-1.485 h -2.743 l -0.89,5.047 h 1.789 c 1.644,0 2.746,-0.051 3.301,-0.156 l 1.003,-2.422 h 0.891 l -0.82,3.652 h -10.91 l 0.117,-0.711 1.73,-0.265 z m 17.141,5.051 c 0,-0.633 -0.297,-0.949 -0.891,-0.949 -0.41,0 -0.871,0.23 -1.387,0.683 -0.511,0.458 -0.894,0.973 -1.14,1.543 l -1.035,5.801 h -2.598 l 1.445,-8.289 -0.871,-0.246 0.129,-0.644 h 3.262 l -0.078,1.711 c 1.008,-1.301 2.246,-1.954 3.711,-1.954 0.644,0 1.156,0.172 1.531,0.516 0.379,0.348 0.566,0.832 0.566,1.457 0,0.34 -0.082,0.934 -0.242,1.785 l -0.851,4.785 1.132,0.235 -0.125,0.644 h -3.769 l 0.996,-5.554 c 0.141,-0.754 0.215,-1.262 0.215,-1.524 z m 6.883,-2.109 1.457,6.386 1.98,-3.066 c 0.211,-0.324 0.367,-0.648 0.481,-0.969 0.109,-0.316 0.164,-0.582 0.164,-0.789 0,-0.168 -0.028,-0.304 -0.086,-0.41 -0.055,-0.109 -0.125,-0.203 -0.215,-0.273 -0.094,-0.071 -0.285,-0.149 -0.578,-0.235 l 0.117,-0.636 h 2.258 c 0.168,0.152 0.254,0.355 0.254,0.617 0,0.597 -0.27,1.316 -0.813,2.148 l -4.265,6.61 h -1.204 l -1.992,-8.504 -0.593,-0.235 0.105,-0.644 z m 8.945,8.308 1.164,0.235 -0.109,0.644 h -3.836 l 1.465,-8.301 -0.891,-0.234 0.109,-0.644 h 3.563 z m -0.82,-11.504 c 0,-0.421 0.148,-0.777 0.441,-1.062 0.297,-0.285 0.652,-0.43 1.063,-0.43 0.418,0 0.769,0.145 1.054,0.438 0.293,0.289 0.442,0.64 0.442,1.054 0,0.411 -0.145,0.766 -0.43,1.067 -0.289,0.293 -0.641,0.437 -1.066,0.437 -0.414,0 -0.77,-0.14 -1.063,-0.429 -0.293,-0.293 -0.441,-0.649 -0.441,-1.075 z m 7.363,5.176 c 0.359,-0.695 0.793,-1.238 1.301,-1.629 0.511,-0.39 1.027,-0.586 1.543,-0.586 0.312,0 0.582,0.032 0.808,0.098 l -0.566,3.289 h -0.535 l -0.43,-1.336 c -0.488,0 -0.914,0.125 -1.281,0.371 -0.363,0.246 -0.715,0.641 -1.055,1.18 l -1.023,5.82 h -2.629 l 1.465,-8.301 -1.141,-0.234 0.105,-0.644 h 3.665 z m 10.176,1.106 c 0,-1.571 -0.407,-2.356 -1.219,-2.356 -0.41,0 -0.816,0.25 -1.223,0.742 -0.394,0.497 -0.718,1.161 -0.965,1.993 -0.242,0.836 -0.363,1.703 -0.363,2.609 0,0.75 0.121,1.328 0.363,1.738 0.239,0.403 0.551,0.606 0.926,0.606 0.418,0 0.821,-0.242 1.211,-0.723 0.391,-0.48 0.699,-1.133 0.93,-1.953 0.226,-0.82 0.34,-1.707 0.34,-2.656 z m -2.703,6.297 c -1.11,0 -1.993,-0.348 -2.657,-1.043 -0.664,-0.696 -0.996,-1.633 -0.996,-2.805 0,-1.055 0.227,-2.024 0.684,-2.91 0.453,-0.883 1.09,-1.582 1.902,-2.09 0.821,-0.512 1.742,-0.77 2.766,-0.77 1.105,0 1.992,0.348 2.656,1.043 0.664,0.7 0.996,1.633 0.996,2.805 0,1.055 -0.23,2.023 -0.683,2.91 -0.457,0.887 -1.094,1.586 -1.914,2.098 -0.817,0.508 -1.735,0.762 -2.754,0.762 z m 13.496,-7.274 c 0,-0.633 -0.297,-0.949 -0.891,-0.949 -0.41,0 -0.871,0.23 -1.387,0.683 -0.511,0.458 -0.894,0.973 -1.14,1.543 l -1.035,5.801 h -2.598 l 1.445,-8.289 -0.871,-0.246 0.129,-0.644 h 3.262 l -0.078,1.711 c 1.007,-1.301 2.246,-1.954 3.711,-1.954 0.644,0 1.156,0.172 1.531,0.516 0.379,0.348 0.566,0.832 0.566,1.457 0,0.34 -0.082,0.934 -0.242,1.785 l -0.852,4.785 1.133,0.235 -0.125,0.644 h -3.769 l 0.996,-5.554 c 0.14,-0.754 0.215,-1.262 0.215,-1.524 z m 15.574,0 c 0,-0.633 -0.234,-0.949 -0.703,-0.949 -0.227,0 -0.496,0.133 -0.809,0.391 -0.308,0.261 -0.582,0.593 -0.832,0.996 -0.238,0.406 -0.394,0.785 -0.457,1.144 l -0.969,5.496 h -2.605 l 0.996,-5.554 c 0.141,-0.754 0.215,-1.262 0.215,-1.524 0,-0.633 -0.242,-0.949 -0.723,-0.949 -0.312,0 -0.668,0.219 -1.066,0.656 -0.395,0.43 -0.711,0.953 -0.946,1.57 l -1.035,5.801 h -2.597 l 1.445,-8.289 -0.871,-0.246 0.129,-0.644 h 3.203 l -0.031,1.64 c 0.468,-0.637 0.968,-1.109 1.496,-1.414 0.527,-0.312 1.117,-0.469 1.765,-0.469 0.582,0 1.032,0.172 1.36,0.516 0.332,0.34 0.5,0.812 0.508,1.418 0.918,-1.289 2.015,-1.934 3.3,-1.934 0.571,0 1.028,0.184 1.368,0.547 0.335,0.36 0.507,0.864 0.507,1.512 0,0.242 -0.054,0.672 -0.168,1.289 l -0.925,5.195 1.132,0.235 -0.129,0.644 h -3.769 l 0.996,-5.554 c 0.145,-0.754 0.215,-1.262 0.215,-1.524 z m 12.082,-0.344 c 0,0.586 -0.215,1.129 -0.645,1.621 -0.429,0.497 -1.05,0.903 -1.867,1.223 -0.804,0.32 -1.722,0.516 -2.754,0.594 -0.031,0.133 -0.047,0.351 -0.047,0.664 0,1.539 0.59,2.305 1.766,2.305 0.484,0 0.93,-0.09 1.34,-0.274 0.41,-0.187 0.793,-0.402 1.152,-0.644 l 0.43,0.617 c -0.574,0.48 -1.195,0.855 -1.867,1.121 -0.668,0.262 -1.313,0.391 -1.934,0.391 -1.152,0 -2.031,-0.29 -2.637,-0.868 -0.605,-0.578 -0.906,-1.429 -0.906,-2.55 0,-1.118 0.238,-2.157 0.711,-3.114 0.477,-0.957 1.106,-1.711 1.887,-2.258 0.781,-0.55 1.59,-0.828 2.43,-0.828 0.898,0 1.613,0.184 2.14,0.547 0.531,0.36 0.801,0.844 0.801,1.453 z m -5.109,2.461 c 0.796,-0.082 1.445,-0.371 1.953,-0.859 0.515,-0.492 0.773,-1.07 0.773,-1.727 0,-0.273 -0.07,-0.48 -0.207,-0.617 -0.129,-0.137 -0.285,-0.203 -0.469,-0.203 -0.449,0 -0.867,0.332 -1.257,0.996 -0.387,0.664 -0.649,1.469 -0.793,2.41 z m 13.007,-2.117 c 0,-0.633 -0.296,-0.949 -0.886,-0.949 -0.41,0 -0.875,0.23 -1.387,0.683 -0.516,0.458 -0.895,0.973 -1.145,1.543 l -1.035,5.801 h -2.597 l 1.445,-8.289 -0.867,-0.246 0.125,-0.644 h 3.261 l -0.078,1.711 c 1.012,-1.301 2.246,-1.954 3.711,-1.954 0.645,0 1.157,0.172 1.535,0.516 0.375,0.348 0.567,0.832 0.567,1.457 0,0.34 -0.082,0.934 -0.246,1.785 l -0.848,4.785 1.133,0.235 -0.129,0.644 h -3.77 l 0.997,-5.554 c 0.144,-0.754 0.214,-1.262 0.214,-1.524 z m 7.844,6.043 c 0.219,0 0.578,-0.082 1.074,-0.254 l 0.254,0.684 c -0.32,0.23 -0.726,0.422 -1.222,0.578 -0.489,0.148 -0.954,0.223 -1.395,0.223 -0.719,0 -1.269,-0.168 -1.66,-0.508 -0.387,-0.344 -0.578,-0.84 -0.578,-1.492 0,-0.301 0.058,-0.77 0.176,-1.407 l 0.898,-4.953 h -1.121 l 0.105,-0.633 1.387,-0.382 1.359,-2.079 h 1.426 l -0.371,2.079 h 1.543 l -0.176,1.015 h -1.543 l -0.89,4.973 c -0.102,0.535 -0.156,0.926 -0.156,1.172 0,0.343 0.085,0.593 0.253,0.75 0.176,0.156 0.387,0.234 0.637,0.234 z"
       style="fill:#000000;fill-opacity:0.921569;fill-rule:nonzero;stroke:none"
       transform="scale(1.3333333)" />
    <path
       id="path52"
       d="m 312.434,7.887 c 0,-1.246 -0.274,-2.149 -0.817,-2.703 -0.535,-0.555 -1.422,-0.832 -2.66,-0.832 h -2.223 v 7.472 h 2.352 c 1.141,0 1.984,-0.297 2.531,-0.894 0.543,-0.598 0.817,-1.614 0.817,-3.043 z m 1.613,9.91 c 0,-1.422 -0.356,-2.477 -1.07,-3.172 -0.704,-0.691 -1.864,-1.039 -3.473,-1.039 h -2.77 v 8.707 c 1.536,0.066 2.746,0.098 3.633,0.098 1.25,0 2.172,-0.379 2.77,-1.137 0.609,-0.758 0.91,-1.91 0.91,-3.457 z m -15.125,6.258 v -1.168 l 2.769,-0.434 V 4.176 L 298.922,3.758 V 2.59 h 10.422 c 2.847,0 4.949,0.383 6.304,1.152 1.356,0.758 2.036,1.988 2.036,3.699 0,1.278 -0.403,2.383 -1.204,3.313 -0.8,0.926 -1.871,1.535 -3.214,1.824 1.992,0.203 3.504,0.746 4.527,1.633 1.027,0.875 1.539,2.07 1.539,3.586 0,2.082 -0.77,3.66 -2.305,4.738 -1.539,1.078 -3.742,1.617 -6.613,1.617 l -7.297,-0.097 z"
       style="fill:#000000;fill-opacity:0.921569;fill-rule:nonzero;stroke:none"
       transform="scale(1.3333333)" />
    <path
       id="path54"
       d="M 324.996,261.988 592.402,1.289"
       style="fill:#808080;fill-opacity:1;fill-rule:nonzero;stroke:#000013;stroke-width:2.78497;stroke-linecap:butt;stroke-linejoin:round;stroke-miterlimit:4;stroke-dasharray:22.2797, 5.56994, 2.78497, 5.56994;stroke-dashoffset:0;stroke-opacity:1;paint-order:stroke fill markers"
       transform="scale(1.3333333)" />
    <path
       id="path55"
       d="M 593.637,263.242 H 323.164 V 0"
       style="fill:none;stroke:#000000;stroke-width:3.0077;stroke-linecap:butt;stroke-linejoin:round;stroke-miterlimit:4;stroke-dasharray:none;stroke-opacity:1"
       transform="scale(1.3333333)" />
    <path
       id="path56"
       d="M 323.965,152.164 590.918,51.746"
       style="fill:#7f63b8;fill-opacity:1;fill-rule:nonzero;stroke:#7f63b8;stroke-width:2.78497;stroke-linecap:butt;stroke-linejoin:round;stroke-miterlimit:4;stroke-dasharray:22.2797, 5.56994, 2.78497, 5.56994;stroke-dashoffset:0;stroke-opacity:1;paint-order:stroke fill markers"
       transform="scale(1.3333333)" />
    <path
       id="path57"
       d="m 454.426,101.352 -0.047,40.343"
       style="fill:none;stroke:#b8486e;stroke-width:1.84819;stroke-linecap:butt;stroke-linejoin:miter;stroke-miterlimit:3.5;stroke-dasharray:1.84819, 1.84819;stroke-dashoffset:0;stroke-opacity:1"
       transform="scale(1.3333333)" />
    <path
       id="path58"
       d="M 565.48,98.352 566.09,8.691"
       style="fill:none;stroke:#b9843b;stroke-width:1.84901;stroke-linecap:butt;stroke-linejoin:miter;stroke-miterlimit:4;stroke-dasharray:none;stroke-opacity:1"
       transform="scale(1.3333333)" />
    <path
       id="path59"
       d="m 565.578,98.633 c 0.418,-9.192 4.406,-17.891 8.188,-22.34 3.808,-4.481 15.328,-14.727 15.433,-22.731 0.113,-8.402 -12.777,-19.25 -16.273,-23.824 -3.934,-5.09 -6.508,-13.144 -7.035,-21.445"
       style="fill:none;stroke:#b9843b;stroke-width:1.84901;stroke-linecap:butt;stroke-linejoin:miter;stroke-miterlimit:4;stroke-dasharray:none;stroke-opacity:1"
       transform="scale(1.3333333)" />
    <path
       id="path60"
       d="m 477.199,131.379 0.61,-89.66"
       style="fill:none;stroke:#62ad64;stroke-width:1.84901;stroke-linecap:butt;stroke-linejoin:miter;stroke-miterlimit:4;stroke-dasharray:none;stroke-opacity:1"
       transform="scale(1.3333333)" />
    <path
       id="path61"
       d="m 477.297,131.66 c 0.418,-9.191 4.41,-17.89 8.187,-22.336 3.809,-4.48 15.328,-14.73 15.434,-22.734 0.113,-8.402 -12.777,-19.246 -16.273,-23.82 -3.934,-5.094 -6.508,-13.149 -7.036,-21.45"
       style="fill:none;stroke:#62ad64;stroke-width:1.84901;stroke-linecap:butt;stroke-linejoin:miter;stroke-miterlimit:4;stroke-dasharray:none;stroke-opacity:1"
       transform="scale(1.3333333)" />
    <path
       id="path62"
       d="m 454.156,85.586 h 0.34 l 47.508,0.09"
       style="fill:none;stroke:#62ad64;stroke-width:1.84922;stroke-linecap:butt;stroke-linejoin:miter;stroke-miterlimit:4;stroke-dasharray:1.84922, 1.84922;stroke-dashoffset:0;stroke-opacity:1"
       transform="scale(1.3333333)" />
    <path
       id="path63"
       d="m 542.438,52.555 h -88.161 l 136.008,0.093"
       style="fill:none;stroke:#b9843b;stroke-width:1.84922;stroke-linecap:butt;stroke-linejoin:miter;stroke-miterlimit:4;stroke-dasharray:1.84922, 1.84922;stroke-dashoffset:0;stroke-opacity:1"
       transform="scale(1.3333333)" />
    <path
       id="path64"
       d="m 339.109,182.477 0.61,-89.657"
       style="fill:none;stroke:#b8486e;stroke-width:1.84901;stroke-linecap:butt;stroke-linejoin:miter;stroke-miterlimit:4;stroke-dasharray:none;stroke-opacity:1"
       transform="scale(1.3333333)" />
    <path
       id="path65"
       d="m 339.207,182.758 c 0.418,-9.192 4.41,-17.891 8.188,-22.336 3.808,-4.481 15.328,-14.731 15.433,-22.734 0.113,-8.403 -12.777,-19.247 -16.273,-23.821 -3.934,-5.094 -6.508,-13.148 -7.035,-21.449"
       style="fill:none;stroke:#b8486e;stroke-width:1.84901;stroke-linecap:butt;stroke-linejoin:miter;stroke-miterlimit:4;stroke-dasharray:none;stroke-opacity:1"
       transform="scale(1.3333333)" />
    <path
       id="path66"
       d="m 339.879,136.688 115.066,0.058 h 0.133"
       style="fill:none;stroke:#b8486e;stroke-width:1.84922;stroke-linecap:butt;stroke-linejoin:miter;stroke-miterlimit:4;stroke-dasharray:1.84922, 1.84922;stroke-dashoffset:0;stroke-opacity:1"
       transform="scale(1.3333333)" />
    <path
       id="path67"
       d="m 454.418,84.668 -0.023,17.73"
       style="fill:none;stroke:#62ad64;stroke-width:1.84819;stroke-linecap:butt;stroke-linejoin:miter;stroke-miterlimit:3.5;stroke-dasharray:1.84819, 1.84819;stroke-dashoffset:0;stroke-opacity:1"
       transform="scale(1.3333333)" />
    <path
       id="path68"
       d="m 454.379,51.648 0.039,32.977"
       style="fill:none;stroke:#b9843b;stroke-width:1.84819;stroke-linecap:butt;stroke-linejoin:miter;stroke-miterlimit:3.5;stroke-dasharray:1.84819, 1.84819;stroke-dashoffset:0;stroke-opacity:1"
       transform="scale(1.3333333)" />
    <path
       id="path69"
       d="m 457.441,103.273 c 0,1.743 -1.41,3.157 -3.156,3.157 -1.742,0 -3.156,-1.414 -3.156,-3.157 0,-1.746 1.414,-3.16 3.156,-3.16 1.746,0 3.156,1.414 3.156,3.16 z"
       style="fill:#7f63b8;fill-opacity:1;fill-rule:nonzero;stroke:#7f63b8;stroke-width:1.58266;stroke-linecap:butt;stroke-linejoin:round;stroke-miterlimit:4;stroke-dasharray:none;stroke-opacity:1;paint-order:stroke fill markers"
       transform="scale(1.3333333)" />
    <path
       id="path70"
       d="m 313.336,222.852 0.57,0.109 v 3.078 l -0.57,-0.109 -0.211,-0.805 -9.781,-5.219 v -1.875 l 9.781,-1.984 0.211,-0.852 0.57,0.11 v 4.289 l -0.57,-0.11 -0.211,-1.078 -2.711,0.477 v 3.687 l 2.711,1.438 z m -8.164,-3.024 4.383,2.305 v -3.094 z m 8.89,-7.445 c 0,0.594 -0.23,1.07 -0.687,1.429 -0.457,0.36 -1.09,0.54 -1.891,0.54 -0.922,0 -1.777,-0.164 -2.562,-0.5 -0.785,-0.336 -1.406,-0.809 -1.86,-1.414 -0.457,-0.61 -0.687,-1.282 -0.687,-2.024 0,-0.566 0.074,-1.019 0.219,-1.359 l -0.235,-0.024 -0.734,-0.086 -2.125,-0.359 -0.188,1.25 -0.507,-0.094 v -3.398 l 10.437,1.851 0.196,-0.773 0.468,0.094 v 2.593 l -1.125,0.055 c 0.41,0.309 0.731,0.66 0.953,1.055 0.219,0.398 0.328,0.785 0.328,1.164 z m -2.921,-0.086 c 0.562,0 0.996,-0.07 1.304,-0.219 0.309,-0.148 0.461,-0.344 0.461,-0.586 0,-0.195 -0.105,-0.433 -0.312,-0.711 -0.207,-0.281 -0.465,-0.531 -0.774,-0.75 l -4.297,-0.758 c -0.105,0.106 -0.191,0.266 -0.265,0.485 -0.074,0.215 -0.11,0.402 -0.11,0.562 0,0.356 0.184,0.688 0.555,0.992 0.371,0.305 0.871,0.543 1.5,0.719 0.629,0.18 1.277,0.266 1.938,0.266 z m 2.062,-12.188 0.25,-0.851 0.453,0.062 v 2.711 l -1.078,0.031 c 0.387,0.309 0.692,0.657 0.914,1.047 0.219,0.387 0.328,0.782 0.328,1.18 0,0.652 -0.234,1.16 -0.703,1.523 -0.469,0.36 -1.121,0.54 -1.953,0.54 -0.91,0 -1.754,-0.188 -2.531,-0.571 -0.781,-0.379 -1.395,-0.906 -1.836,-1.586 -0.449,-0.679 -0.672,-1.429 -0.672,-2.25 0,-0.718 0.117,-1.371 0.352,-1.961 l -0.289,-0.64 v -0.422 z m -2.039,4.188 c 0.535,0 0.965,-0.086 1.281,-0.266 0.313,-0.179 0.469,-0.406 0.469,-0.679 0,-0.207 -0.105,-0.438 -0.312,-0.696 -0.207,-0.254 -0.465,-0.484 -0.774,-0.687 l -4.398,-0.774 c -0.176,0.235 -0.266,0.559 -0.266,0.969 0,0.387 0.184,0.742 0.555,1.07 0.363,0.328 0.863,0.59 1.492,0.782 0.625,0.187 1.277,0.281 1.953,0.281 z m -2.187,-13.274 c 0.925,0 1.781,0.172 2.562,0.508 0.777,0.34 1.391,0.817 1.844,1.43 0.453,0.617 0.679,1.305 0.679,2.07 0,0.449 -0.085,0.852 -0.257,1.211 l 0.226,0.016 0.742,0.094 1.844,0.296 0.188,-1.25 0.507,0.094 v 4.188 l -0.507,-0.094 -0.188,-0.813 -9.39,-1.671 -0.196,0.773 -0.469,-0.094 v -2.695 l 1.079,0.047 c -0.848,-0.649 -1.274,-1.344 -1.274,-2.086 0,-0.609 0.235,-1.098 0.703,-1.469 0.469,-0.367 1.106,-0.555 1.907,-0.555 z m 0.343,2.055 c -0.547,0 -0.976,0.082 -1.289,0.242 -0.316,0.157 -0.476,0.368 -0.476,0.625 0,0.356 0.347,0.793 1.039,1.313 l 4.32,0.765 c 0.125,-0.125 0.219,-0.273 0.281,-0.445 0.063,-0.176 0.094,-0.328 0.094,-0.461 0,-0.375 -0.184,-0.719 -0.547,-1.031 -0.371,-0.316 -0.863,-0.563 -1.484,-0.742 -0.625,-0.176 -1.27,-0.266 -1.938,-0.266 z m 3.758,-5.883 c 0,-0.175 -0.066,-0.461 -0.203,-0.859 l 0.547,-0.203 c 0.183,0.258 0.336,0.582 0.461,0.976 0.121,0.391 0.179,0.766 0.179,1.118 0,0.574 -0.136,1.015 -0.406,1.328 -0.277,0.308 -0.676,0.461 -1.195,0.461 -0.238,0 -0.613,-0.047 -1.125,-0.141 l -3.961,-0.719 v 0.899 l -0.508,-0.086 -0.305,-1.11 -1.664,-1.086 v -1.14 l 1.664,0.297 v -1.235 l 0.813,0.141 v 1.234 l 3.977,0.711 c 0.425,0.086 0.738,0.125 0.937,0.125 0.277,0 0.477,-0.066 0.602,-0.203 0.125,-0.141 0.187,-0.308 0.187,-0.508 z m 0.125,-7.531 0.25,-0.852 0.453,0.063 v 2.711 l -1.078,0.031 c 0.387,0.309 0.692,0.656 0.914,1.047 0.219,0.387 0.328,0.781 0.328,1.18 0,0.652 -0.234,1.16 -0.703,1.523 -0.469,0.36 -1.121,0.539 -1.953,0.539 -0.91,0 -1.754,-0.187 -2.531,-0.57 -0.781,-0.379 -1.395,-0.906 -1.836,-1.586 -0.449,-0.68 -0.672,-1.43 -0.672,-2.25 0,-0.719 0.117,-1.371 0.352,-1.961 l -0.289,-0.641 v -0.421 z m -2.039,4.188 c 0.535,0 0.965,-0.086 1.281,-0.266 0.313,-0.18 0.469,-0.406 0.469,-0.68 0,-0.207 -0.105,-0.437 -0.312,-0.695 -0.207,-0.254 -0.465,-0.484 -0.774,-0.688 l -4.398,-0.773 c -0.176,0.234 -0.266,0.559 -0.266,0.969 0,0.386 0.184,0.742 0.555,1.07 0.363,0.328 0.863,0.59 1.492,0.781 0.625,0.188 1.277,0.282 1.953,0.282 z m 1.914,-9.102 c 0,-0.176 -0.066,-0.461 -0.203,-0.859 l 0.547,-0.203 c 0.183,0.257 0.336,0.582 0.461,0.976 0.121,0.391 0.179,0.766 0.179,1.117 0,0.574 -0.136,1.016 -0.406,1.328 -0.277,0.309 -0.676,0.461 -1.195,0.461 -0.238,0 -0.613,-0.047 -1.125,-0.14 l -3.961,-0.719 v 0.898 l -0.508,-0.086 -0.305,-1.109 -1.664,-1.086 v -1.14 l 1.664,0.296 v -1.234 l 0.813,0.141 v 1.234 l 3.977,0.711 c 0.425,0.086 0.738,0.125 0.937,0.125 0.277,0 0.477,-0.066 0.602,-0.203 0.125,-0.141 0.187,-0.309 0.187,-0.508 z m 0.125,-3.734 0.188,-0.93 0.515,0.09 v 3.07 l -6.64,-1.172 -0.188,0.711 -0.516,-0.09 v -2.851 z M 304,171.672 c -0.34,0 -0.621,-0.117 -0.852,-0.352 -0.23,-0.238 -0.343,-0.523 -0.343,-0.851 0,-0.332 0.117,-0.614 0.351,-0.844 0.231,-0.234 0.512,-0.352 0.844,-0.352 0.328,0 0.613,0.118 0.852,0.344 0.234,0.231 0.351,0.516 0.351,0.852 0,0.336 -0.113,0.617 -0.344,0.851 -0.234,0.235 -0.519,0.352 -0.859,0.352 z m 2.555,-5.047 5.109,-1.164 -2.453,-1.586 c -0.262,-0.164 -0.52,-0.293 -0.773,-0.383 -0.254,-0.086 -0.465,-0.129 -0.633,-0.129 -0.137,0 -0.246,0.024 -0.328,0.067 -0.09,0.043 -0.161,0.101 -0.219,0.172 -0.059,0.074 -0.121,0.226 -0.188,0.46 l -0.508,-0.093 v -1.805 c 0.122,-0.133 0.286,-0.203 0.493,-0.203 0.48,0 1.05,0.219 1.718,0.648 l 5.289,3.414 v 0.961 l -6.804,1.594 -0.188,0.477 -0.515,-0.086 z m 1.414,-11.27 c 0.469,0 0.902,0.172 1.297,0.516 0.394,0.344 0.722,0.84 0.976,1.492 0.254,0.645 0.414,1.379 0.477,2.199 0.105,0.028 0.281,0.04 0.531,0.04 1.23,0 1.844,-0.469 1.844,-1.414 0,-0.383 -0.074,-0.743 -0.219,-1.071 -0.152,-0.328 -0.324,-0.633 -0.516,-0.922 l 0.493,-0.34 c 0.386,0.457 0.683,0.954 0.898,1.489 0.207,0.539 0.312,1.054 0.312,1.547 0,0.921 -0.23,1.625 -0.695,2.109 -0.465,0.484 -1.144,0.727 -2.039,0.727 -0.894,0 -1.726,-0.188 -2.492,-0.571 -0.766,-0.379 -1.367,-0.883 -1.805,-1.508 -0.441,-0.625 -0.664,-1.273 -0.664,-1.945 0,-0.719 0.145,-1.289 0.438,-1.711 0.285,-0.426 0.675,-0.64 1.164,-0.64 z m 1.969,4.086 c -0.067,-0.636 -0.297,-1.156 -0.688,-1.562 -0.395,-0.414 -0.855,-0.617 -1.383,-0.617 -0.219,0 -0.383,0.054 -0.492,0.164 -0.109,0.101 -0.164,0.226 -0.164,0.375 0,0.359 0.266,0.695 0.797,1.008 0.531,0.304 1.176,0.515 1.93,0.632 z m -0.961,-15.953 c 0.925,0 1.781,0.168 2.562,0.508 0.777,0.336 1.391,0.813 1.844,1.43 0.453,0.613 0.679,1.304 0.679,2.07 0,0.445 -0.085,0.852 -0.257,1.211 l 0.226,0.012 0.742,0.093 1.844,0.297 0.188,-1.25 0.507,0.094 v 4.188 l -0.507,-0.094 -0.188,-0.813 -9.39,-1.672 -0.196,0.774 -0.469,-0.094 v -2.695 l 1.079,0.047 c -0.848,-0.649 -1.274,-1.344 -1.274,-2.086 0,-0.61 0.235,-1.098 0.703,-1.469 0.469,-0.367 1.106,-0.555 1.907,-0.555 z m 0.343,2.055 c -0.547,0 -0.976,0.078 -1.289,0.242 -0.316,0.156 -0.476,0.363 -0.476,0.625 0,0.352 0.347,0.789 1.039,1.313 l 4.32,0.765 c 0.125,-0.125 0.219,-0.273 0.281,-0.445 0.063,-0.18 0.094,-0.332 0.094,-0.461 0,-0.375 -0.184,-0.719 -0.547,-1.031 -0.371,-0.321 -0.863,-0.567 -1.484,-0.742 -0.625,-0.18 -1.27,-0.266 -1.938,-0.266 z m -1.422,-5.945 c -1.019,-0.805 -1.531,-1.797 -1.531,-2.985 0,-0.508 0.141,-0.914 0.422,-1.218 0.277,-0.309 0.652,-0.461 1.133,-0.461 0.269,0 0.648,0.043 1.133,0.132 l 4.148,0.743 0.188,-0.907 0.515,0.102 v 3.016 l -4.445,-0.797 c -0.606,-0.118 -1.012,-0.172 -1.219,-0.172 -0.504,0 -0.758,0.234 -0.758,0.711 0,0.328 0.184,0.695 0.547,1.109 0.364,0.41 0.778,0.715 1.235,0.914 l 4.64,0.828 v 2.078 l -10.398,-1.828 -0.188,0.711 -0.515,-0.086 v -2.851 l 3.617,0.656 1.25,0.246 z m 0.071,-12.243 c 0.469,0 0.902,0.172 1.297,0.516 0.394,0.344 0.722,0.84 0.976,1.492 0.254,0.645 0.414,1.379 0.477,2.203 0.105,0.024 0.281,0.039 0.531,0.039 1.23,0 1.844,-0.472 1.844,-1.414 0,-0.386 -0.074,-0.742 -0.219,-1.07 -0.152,-0.328 -0.324,-0.637 -0.516,-0.922 l 0.493,-0.344 c 0.386,0.457 0.683,0.954 0.898,1.493 0.207,0.535 0.312,1.05 0.312,1.547 0,0.921 -0.23,1.625 -0.695,2.109 -0.465,0.484 -1.144,0.726 -2.039,0.726 -0.894,0 -1.726,-0.191 -2.492,-0.57 -0.766,-0.383 -1.367,-0.883 -1.805,-1.508 -0.441,-0.625 -0.664,-1.273 -0.664,-1.945 0,-0.719 0.145,-1.289 0.438,-1.711 0.285,-0.43 0.675,-0.641 1.164,-0.641 z m 1.969,4.086 c -0.067,-0.636 -0.297,-1.156 -0.688,-1.562 -0.395,-0.414 -0.855,-0.617 -1.383,-0.617 -0.219,0 -0.383,0.054 -0.492,0.164 -0.109,0.101 -0.164,0.226 -0.164,0.375 0,0.359 0.266,0.695 0.797,1.008 0.531,0.304 1.176,0.515 1.93,0.632 z m -1.696,-10.406 c -0.504,0 -0.758,0.235 -0.758,0.711 0,0.328 0.184,0.695 0.547,1.109 0.364,0.411 0.778,0.715 1.235,0.915 l 4.64,0.828 v 2.078 l -6.633,-1.156 -0.195,0.695 -0.516,-0.102 v -2.609 l 1.368,0.062 c -1.043,-0.808 -1.563,-1.796 -1.563,-2.968 0,-0.516 0.137,-0.926 0.414,-1.227 0.278,-0.305 0.664,-0.453 1.164,-0.453 0.27,0 0.746,0.062 1.43,0.195 l 3.828,0.68 0.188,-0.906 0.515,0.101 v 3.016 l -4.445,-0.797 c -0.606,-0.117 -1.012,-0.172 -1.219,-0.172 z m 0.781,-8.265 c -1.253,0 -1.882,0.324 -1.882,0.976 0,0.328 0.199,0.652 0.593,0.977 0.395,0.316 0.926,0.574 1.594,0.773 0.668,0.192 1.363,0.289 2.086,0.289 0.598,0 1.063,-0.097 1.391,-0.289 0.324,-0.195 0.484,-0.441 0.484,-0.742 0,-0.336 -0.191,-0.656 -0.578,-0.969 -0.387,-0.312 -0.906,-0.562 -1.563,-0.742 -0.656,-0.184 -1.363,-0.273 -2.125,-0.273 z m 5.039,2.164 c 0,0.882 -0.277,1.593 -0.835,2.125 -0.559,0.531 -1.305,0.796 -2.243,0.796 -0.843,0 -1.621,-0.183 -2.328,-0.546 -0.707,-0.368 -1.265,-0.875 -1.672,-1.524 -0.41,-0.656 -0.617,-1.394 -0.617,-2.211 0,-0.886 0.278,-1.594 0.836,-2.125 0.559,-0.531 1.305,-0.797 2.242,-0.797 0.844,0 1.621,0.18 2.328,0.547 0.707,0.363 1.27,0.875 1.68,1.531 0.406,0.649 0.609,1.383 0.609,2.204 z m -0.984,-8.172 c 0,-0.18 -0.066,-0.465 -0.203,-0.86 l 0.547,-0.203 c 0.183,0.254 0.336,0.578 0.461,0.977 0.121,0.39 0.179,0.762 0.179,1.117 0,0.57 -0.136,1.016 -0.406,1.328 -0.277,0.305 -0.676,0.461 -1.195,0.461 -0.238,0 -0.613,-0.047 -1.125,-0.141 l -3.961,-0.718 v 0.898 l -0.508,-0.086 -0.305,-1.109 -1.664,-1.086 v -1.141 l 1.664,0.297 v -1.234 l 0.813,0.14 v 1.235 l 3.977,0.711 c 0.425,0.082 0.738,0.125 0.937,0.125 0.277,0 0.477,-0.071 0.602,-0.203 0.125,-0.141 0.187,-0.313 0.187,-0.508 z m -6.023,-8.25 c 0.468,0 1.043,0.211 1.718,0.633 l 5.594,3.429 c 0.817,0.5 1.418,0.922 1.805,1.266 0.39,0.336 0.683,0.683 0.883,1.039 0.203,0.351 0.304,0.726 0.304,1.125 0,0.266 -0.011,0.476 -0.031,0.633 -0.016,0.16 -0.055,0.367 -0.117,0.625 l -1.891,-0.328 v -0.469 l 0.985,-0.156 c 0.121,-0.133 0.179,-0.313 0.179,-0.547 0,-0.313 -0.179,-0.657 -0.539,-1.024 -0.359,-0.371 -1.027,-0.843 -2,-1.422 l -6.679,1.672 -0.188,0.477 -0.516,-0.086 v -2.367 l 4.993,-1.188 -2.344,-1.414 c -0.227,-0.14 -0.477,-0.258 -0.75,-0.351 -0.273,-0.102 -0.492,-0.149 -0.656,-0.149 -0.137,0 -0.246,0.024 -0.328,0.07 -0.09,0.04 -0.161,0.098 -0.219,0.172 -0.059,0.071 -0.121,0.227 -0.188,0.461 l -0.508,-0.093 v -1.805 c 0.122,-0.137 0.286,-0.203 0.493,-0.203 z m 1.922,-7.469 c 0.925,0 1.781,0.168 2.562,0.508 0.777,0.336 1.391,0.812 1.844,1.429 0.453,0.614 0.679,1.305 0.679,2.071 0,0.445 -0.085,0.851 -0.257,1.211 l 0.226,0.015 0.742,0.094 1.844,0.297 0.188,-1.25 0.507,0.094 v 4.183 l -0.507,-0.09 -0.188,-0.812 -9.39,-1.672 -0.196,0.774 -0.469,-0.094 v -2.696 l 1.079,0.047 c -0.848,-0.652 -1.274,-1.347 -1.274,-2.086 0,-0.609 0.235,-1.101 0.703,-1.468 0.469,-0.371 1.106,-0.555 1.907,-0.555 z m 0.343,2.055 c -0.547,0 -0.976,0.078 -1.289,0.242 -0.316,0.156 -0.476,0.363 -0.476,0.625 0,0.351 0.347,0.789 1.039,1.312 l 4.32,0.766 c 0.125,-0.125 0.219,-0.273 0.281,-0.445 0.063,-0.18 0.094,-0.332 0.094,-0.461 0,-0.375 -0.184,-0.719 -0.547,-1.032 -0.371,-0.32 -0.863,-0.566 -1.484,-0.742 -0.625,-0.179 -1.27,-0.265 -1.938,-0.265 z m -1.351,-9.289 c 0.469,0 0.902,0.171 1.297,0.515 0.394,0.344 0.722,0.84 0.976,1.492 0.254,0.645 0.414,1.379 0.477,2.204 0.105,0.023 0.281,0.039 0.531,0.039 1.23,0 1.844,-0.473 1.844,-1.414 0,-0.387 -0.074,-0.743 -0.219,-1.071 -0.152,-0.328 -0.324,-0.636 -0.516,-0.922 l 0.493,-0.343 c 0.386,0.457 0.683,0.953 0.898,1.492 0.207,0.535 0.312,1.051 0.312,1.547 0,0.922 -0.23,1.625 -0.695,2.109 -0.465,0.484 -1.144,0.727 -2.039,0.727 -0.894,0 -1.726,-0.192 -2.492,-0.571 -0.766,-0.383 -1.367,-0.883 -1.805,-1.508 -0.441,-0.625 -0.664,-1.273 -0.664,-1.945 0,-0.719 0.145,-1.289 0.438,-1.711 0.285,-0.429 0.675,-0.64 1.164,-0.64 z m 1.969,4.086 c -0.067,-0.637 -0.297,-1.157 -0.688,-1.563 -0.395,-0.414 -0.855,-0.617 -1.383,-0.617 -0.219,0 -0.383,0.055 -0.492,0.164 -0.109,0.101 -0.164,0.226 -0.164,0.375 0,0.359 0.266,0.695 0.797,1.008 0.531,0.304 1.176,0.515 1.93,0.633 z m -3.383,-11.016 5.109,-1.164 -2.453,-1.586 c -0.262,-0.168 -0.52,-0.297 -0.773,-0.383 -0.254,-0.09 -0.465,-0.133 -0.633,-0.133 -0.137,0 -0.246,0.024 -0.328,0.071 -0.09,0.039 -0.161,0.097 -0.219,0.171 -0.059,0.071 -0.121,0.227 -0.188,0.461 l -0.508,-0.093 v -1.805 c 0.122,-0.137 0.286,-0.203 0.493,-0.203 0.48,0 1.05,0.215 1.718,0.648 l 5.289,3.414 v 0.961 l -6.804,1.594 -0.188,0.477 -0.515,-0.086 z m 6.648,-10.953 0.25,-0.852 0.453,0.063 v 2.711 l -1.078,0.031 c 0.387,0.305 0.692,0.656 0.914,1.047 0.219,0.383 0.328,0.777 0.328,1.179 0,0.649 -0.234,1.157 -0.703,1.524 -0.469,0.359 -1.121,0.539 -1.953,0.539 -0.91,0 -1.754,-0.191 -2.531,-0.57 -0.781,-0.383 -1.395,-0.91 -1.836,-1.586 -0.449,-0.684 -0.672,-1.434 -0.672,-2.25 0,-0.719 0.117,-1.375 0.352,-1.961 l -0.289,-0.641 v -0.422 z m -2.039,4.187 c 0.535,0 0.965,-0.09 1.281,-0.265 0.313,-0.184 0.469,-0.41 0.469,-0.68 0,-0.211 -0.105,-0.441 -0.312,-0.695 -0.207,-0.258 -0.465,-0.485 -0.774,-0.688 l -4.398,-0.773 c -0.176,0.234 -0.266,0.554 -0.266,0.968 0,0.383 0.184,0.743 0.555,1.071 0.363,0.328 0.863,0.586 1.492,0.781 0.625,0.188 1.277,0.281 1.953,0.281 z m 2.039,-8.336 0.188,-0.929 0.515,0.086 v 3.07 l -10.398,-1.844 -0.188,0.711 -0.515,-0.086 v -2.851 z m -0.984,-4.601 c 0.504,0 0.758,-0.238 0.758,-0.711 0,-0.336 -0.184,-0.711 -0.555,-1.125 -0.375,-0.418 -0.785,-0.719 -1.227,-0.899 l -4.633,-0.828 v -2.078 l 6.633,1.156 0.196,-0.851 0.515,0.101 v 2.766 l -1.375,-0.062 c 1.043,0.804 1.563,1.796 1.563,2.968 0,0.524 -0.141,0.938 -0.422,1.235 -0.285,0.297 -0.695,0.445 -1.227,0.445 -0.097,0 -0.269,-0.016 -0.507,-0.047 -0.239,-0.039 -1.797,-0.312 -4.672,-0.828 l -0.188,0.906 -0.516,-0.101 V 56.207 L 311,57.004 c 0.598,0.113 1.004,0.172 1.219,0.172 z m -4.25,-12.914 c 0.469,0 0.902,0.172 1.297,0.515 0.394,0.344 0.722,0.84 0.976,1.493 0.254,0.644 0.414,1.378 0.477,2.203 0.105,0.023 0.281,0.039 0.531,0.039 1.23,0 1.844,-0.473 1.844,-1.414 0,-0.387 -0.074,-0.743 -0.219,-1.071 -0.152,-0.328 -0.324,-0.636 -0.516,-0.922 l 0.493,-0.343 c 0.386,0.457 0.683,0.953 0.898,1.492 0.207,0.535 0.312,1.051 0.312,1.547 0,0.922 -0.23,1.625 -0.695,2.109 -0.465,0.485 -1.144,0.727 -2.039,0.727 -0.894,0 -1.726,-0.192 -2.492,-0.571 -0.766,-0.382 -1.367,-0.882 -1.805,-1.507 -0.441,-0.625 -0.664,-1.274 -0.664,-1.946 0,-0.718 0.145,-1.289 0.438,-1.711 0.285,-0.429 0.675,-0.64 1.164,-0.64 z m 1.969,4.086 c -0.067,-0.637 -0.297,-1.157 -0.688,-1.563 -0.395,-0.414 -0.855,-0.617 -1.383,-0.617 -0.219,0 -0.383,0.055 -0.492,0.164 -0.109,0.102 -0.164,0.227 -0.164,0.375 0,0.359 0.266,0.695 0.797,1.008 0.531,0.305 1.176,0.515 1.93,0.633 z"
       style="fill:#000000;fill-opacity:0.921569;fill-rule:nonzero;stroke:none"
       transform="scale(1.3333333)" />
    <path
       id="path71"
       d="M 30.781,154.629 300.316,53.113"
       style="fill:#808080;fill-opacity:1;fill-rule:nonzero;stroke:#000013;stroke-width:2.78497;stroke-linecap:butt;stroke-linejoin:round;stroke-miterlimit:4;stroke-dasharray:22.2797, 5.56994, 2.78497, 5.56994;stroke-dashoffset:0;stroke-opacity:1;paint-order:stroke fill markers"
       transform="scale(1.3333333)" />
    <path
       id="path72"
       d="M 299.254,263.238 H 28.785 V 0"
       style="fill:none;stroke:#000000;stroke-width:3.0077;stroke-linecap:butt;stroke-linejoin:round;stroke-miterlimit:4;stroke-dasharray:none;stroke-opacity:1"
       transform="scale(1.3333333)" />
    <path
       id="path73"
       d="M 29.586,152.164 296.535,51.746"
       style="fill:#7f63b8;fill-opacity:1;fill-rule:nonzero;stroke:#7f63b8;stroke-width:2.78497;stroke-linecap:butt;stroke-linejoin:round;stroke-miterlimit:4;stroke-dasharray:22.2797, 5.56994, 2.78497, 5.56994;stroke-dashoffset:0;stroke-opacity:1;paint-order:stroke fill markers"
       transform="scale(1.3333333)" />
    <path
       id="path74"
       d="m 160.047,101.352 -0.051,40.343"
       style="fill:none;stroke:#b8486e;stroke-width:1.84819;stroke-linecap:butt;stroke-linejoin:miter;stroke-miterlimit:3.5;stroke-dasharray:1.84819, 1.84819;stroke-dashoffset:0;stroke-opacity:1"
       transform="scale(1.3333333)" />
    <path
       id="path75"
       d="M 271.098,98.352 271.711,8.691"
       style="fill:none;stroke:#b9843b;stroke-width:1.84901;stroke-linecap:butt;stroke-linejoin:miter;stroke-miterlimit:4;stroke-dasharray:none;stroke-opacity:1"
       transform="scale(1.3333333)" />
    <path
       id="path76"
       d="m 271.195,98.633 c 0.422,-9.192 4.41,-17.891 8.188,-22.34 3.808,-4.481 15.328,-14.727 15.433,-22.731 0.114,-8.402 -12.777,-19.25 -16.273,-23.824 -3.934,-5.09 -6.508,-13.144 -7.031,-21.445"
       style="fill:none;stroke:#b9843b;stroke-width:1.84901;stroke-linecap:butt;stroke-linejoin:miter;stroke-miterlimit:4;stroke-dasharray:none;stroke-opacity:1"
       transform="scale(1.3333333)" />
    <path
       id="path77"
       d="m 182.82,131.379 0.61,-89.66"
       style="fill:none;stroke:#62ad64;stroke-width:1.84901;stroke-linecap:butt;stroke-linejoin:miter;stroke-miterlimit:4;stroke-dasharray:none;stroke-opacity:1"
       transform="scale(1.3333333)" />
    <path
       id="path78"
       d="m 182.914,131.66 c 0.422,-9.191 4.41,-17.89 8.191,-22.336 3.805,-4.48 15.325,-14.73 15.43,-22.734 0.113,-8.402 -12.773,-19.246 -16.269,-23.82 -3.938,-5.094 -6.512,-13.149 -7.036,-21.45"
       style="fill:none;stroke:#62ad64;stroke-width:1.84901;stroke-linecap:butt;stroke-linejoin:miter;stroke-miterlimit:4;stroke-dasharray:none;stroke-opacity:1"
       transform="scale(1.3333333)" />
    <path
       id="path79"
       d="m 159.777,85.586 h 0.34 l 47.504,0.09"
       style="fill:none;stroke:#62ad64;stroke-width:1.84922;stroke-linecap:butt;stroke-linejoin:miter;stroke-miterlimit:4;stroke-dasharray:1.84922, 1.84922;stroke-dashoffset:0;stroke-opacity:1"
       transform="scale(1.3333333)" />
    <path
       id="path80"
       d="m 248.059,52.555 h -88.161 l 136.004,0.093"
       style="fill:none;stroke:#b9843b;stroke-width:1.84922;stroke-linecap:butt;stroke-linejoin:miter;stroke-miterlimit:4;stroke-dasharray:1.84922, 1.84922;stroke-dashoffset:0;stroke-opacity:1"
       transform="scale(1.3333333)" />
    <path
       id="path81"
       d="m 36.273,186.488 0.61,-89.66"
       style="fill:none;stroke:#b8486e;stroke-width:1.84901;stroke-linecap:butt;stroke-linejoin:miter;stroke-miterlimit:4;stroke-dasharray:none;stroke-opacity:1"
       transform="scale(1.3333333)" />
    <path
       id="path82"
       d="m 36.371,186.77 c 0.418,-9.192 4.41,-17.891 8.188,-22.34 3.808,-4.481 15.328,-14.727 15.433,-22.735 0.113,-8.398 -12.777,-19.246 -16.273,-23.82 -3.934,-5.09 -6.508,-13.145 -7.035,-21.445"
       style="fill:none;stroke:#b8486e;stroke-width:1.84901;stroke-linecap:butt;stroke-linejoin:miter;stroke-miterlimit:4;stroke-dasharray:none;stroke-opacity:1"
       transform="scale(1.3333333)" />
    <path
       id="path83"
       d="m 37.043,140.699 124.195,0.059"
       style="fill:none;stroke:#b8486e;stroke-width:1.84922;stroke-linecap:butt;stroke-linejoin:miter;stroke-miterlimit:4;stroke-dasharray:1.84922, 1.84922;stroke-dashoffset:0;stroke-opacity:1"
       transform="scale(1.3333333)" />
    <path
       id="path84"
       d="m 160.039,84.668 -0.019,17.73"
       style="fill:none;stroke:#62ad64;stroke-width:1.84819;stroke-linecap:butt;stroke-linejoin:miter;stroke-miterlimit:3.5;stroke-dasharray:1.84819, 1.84819;stroke-dashoffset:0;stroke-opacity:1"
       transform="scale(1.3333333)" />
    <path
       id="path85"
       d="m 160,51.648 0.039,32.977"
       style="fill:none;stroke:#b9843b;stroke-width:1.84819;stroke-linecap:butt;stroke-linejoin:miter;stroke-miterlimit:3.5;stroke-dasharray:1.84819, 1.84819;stroke-dashoffset:0;stroke-opacity:1"
       transform="scale(1.3333333)" />
    <path
       id="path86"
       d="m 18.836,222.852 0.57,0.109 v 3.078 l -0.57,-0.109 -0.211,-0.805 -9.781,-5.219 v -1.875 l 9.781,-1.984 0.211,-0.852 0.57,0.11 v 4.289 l -0.57,-0.11 -0.211,-1.078 -2.711,0.477 v 3.687 l 2.711,1.438 z m -8.164,-3.024 4.383,2.305 v -3.094 z m 8.89,-7.445 c 0,0.594 -0.226,1.07 -0.687,1.429 -0.457,0.36 -1.086,0.54 -1.891,0.54 -0.922,0 -1.773,-0.164 -2.562,-0.5 -0.785,-0.336 -1.406,-0.809 -1.86,-1.414 -0.457,-0.61 -0.687,-1.282 -0.687,-2.024 0,-0.566 0.074,-1.019 0.219,-1.359 l -0.235,-0.024 -0.734,-0.086 -2.125,-0.359 -0.188,1.25 -0.507,-0.094 v -3.398 l 10.437,1.851 0.196,-0.773 0.468,0.094 v 2.593 l -1.125,0.055 c 0.414,0.309 0.731,0.66 0.953,1.055 0.219,0.398 0.328,0.785 0.328,1.164 z m -2.921,-0.086 c 0.562,0 1,-0.07 1.304,-0.219 0.309,-0.148 0.461,-0.344 0.461,-0.586 0,-0.195 -0.101,-0.433 -0.312,-0.711 -0.207,-0.281 -0.465,-0.531 -0.774,-0.75 l -4.297,-0.758 c -0.101,0.106 -0.191,0.266 -0.265,0.485 -0.07,0.215 -0.11,0.402 -0.11,0.562 0,0.356 0.188,0.688 0.555,0.992 0.371,0.305 0.871,0.543 1.5,0.719 0.633,0.18 1.277,0.266 1.938,0.266 z m 2.062,-12.188 0.25,-0.851 0.453,0.062 v 2.711 l -1.078,0.031 c 0.387,0.309 0.692,0.657 0.914,1.047 0.219,0.387 0.328,0.782 0.328,1.18 0,0.652 -0.234,1.16 -0.703,1.523 -0.469,0.36 -1.117,0.54 -1.953,0.54 -0.91,0 -1.754,-0.188 -2.531,-0.571 -0.781,-0.379 -1.391,-0.906 -1.836,-1.586 -0.445,-0.679 -0.672,-1.429 -0.672,-2.25 0,-0.718 0.117,-1.371 0.352,-1.961 l -0.289,-0.64 v -0.422 z m -2.039,4.188 c 0.539,0 0.965,-0.086 1.281,-0.266 0.313,-0.179 0.469,-0.406 0.469,-0.679 0,-0.207 -0.102,-0.438 -0.312,-0.696 -0.207,-0.254 -0.465,-0.484 -0.774,-0.687 l -4.398,-0.774 c -0.176,0.235 -0.266,0.559 -0.266,0.969 0,0.387 0.188,0.742 0.555,1.07 0.367,0.328 0.863,0.59 1.492,0.782 0.625,0.187 1.277,0.281 1.953,0.281 z m -2.187,-13.274 c 0.929,0 1.781,0.172 2.562,0.508 0.777,0.34 1.391,0.817 1.844,1.43 0.453,0.617 0.679,1.305 0.679,2.07 0,0.449 -0.085,0.852 -0.257,1.211 l 0.226,0.016 0.742,0.094 1.844,0.296 0.188,-1.25 0.507,0.094 v 4.188 l -0.507,-0.094 -0.188,-0.813 -9.39,-1.671 -0.196,0.773 -0.469,-0.094 v -2.695 l 1.079,0.047 c -0.848,-0.649 -1.274,-1.344 -1.274,-2.086 0,-0.609 0.235,-1.098 0.703,-1.469 0.469,-0.367 1.106,-0.555 1.907,-0.555 z m 0.343,2.055 c -0.547,0 -0.976,0.082 -1.289,0.242 -0.316,0.157 -0.476,0.368 -0.476,0.625 0,0.356 0.347,0.793 1.039,1.313 l 4.32,0.765 c 0.125,-0.125 0.219,-0.273 0.281,-0.445 0.063,-0.176 0.094,-0.328 0.094,-0.461 0,-0.375 -0.18,-0.719 -0.547,-1.031 -0.367,-0.316 -0.863,-0.563 -1.484,-0.742 -0.625,-0.176 -1.27,-0.266 -1.938,-0.266 z m 3.758,-5.883 c 0,-0.175 -0.066,-0.461 -0.203,-0.859 l 0.547,-0.203 c 0.183,0.258 0.336,0.582 0.461,0.976 0.121,0.391 0.179,0.766 0.179,1.118 0,0.574 -0.132,1.015 -0.406,1.328 -0.273,0.308 -0.672,0.461 -1.195,0.461 -0.238,0 -0.613,-0.047 -1.125,-0.141 l -3.961,-0.719 v 0.899 l -0.508,-0.086 -0.305,-1.11 -1.664,-1.086 v -1.14 l 1.664,0.297 v -1.235 l 0.813,0.141 v 1.234 l 3.977,0.711 c 0.429,0.086 0.742,0.125 0.937,0.125 0.277,0 0.477,-0.066 0.602,-0.203 0.125,-0.141 0.187,-0.308 0.187,-0.508 z m 0.125,-7.531 0.25,-0.852 0.453,0.063 v 2.711 l -1.078,0.031 c 0.387,0.309 0.692,0.656 0.914,1.047 0.219,0.387 0.328,0.781 0.328,1.18 0,0.652 -0.234,1.16 -0.703,1.523 -0.469,0.36 -1.117,0.539 -1.953,0.539 -0.91,0 -1.754,-0.187 -2.531,-0.57 -0.781,-0.379 -1.391,-0.906 -1.836,-1.586 -0.445,-0.68 -0.672,-1.43 -0.672,-2.25 0,-0.719 0.117,-1.371 0.352,-1.961 l -0.289,-0.641 v -0.421 z m -2.039,4.188 c 0.539,0 0.965,-0.086 1.281,-0.266 0.313,-0.18 0.469,-0.406 0.469,-0.68 0,-0.207 -0.102,-0.437 -0.312,-0.695 -0.207,-0.254 -0.465,-0.484 -0.774,-0.688 L 12.93,180.75 c -0.176,0.234 -0.266,0.559 -0.266,0.969 0,0.386 0.188,0.742 0.555,1.07 0.367,0.328 0.863,0.59 1.492,0.781 0.625,0.188 1.277,0.282 1.953,0.282 z m 1.914,-9.098 c 0,-0.18 -0.066,-0.465 -0.203,-0.859 l 0.547,-0.207 c 0.183,0.257 0.336,0.582 0.461,0.976 0.121,0.391 0.179,0.766 0.179,1.117 0,0.574 -0.132,1.016 -0.406,1.328 -0.273,0.309 -0.672,0.461 -1.195,0.461 -0.238,0 -0.613,-0.047 -1.125,-0.14 l -3.961,-0.719 v 0.898 l -0.508,-0.086 -0.305,-1.109 -1.664,-1.086 v -1.14 l 1.664,0.296 v -1.234 l 0.813,0.141 v 1.234 l 3.977,0.711 c 0.429,0.086 0.742,0.125 0.937,0.125 0.277,0 0.477,-0.066 0.602,-0.203 0.125,-0.141 0.187,-0.309 0.187,-0.508 z m 0.125,-3.734 0.188,-0.93 0.515,0.086 v 3.07 l -6.64,-1.172 -0.188,0.711 -0.516,-0.086 v -2.851 z M 9.5,171.676 c -0.336,0 -0.621,-0.117 -0.852,-0.352 -0.226,-0.242 -0.343,-0.523 -0.343,-0.851 0,-0.336 0.117,-0.618 0.351,-0.844 0.231,-0.234 0.512,-0.352 0.844,-0.352 0.328,0 0.613,0.114 0.852,0.344 0.234,0.227 0.351,0.512 0.351,0.852 0,0.332 -0.113,0.617 -0.344,0.851 -0.234,0.235 -0.519,0.352 -0.859,0.352 z m 2.555,-5.047 5.109,-1.164 -2.453,-1.586 c -0.258,-0.168 -0.516,-0.297 -0.773,-0.383 -0.254,-0.09 -0.465,-0.133 -0.633,-0.133 -0.133,0 -0.243,0.024 -0.328,0.071 -0.086,0.039 -0.161,0.097 -0.219,0.168 -0.055,0.074 -0.117,0.23 -0.188,0.46 l -0.508,-0.093 v -1.801 c 0.122,-0.137 0.286,-0.207 0.493,-0.207 0.48,0 1.054,0.219 1.718,0.648 l 5.289,3.414 v 0.961 l -6.804,1.594 -0.188,0.477 -0.515,-0.086 z m 1.414,-11.274 c 0.469,0 0.902,0.172 1.297,0.516 0.398,0.344 0.722,0.84 0.976,1.492 0.258,0.645 0.414,1.379 0.477,2.203 0.105,0.024 0.281,0.039 0.531,0.039 1.23,0 1.844,-0.472 1.844,-1.414 0,-0.386 -0.071,-0.742 -0.219,-1.07 -0.148,-0.328 -0.32,-0.637 -0.516,-0.922 l 0.493,-0.344 c 0.386,0.457 0.687,0.954 0.898,1.493 0.211,0.535 0.312,1.05 0.312,1.547 0,0.921 -0.23,1.625 -0.695,2.109 -0.461,0.484 -1.14,0.726 -2.039,0.726 -0.894,0 -1.726,-0.191 -2.492,-0.57 -0.766,-0.383 -1.367,-0.883 -1.805,-1.508 -0.441,-0.625 -0.664,-1.273 -0.664,-1.945 0,-0.719 0.149,-1.289 0.438,-1.711 0.289,-0.43 0.675,-0.641 1.164,-0.641 z m 1.969,4.086 c -0.067,-0.636 -0.297,-1.156 -0.688,-1.562 -0.395,-0.414 -0.855,-0.617 -1.383,-0.617 -0.219,0 -0.383,0.054 -0.492,0.164 -0.109,0.101 -0.164,0.226 -0.164,0.375 0,0.359 0.266,0.695 0.797,1.008 0.531,0.304 1.176,0.515 1.93,0.632 z m -0.961,-15.953 c 0.929,0 1.781,0.168 2.562,0.508 0.777,0.336 1.391,0.813 1.844,1.43 0.453,0.613 0.679,1.304 0.679,2.07 0,0.445 -0.085,0.852 -0.257,1.211 l 0.226,0.012 0.742,0.093 1.844,0.297 0.188,-1.25 0.507,0.094 v 4.188 l -0.507,-0.094 -0.188,-0.813 -9.39,-1.672 -0.196,0.774 -0.469,-0.094 v -2.695 l 1.079,0.051 c -0.848,-0.653 -1.274,-1.348 -1.274,-2.086 0,-0.61 0.235,-1.102 0.703,-1.469 0.469,-0.371 1.106,-0.555 1.907,-0.555 z m 0.343,2.055 c -0.547,0 -0.976,0.078 -1.289,0.242 -0.316,0.156 -0.476,0.363 -0.476,0.625 0,0.352 0.347,0.789 1.039,1.313 l 4.32,0.765 c 0.125,-0.125 0.219,-0.273 0.281,-0.445 0.063,-0.18 0.094,-0.332 0.094,-0.461 0,-0.375 -0.18,-0.719 -0.547,-1.031 -0.367,-0.321 -0.863,-0.567 -1.484,-0.742 -0.625,-0.18 -1.27,-0.266 -1.938,-0.266 z m -1.422,-5.945 c -1.019,-0.805 -1.531,-1.797 -1.531,-2.985 0,-0.508 0.141,-0.914 0.422,-1.218 0.277,-0.309 0.656,-0.461 1.133,-0.461 0.273,0 0.648,0.043 1.133,0.132 l 4.148,0.743 0.188,-0.907 0.515,0.102 v 3.016 l -4.445,-0.797 c -0.602,-0.118 -1.008,-0.172 -1.219,-0.172 -0.504,0 -0.758,0.234 -0.758,0.711 0,0.328 0.184,0.695 0.547,1.109 0.367,0.41 0.778,0.715 1.235,0.914 l 4.64,0.828 v 2.078 L 9.008,140.863 8.82,141.574 8.305,141.488 v -2.851 l 3.617,0.656 1.25,0.25 z m 0.071,-12.243 c 0.469,0 0.902,0.172 1.297,0.516 0.398,0.344 0.722,0.84 0.976,1.492 0.258,0.645 0.414,1.379 0.477,2.203 0.105,0.024 0.281,0.039 0.531,0.039 1.23,0 1.844,-0.472 1.844,-1.414 0,-0.386 -0.071,-0.742 -0.219,-1.07 -0.148,-0.328 -0.32,-0.637 -0.516,-0.922 l 0.493,-0.344 c 0.386,0.457 0.687,0.954 0.898,1.493 0.211,0.535 0.312,1.05 0.312,1.547 0,0.921 -0.23,1.625 -0.695,2.109 -0.461,0.484 -1.14,0.726 -2.039,0.726 -0.894,0 -1.726,-0.191 -2.492,-0.57 -0.766,-0.383 -1.367,-0.883 -1.805,-1.508 -0.441,-0.625 -0.664,-1.273 -0.664,-1.945 0,-0.719 0.149,-1.289 0.438,-1.711 0.289,-0.43 0.675,-0.641 1.164,-0.641 z m 1.969,4.086 c -0.067,-0.636 -0.297,-1.156 -0.688,-1.562 -0.395,-0.414 -0.855,-0.617 -1.383,-0.617 -0.219,0 -0.383,0.054 -0.492,0.164 -0.109,0.101 -0.164,0.226 -0.164,0.375 0,0.359 0.266,0.695 0.797,1.008 0.531,0.304 1.176,0.515 1.93,0.632 z m -1.696,-10.406 c -0.504,0 -0.758,0.235 -0.758,0.711 0,0.328 0.184,0.695 0.547,1.109 0.367,0.411 0.778,0.715 1.235,0.915 l 4.64,0.828 v 2.078 l -6.633,-1.156 -0.195,0.695 -0.516,-0.102 v -2.609 l 1.368,0.062 c -1.039,-0.808 -1.563,-1.796 -1.563,-2.968 0,-0.516 0.141,-0.926 0.414,-1.227 0.278,-0.305 0.664,-0.453 1.164,-0.453 0.274,0 0.75,0.062 1.43,0.195 l 3.828,0.68 0.188,-0.906 0.515,0.101 v 3.016 l -4.445,-0.797 c -0.602,-0.117 -1.008,-0.172 -1.219,-0.172 z m 0.781,-8.265 c -1.253,0 -1.882,0.324 -1.882,0.976 0,0.328 0.199,0.652 0.593,0.977 0.399,0.316 0.93,0.574 1.594,0.773 0.668,0.192 1.363,0.289 2.086,0.289 0.602,0 1.063,-0.097 1.391,-0.289 0.324,-0.195 0.484,-0.441 0.484,-0.742 0,-0.336 -0.191,-0.656 -0.578,-0.969 -0.383,-0.312 -0.906,-0.562 -1.563,-0.742 -0.656,-0.184 -1.363,-0.273 -2.125,-0.273 z m 5.039,2.164 c 0,0.882 -0.277,1.593 -0.835,2.125 -0.555,0.531 -1.305,0.796 -2.243,0.796 -0.843,0 -1.617,-0.183 -2.328,-0.546 -0.707,-0.368 -1.265,-0.875 -1.672,-1.524 -0.41,-0.656 -0.617,-1.394 -0.617,-2.211 0,-0.886 0.281,-1.594 0.836,-2.125 0.559,-0.531 1.305,-0.797 2.242,-0.797 0.844,0 1.621,0.18 2.328,0.547 0.711,0.363 1.27,0.875 1.68,1.531 0.406,0.649 0.609,1.383 0.609,2.204 z m -0.984,-8.172 c 0,-0.18 -0.066,-0.465 -0.203,-0.86 l 0.547,-0.203 c 0.183,0.254 0.336,0.578 0.461,0.977 0.121,0.39 0.179,0.762 0.179,1.117 0,0.57 -0.132,1.016 -0.406,1.328 -0.273,0.305 -0.672,0.461 -1.195,0.461 -0.238,0 -0.613,-0.047 -1.125,-0.141 l -3.961,-0.718 v 0.898 l -0.508,-0.086 -0.305,-1.109 -1.664,-1.086 v -1.141 l 1.664,0.297 v -1.234 l 0.813,0.14 v 1.235 l 3.977,0.711 c 0.429,0.082 0.742,0.125 0.937,0.125 0.277,0 0.477,-0.071 0.602,-0.203 0.125,-0.141 0.187,-0.313 0.187,-0.508 z m -6.023,-8.25 c 0.468,0 1.043,0.211 1.718,0.633 l 5.594,3.429 c 0.821,0.5 1.422,0.922 1.805,1.266 0.39,0.336 0.687,0.683 0.883,1.039 0.203,0.351 0.304,0.726 0.304,1.125 0,0.266 -0.007,0.476 -0.031,0.633 -0.016,0.16 -0.055,0.367 -0.117,0.625 l -1.891,-0.328 v -0.469 l 0.985,-0.156 c 0.121,-0.133 0.179,-0.313 0.179,-0.547 0,-0.313 -0.179,-0.657 -0.539,-1.024 -0.359,-0.371 -1.023,-0.843 -2,-1.422 l -6.679,1.672 -0.188,0.477 -0.516,-0.086 v -2.367 l 4.993,-1.188 -2.344,-1.414 c -0.227,-0.14 -0.477,-0.258 -0.75,-0.351 -0.273,-0.102 -0.492,-0.149 -0.656,-0.149 -0.133,0 -0.243,0.024 -0.328,0.07 -0.086,0.04 -0.161,0.098 -0.219,0.172 -0.055,0.071 -0.117,0.227 -0.188,0.461 l -0.508,-0.093 v -1.805 c 0.122,-0.137 0.286,-0.203 0.493,-0.203 z m 1.922,-7.469 c 0.929,0 1.781,0.168 2.562,0.508 0.777,0.336 1.391,0.812 1.844,1.429 0.453,0.614 0.679,1.305 0.679,2.071 0,0.445 -0.085,0.851 -0.257,1.211 l 0.226,0.015 0.742,0.094 1.844,0.297 0.188,-1.25 0.507,0.094 v 4.187 l -0.507,-0.094 -0.188,-0.812 -9.39,-1.672 -0.196,0.774 -0.469,-0.094 v -2.696 l 1.079,0.047 c -0.848,-0.652 -1.274,-1.347 -1.274,-2.086 0,-0.609 0.235,-1.101 0.703,-1.468 0.469,-0.371 1.106,-0.555 1.907,-0.555 z m 0.343,2.055 c -0.547,0 -0.976,0.078 -1.289,0.242 -0.316,0.156 -0.476,0.363 -0.476,0.625 0,0.351 0.347,0.789 1.039,1.312 l 4.32,0.766 c 0.125,-0.125 0.219,-0.273 0.281,-0.445 0.063,-0.18 0.094,-0.332 0.094,-0.461 0,-0.375 -0.18,-0.719 -0.547,-1.032 -0.367,-0.32 -0.863,-0.566 -1.484,-0.742 -0.625,-0.179 -1.27,-0.265 -1.938,-0.265 z m -1.351,-9.289 c 0.469,0 0.902,0.171 1.297,0.515 0.398,0.344 0.722,0.84 0.976,1.492 0.258,0.645 0.414,1.379 0.477,2.204 0.105,0.023 0.281,0.039 0.531,0.039 1.23,0 1.844,-0.473 1.844,-1.414 0,-0.387 -0.071,-0.743 -0.219,-1.071 -0.148,-0.328 -0.32,-0.636 -0.516,-0.922 l 0.493,-0.343 c 0.386,0.457 0.687,0.953 0.898,1.492 0.211,0.535 0.312,1.051 0.312,1.547 0,0.922 -0.23,1.625 -0.695,2.109 -0.461,0.484 -1.14,0.727 -2.039,0.727 -0.894,0 -1.726,-0.192 -2.492,-0.571 C 13.57,89.23 12.969,88.73 12.531,88.105 12.09,87.48 11.867,86.832 11.867,86.16 c 0,-0.719 0.149,-1.289 0.438,-1.711 0.289,-0.429 0.675,-0.64 1.164,-0.64 z m 1.969,4.086 c -0.067,-0.637 -0.297,-1.157 -0.688,-1.563 -0.395,-0.414 -0.855,-0.617 -1.383,-0.617 -0.219,0 -0.383,0.055 -0.492,0.164 -0.109,0.101 -0.164,0.226 -0.164,0.375 0,0.359 0.266,0.695 0.797,1.008 0.531,0.304 1.176,0.515 1.93,0.633 z m -3.383,-11.016 5.109,-1.164 -2.453,-1.586 c -0.258,-0.168 -0.516,-0.297 -0.773,-0.383 -0.254,-0.09 -0.465,-0.133 -0.633,-0.133 -0.133,0 -0.243,0.024 -0.328,0.071 -0.086,0.039 -0.161,0.097 -0.219,0.171 -0.055,0.071 -0.117,0.227 -0.188,0.461 l -0.508,-0.093 v -1.805 c 0.122,-0.137 0.286,-0.203 0.493,-0.203 0.48,0 1.054,0.215 1.718,0.648 l 5.289,3.414 v 0.961 l -6.804,1.594 -0.188,0.477 -0.515,-0.086 z m 6.648,-10.953 0.25,-0.852 0.453,0.063 v 2.711 l -1.078,0.031 c 0.387,0.305 0.692,0.656 0.914,1.047 0.219,0.383 0.328,0.777 0.328,1.179 0,0.649 -0.234,1.157 -0.703,1.524 -0.469,0.359 -1.117,0.539 -1.953,0.539 -0.91,0 -1.754,-0.191 -2.531,-0.57 -0.781,-0.383 -1.391,-0.91 -1.836,-1.586 -0.445,-0.684 -0.672,-1.434 -0.672,-2.25 0,-0.719 0.117,-1.375 0.352,-1.961 L 11.938,65.16 v -0.422 z m -2.039,4.187 c 0.539,0 0.965,-0.09 1.281,-0.265 0.313,-0.184 0.469,-0.41 0.469,-0.68 0,-0.211 -0.102,-0.441 -0.312,-0.695 -0.207,-0.258 -0.465,-0.485 -0.774,-0.688 L 12.93,67.012 c -0.176,0.234 -0.266,0.554 -0.266,0.968 0,0.383 0.188,0.743 0.555,1.071 0.367,0.328 0.863,0.586 1.492,0.781 0.625,0.188 1.277,0.281 1.953,0.281 z m 2.039,-8.336 0.188,-0.929 0.515,0.086 v 3.07 L 9.008,62.16 8.82,62.871 8.305,62.785 v -2.851 z m -0.984,-4.601 c 0.508,0 0.758,-0.238 0.758,-0.711 0,-0.336 -0.184,-0.711 -0.555,-1.125 -0.375,-0.418 -0.781,-0.719 -1.227,-0.899 l -4.633,-0.828 v -2.078 l 6.633,1.156 0.196,-0.851 0.515,0.101 v 2.766 l -1.375,-0.062 c 1.043,0.804 1.563,1.796 1.563,2.968 0,0.524 -0.141,0.938 -0.422,1.235 -0.285,0.297 -0.695,0.445 -1.227,0.445 -0.097,0 -0.265,-0.016 -0.507,-0.047 -0.239,-0.039 -1.797,-0.312 -4.672,-0.828 l -0.188,0.906 -0.516,-0.101 v -3.016 l 4.438,0.797 c 0.602,0.113 1.008,0.172 1.219,0.172 z m -4.25,-12.914 c 0.469,0 0.902,0.172 1.297,0.515 0.398,0.344 0.722,0.84 0.976,1.493 0.258,0.644 0.414,1.378 0.477,2.203 0.105,0.023 0.281,0.039 0.531,0.039 1.23,0 1.844,-0.473 1.844,-1.414 0,-0.387 -0.071,-0.743 -0.219,-1.071 -0.148,-0.328 -0.32,-0.636 -0.516,-0.922 l 0.493,-0.343 c 0.386,0.457 0.687,0.953 0.898,1.492 0.211,0.535 0.312,1.051 0.312,1.547 0,0.922 -0.23,1.625 -0.695,2.109 -0.461,0.485 -1.14,0.727 -2.039,0.727 -0.894,0 -1.726,-0.192 -2.492,-0.571 -0.766,-0.382 -1.367,-0.882 -1.805,-1.507 -0.441,-0.625 -0.664,-1.274 -0.664,-1.946 0,-0.718 0.149,-1.289 0.438,-1.711 0.289,-0.429 0.675,-0.64 1.164,-0.64 z m 1.969,4.086 c -0.067,-0.637 -0.297,-1.157 -0.688,-1.563 -0.395,-0.414 -0.855,-0.617 -1.383,-0.617 -0.219,0 -0.383,0.055 -0.492,0.164 -0.109,0.102 -0.164,0.227 -0.164,0.375 0,0.359 0.266,0.695 0.797,1.008 0.531,0.305 1.176,0.515 1.93,0.633 z"
       style="fill:#000000;fill-opacity:0.921569;fill-rule:nonzero;stroke:none"
       transform="scale(1.3333333)" />
    <path
       id="path87"
       d="m 457.547,136.559 c 0,1.746 -1.414,3.16 -3.156,3.16 -1.746,0 -3.161,-1.414 -3.161,-3.16 0,-1.743 1.415,-3.157 3.161,-3.157 1.742,0 3.156,1.414 3.156,3.157 z"
       style="fill:#000000;fill-opacity:1;fill-rule:nonzero;stroke:#000000;stroke-width:1.58266;stroke-linecap:butt;stroke-linejoin:round;stroke-miterlimit:4;stroke-dasharray:none;stroke-opacity:1;paint-order:stroke fill markers"
       transform="scale(1.3333333)" />
    <path
       id="path88"
       d="m 373.27,99.551 c 0,-0.055 0,-0.082 -0.301,-0.383 -2.16,-2.188 -2.735,-5.5 -2.735,-8.18 0,-3.039 0.657,-6.074 2.817,-8.234 0.219,-0.219 0.219,-0.246 0.219,-0.301 0,-0.137 -0.055,-0.191 -0.165,-0.191 -0.191,0 -1.75,1.203 -2.789,3.418 -0.875,1.914 -1.093,3.859 -1.093,5.308 0,1.367 0.191,3.477 1.148,5.473 1.067,2.133 2.543,3.281 2.734,3.281 0.11,0 0.165,-0.054 0.165,-0.191 z"
       style="fill:#7f63b8;fill-opacity:1;fill-rule:nonzero;stroke:none"
       transform="scale(1.3333333)" />
    <path
       id="path89"
       d="m 380.332,91.07 2.023,-2.269 c 0.247,-0.246 0.356,-0.356 1.778,-0.356 v -0.824 c -0.602,0.027 -1.504,0.055 -1.586,0.055 -0.438,0 -1.313,-0.055 -1.805,-0.055 v 0.824 c 0.246,0 0.465,0.028 0.656,0.137 -0.054,0.109 -0.054,0.164 -0.136,0.219 l -1.453,1.64 -1.723,-1.996 h 0.711 v -0.824 c -0.465,0 -1.559,0.055 -2.133,0.055 -0.547,0 -1.34,-0.055 -1.914,-0.055 v 0.824 h 1.258 l 2.707,3.2 -2.297,2.57 c -0.273,0.332 -0.902,0.332 -1.75,0.332 v 0.82 c 0.602,-0.027 1.531,-0.055 1.613,-0.055 0.438,0 1.449,0.028 1.778,0.055 v -0.82 c -0.301,0 -0.629,-0.082 -0.629,-0.192 0,-0.027 0,-0.027 0.109,-0.167 l 1.695,-1.915 1.918,2.274 h -0.683 v 0.82 c 0.465,-0.027 1.531,-0.055 2.105,-0.055 0.547,0 1.34,0.028 1.914,0.055 v -0.82 h -1.23 z"
       style="fill:#7f63b8;fill-opacity:1;fill-rule:nonzero;stroke:none"
       transform="scale(1.3333333)" />
    <path
       id="path90"
       d="m 388.812,85.996 c 1.012,-0.437 1.45,-0.601 1.75,-0.766 0.247,-0.082 0.356,-0.136 0.356,-0.382 0,-0.192 -0.164,-0.383 -0.383,-0.383 -0.082,0 -0.109,0 -0.246,0.109 l -1.672,1.121 0.195,-1.804 c 0.028,-0.219 0,-0.52 -0.386,-0.52 -0.137,0 -0.383,0.082 -0.383,0.356 0,0.109 0.055,0.464 0.082,0.601 0.027,0.192 0.109,1.094 0.137,1.367 l -1.668,-1.121 c -0.11,-0.054 -0.137,-0.109 -0.246,-0.109 -0.246,0 -0.383,0.191 -0.383,0.383 0,0.246 0.137,0.328 0.246,0.355 l 1.832,0.793 c -0.984,0.438 -1.449,0.602 -1.75,0.738 -0.219,0.11 -0.328,0.164 -0.328,0.383 0,0.219 0.137,0.383 0.383,0.383 0.082,0 0.109,0 0.246,-0.109 l 1.668,-1.094 -0.219,1.945 c 0,0.274 0.246,0.383 0.383,0.383 0.164,0 0.386,-0.109 0.386,-0.383 0,-0.109 -0.054,-0.469 -0.054,-0.578 -0.028,-0.219 -0.113,-1.094 -0.141,-1.367 l 1.453,0.957 c 0.328,0.246 0.356,0.246 0.465,0.246 0.219,0 0.383,-0.164 0.383,-0.383 0,-0.246 -0.164,-0.301 -0.273,-0.355 z"
       style="fill:#7f63b8;fill-opacity:1;fill-rule:nonzero;stroke:none"
       transform="scale(1.3333333)" />
    <path
       id="path91"
       d="m 396.449,95.34 c 0,-1.152 -0.437,-1.836 -1.125,-1.836 -0.574,0 -0.929,0.437 -0.929,0.934 0,0.464 0.355,0.929 0.929,0.929 0.192,0 0.438,-0.082 0.606,-0.219 0.054,-0.054 0.082,-0.054 0.082,-0.054 0.027,0 0.027,0 0.027,0.246 0,1.312 -0.605,2.351 -1.18,2.926 -0.191,0.191 -0.191,0.218 -0.191,0.273 0,0.137 0.082,0.191 0.164,0.191 0.191,0 1.617,-1.339 1.617,-3.39 z"
       style="fill:#7f63b8;fill-opacity:1;fill-rule:nonzero;stroke:none"
       transform="scale(1.3333333)" />
    <path
       id="path92"
       d="m 406.07,83.246 -2.351,2.379 0.301,0.301 2.05,-1.778 2,1.778 0.301,-0.301 z"
       style="fill:#7f63b8;fill-opacity:1;fill-rule:nonzero;stroke:none"
       transform="scale(1.3333333)" />
    <path
       id="path93"
       d="m 402.969,93.914 c 0.933,-1.012 1.453,-1.449 2.082,-1.996 0,0 1.066,-0.93 1.695,-1.559 1.668,-1.613 2.051,-2.464 2.051,-2.547 0,-0.164 -0.164,-0.164 -0.192,-0.164 -0.136,0 -0.164,0.028 -0.273,0.192 -0.52,0.851 -0.875,1.125 -1.285,1.125 -0.438,0 -0.629,-0.274 -0.902,-0.574 -0.329,-0.387 -0.629,-0.743 -1.204,-0.743 -1.312,0 -2.109,1.618 -2.109,2 0,0.082 0.055,0.192 0.191,0.192 0.165,0 0.192,-0.082 0.247,-0.192 0.332,-0.82 1.343,-0.82 1.48,-0.82 0.355,0 0.684,0.11 1.094,0.246 0.711,0.274 0.902,0.274 1.34,0.274 -0.629,0.738 -2.079,1.996 -2.407,2.269 l -1.589,1.477 c -1.176,1.179 -1.805,2.164 -1.805,2.301 0,0.164 0.191,0.164 0.219,0.164 0.136,0 0.164,-0.028 0.273,-0.219 0.41,-0.629 0.93,-1.098 1.504,-1.098 0.387,0 0.578,0.168 1.016,0.66 0.273,0.383 0.601,0.657 1.093,0.657 1.75,0 2.762,-2.219 2.762,-2.684 0,-0.082 -0.082,-0.191 -0.219,-0.191 -0.164,0 -0.191,0.109 -0.246,0.246 -0.41,1.121 -1.531,1.453 -2.105,1.453 -0.328,0 -0.657,-0.11 -1.012,-0.223 -0.602,-0.219 -0.875,-0.301 -1.234,-0.301 -0.028,0 -0.301,0 -0.465,0.055 z"
       style="fill:#7f63b8;fill-opacity:1;fill-rule:nonzero;stroke:none"
       transform="scale(1.3333333)" />
    <path
       id="path94"
       d="m 415.301,99.551 c 0,-0.055 0,-0.082 -0.301,-0.383 -2.164,-2.188 -2.738,-5.5 -2.738,-8.18 0,-3.039 0.656,-6.074 2.82,-8.234 0.219,-0.219 0.219,-0.246 0.219,-0.301 0,-0.137 -0.055,-0.191 -0.164,-0.191 -0.192,0 -1.754,1.203 -2.793,3.418 -0.875,1.914 -1.094,3.859 -1.094,5.308 0,1.367 0.191,3.477 1.148,5.473 1.067,2.133 2.547,3.281 2.739,3.281 0.109,0 0.164,-0.054 0.164,-0.191 z"
       style="fill:#7f63b8;fill-opacity:1;fill-rule:nonzero;stroke:none"
       transform="scale(1.3333333)" />
    <path
       id="path95"
       d="m 422.355,91.07 2.028,-2.269 c 0.246,-0.246 0.355,-0.356 1.777,-0.356 v -0.824 c -0.601,0.027 -1.504,0.055 -1.586,0.055 -0.437,0 -1.312,-0.055 -1.808,-0.055 v 0.824 c 0.25,0 0.468,0.028 0.66,0.137 -0.055,0.109 -0.055,0.164 -0.137,0.219 l -1.453,1.64 -1.723,-1.996 h 0.711 v -0.824 c -0.465,0 -1.558,0.055 -2.133,0.055 -0.546,0 -1.339,-0.055 -1.918,-0.055 v 0.824 h 1.262 l 2.707,3.2 -2.297,2.57 c -0.273,0.332 -0.902,0.332 -1.754,0.332 v 0.82 c 0.606,-0.027 1.536,-0.055 1.618,-0.055 0.437,0 1.449,0.028 1.777,0.055 v -0.82 c -0.301,0 -0.629,-0.082 -0.629,-0.192 0,-0.027 0,-0.027 0.109,-0.167 l 1.696,-1.915 1.918,2.274 h -0.688 v 0.82 c 0.465,-0.027 1.535,-0.055 2.11,-0.055 0.546,0 1.339,0.028 1.914,0.055 v -0.82 h -1.231 z"
       style="fill:#7f63b8;fill-opacity:1;fill-rule:nonzero;stroke:none"
       transform="scale(1.3333333)" />
    <path
       id="path96"
       d="m 430.84,85.996 c 1.012,-0.437 1.449,-0.601 1.75,-0.766 0.246,-0.082 0.355,-0.136 0.355,-0.382 0,-0.192 -0.164,-0.383 -0.383,-0.383 -0.082,0 -0.109,0 -0.246,0.109 l -1.668,1.121 0.192,-1.804 c 0.027,-0.219 0,-0.52 -0.383,-0.52 -0.137,0 -0.383,0.082 -0.383,0.356 0,0.109 0.055,0.464 0.082,0.601 0.028,0.192 0.11,1.094 0.137,1.367 l -1.672,-1.121 c -0.109,-0.054 -0.137,-0.109 -0.246,-0.109 -0.246,0 -0.383,0.191 -0.383,0.383 0,0.246 0.137,0.328 0.246,0.355 l 1.836,0.793 c -0.984,0.438 -1.453,0.602 -1.754,0.738 -0.218,0.11 -0.328,0.164 -0.328,0.383 0,0.219 0.137,0.383 0.383,0.383 0.082,0 0.109,0 0.246,-0.109 l 1.672,-1.094 -0.219,1.945 c 0,0.274 0.246,0.383 0.383,0.383 0.164,0 0.383,-0.109 0.383,-0.383 0,-0.109 -0.055,-0.469 -0.055,-0.578 -0.027,-0.219 -0.109,-1.094 -0.137,-1.367 l 1.45,0.957 c 0.328,0.246 0.355,0.246 0.464,0.246 0.219,0 0.383,-0.164 0.383,-0.383 0,-0.246 -0.164,-0.301 -0.273,-0.355 z"
       style="fill:#7f63b8;fill-opacity:1;fill-rule:nonzero;stroke:none"
       transform="scale(1.3333333)" />
    <path
       id="path97"
       d="m 439.953,90.988 c 0,-1.34 -0.191,-3.449 -1.148,-5.445 -1.039,-2.133 -2.543,-3.281 -2.707,-3.281 -0.11,0 -0.192,0.082 -0.192,0.191 0,0.055 0,0.082 0.328,0.41 1.723,1.723 2.707,4.485 2.707,8.125 0,3.008 -0.629,6.074 -2.789,8.262 -0.246,0.219 -0.246,0.246 -0.246,0.301 0,0.109 0.082,0.191 0.192,0.191 0.164,0 1.75,-1.203 2.761,-3.418 0.903,-1.914 1.094,-3.859 1.094,-5.336 z"
       style="fill:#7f63b8;fill-opacity:1;fill-rule:nonzero;stroke:none"
       transform="scale(1.3333333)" />
    <path
       id="path98"
       d="m 446.738,90.988 c 0,-1.34 -0.191,-3.449 -1.148,-5.445 -1.043,-2.133 -2.547,-3.281 -2.711,-3.281 -0.109,0 -0.191,0.082 -0.191,0.191 0,0.055 0,0.082 0.328,0.41 1.726,1.723 2.711,4.485 2.711,8.125 0,3.008 -0.629,6.074 -2.793,8.262 -0.246,0.219 -0.246,0.246 -0.246,0.301 0,0.109 0.082,0.191 0.191,0.191 0.164,0 1.75,-1.203 2.766,-3.418 0.902,-1.914 1.093,-3.859 1.093,-5.336 z"
       style="fill:#7f63b8;fill-opacity:1;fill-rule:nonzero;stroke:none"
       transform="scale(1.3333333)" />
    <path
       id="path99"
       d="m 465.641,155.004 c 0,-0.055 0,-0.082 -0.301,-0.387 -2.16,-2.187 -2.735,-5.496 -2.735,-8.179 0,-3.036 0.657,-6.075 2.817,-8.235 0.219,-0.219 0.219,-0.246 0.219,-0.301 0,-0.136 -0.055,-0.191 -0.164,-0.191 -0.192,0 -1.75,1.203 -2.789,3.418 -0.879,1.918 -1.098,3.859 -1.098,5.309 0,1.367 0.191,3.476 1.152,5.472 1.067,2.133 2.543,3.285 2.735,3.285 0.109,0 0.164,-0.054 0.164,-0.191 z"
       style="fill:#000000;fill-opacity:1;fill-rule:nonzero;stroke:none"
       transform="scale(1.3333333)" />
    <path
       id="path100"
       d="m 472.699,146.52 2.028,-2.27 c 0.246,-0.246 0.355,-0.355 1.777,-0.355 v -0.821 c -0.602,0.028 -1.504,0.055 -1.586,0.055 -0.441,0 -1.316,-0.055 -1.809,-0.055 v 0.821 c 0.246,0 0.465,0.027 0.657,0.136 -0.055,0.11 -0.055,0.164 -0.137,0.219 l -1.449,1.641 -1.723,-1.996 h 0.711 v -0.821 c -0.465,0 -1.559,0.055 -2.133,0.055 -0.547,0 -1.344,-0.055 -1.918,-0.055 v 0.821 h 1.258 l 2.711,3.199 -2.297,2.574 c -0.273,0.328 -0.906,0.328 -1.754,0.328 v 0.82 c 0.602,-0.027 1.535,-0.054 1.617,-0.054 0.438,0 1.45,0.027 1.778,0.054 v -0.82 c -0.301,0 -0.629,-0.082 -0.629,-0.191 0,-0.028 0,-0.028 0.109,-0.164 l 1.695,-1.918 1.915,2.273 h -0.684 v 0.82 c 0.465,-0.027 1.531,-0.054 2.109,-0.054 0.547,0 1.34,0.027 1.914,0.054 v -0.82 h -1.23 z"
       style="fill:#000000;fill-opacity:1;fill-rule:nonzero;stroke:none"
       transform="scale(1.3333333)" />
    <path
       id="path101"
       d="m 481.18,141.445 c 1.011,-0.437 1.449,-0.601 1.75,-0.765 0.25,-0.082 0.359,-0.137 0.359,-0.383 0,-0.192 -0.164,-0.383 -0.387,-0.383 -0.082,0 -0.109,0 -0.246,0.109 l -1.668,1.122 0.192,-1.805 c 0.027,-0.219 0,-0.52 -0.383,-0.52 -0.137,0 -0.383,0.082 -0.383,0.356 0,0.109 0.055,0.465 0.082,0.601 0.027,0.192 0.109,1.094 0.137,1.368 l -1.668,-1.122 c -0.11,-0.054 -0.137,-0.109 -0.246,-0.109 -0.246,0 -0.383,0.191 -0.383,0.383 0,0.246 0.137,0.328 0.246,0.355 l 1.832,0.793 c -0.984,0.438 -1.449,0.602 -1.75,0.739 -0.219,0.113 -0.328,0.168 -0.328,0.386 0,0.219 0.137,0.383 0.383,0.383 0.082,0 0.109,0 0.246,-0.109 l 1.668,-1.098 -0.219,1.945 c 0,0.274 0.246,0.383 0.383,0.383 0.164,0 0.383,-0.109 0.383,-0.383 0,-0.109 -0.055,-0.464 -0.055,-0.574 -0.027,-0.219 -0.109,-1.097 -0.137,-1.371 l 1.45,0.961 c 0.328,0.246 0.355,0.246 0.464,0.246 0.223,0 0.387,-0.164 0.387,-0.383 0,-0.246 -0.164,-0.3 -0.273,-0.359 z"
       style="fill:#000000;fill-opacity:1;fill-rule:nonzero;stroke:none"
       transform="scale(1.3333333)" />
    <path
       id="path102"
       d="m 488.816,150.789 c 0,-1.148 -0.437,-1.832 -1.121,-1.832 -0.574,0 -0.929,0.438 -0.929,0.93 0,0.465 0.355,0.929 0.929,0.929 0.192,0 0.438,-0.082 0.602,-0.218 0.055,-0.055 0.082,-0.055 0.082,-0.055 0.027,0 0.027,0 0.027,0.246 0,1.313 -0.601,2.352 -1.176,2.926 -0.191,0.191 -0.191,0.219 -0.191,0.273 0,0.137 0.082,0.192 0.164,0.192 0.192,0 1.613,-1.34 1.613,-3.391 z"
       style="fill:#000000;fill-opacity:1;fill-rule:nonzero;stroke:none"
       transform="scale(1.3333333)" />
    <path
       id="path103"
       d="m 495.344,149.367 c 0.933,-1.015 1.453,-1.453 2.082,-2 0,0 1.066,-0.929 1.695,-1.558 1.668,-1.614 2.051,-2.461 2.051,-2.543 0,-0.164 -0.164,-0.164 -0.192,-0.164 -0.136,0 -0.164,0.027 -0.273,0.191 -0.519,0.848 -0.875,1.121 -1.285,1.121 -0.438,0 -0.629,-0.273 -0.902,-0.574 -0.329,-0.383 -0.629,-0.738 -1.204,-0.738 -1.312,0 -2.109,1.613 -2.109,1.996 0,0.082 0.055,0.191 0.191,0.191 0.164,0 0.192,-0.082 0.247,-0.191 0.332,-0.821 1.343,-0.821 1.48,-0.821 0.355,0 0.684,0.11 1.094,0.246 0.711,0.274 0.902,0.274 1.34,0.274 -0.629,0.738 -2.079,1.996 -2.407,2.269 l -1.59,1.481 c -1.175,1.176 -1.804,2.16 -1.804,2.297 0,0.164 0.191,0.164 0.219,0.164 0.136,0 0.164,-0.028 0.273,-0.219 0.41,-0.629 0.93,-1.094 1.508,-1.094 0.383,0 0.574,0.164 1.012,0.657 0.273,0.382 0.601,0.656 1.093,0.656 1.75,0 2.762,-2.215 2.762,-2.684 0,-0.082 -0.082,-0.191 -0.219,-0.191 -0.164,0 -0.191,0.109 -0.246,0.246 -0.41,1.125 -1.531,1.453 -2.105,1.453 -0.328,0 -0.657,-0.109 -1.012,-0.219 -0.602,-0.218 -0.875,-0.301 -1.231,-0.301 -0.027,0 -0.304,0 -0.468,0.055 z"
       style="fill:#000000;fill-opacity:1;fill-rule:nonzero;stroke:none"
       transform="scale(1.3333333)" />
    <path
       id="path104"
       d="m 507.668,155.004 c 0,-0.055 0,-0.082 -0.301,-0.387 -2.16,-2.187 -2.734,-5.496 -2.734,-8.179 0,-3.036 0.656,-6.075 2.816,-8.235 0.219,-0.219 0.219,-0.246 0.219,-0.301 0,-0.136 -0.055,-0.191 -0.164,-0.191 -0.192,0 -1.75,1.203 -2.789,3.418 -0.875,1.918 -1.094,3.859 -1.094,5.309 0,1.367 0.191,3.476 1.149,5.472 1.066,2.133 2.542,3.285 2.734,3.285 0.109,0 0.164,-0.054 0.164,-0.191 z"
       style="fill:#000000;fill-opacity:1;fill-rule:nonzero;stroke:none"
       transform="scale(1.3333333)" />
    <path
       id="path105"
       d="m 514.727,146.52 2.023,-2.27 c 0.246,-0.246 0.355,-0.355 1.781,-0.355 v -0.821 c -0.601,0.028 -1.508,0.055 -1.59,0.055 -0.437,0 -1.312,-0.055 -1.804,-0.055 v 0.821 c 0.246,0 0.465,0.027 0.656,0.136 -0.055,0.11 -0.055,0.164 -0.137,0.219 l -1.449,1.641 -1.723,-1.996 h 0.711 v -0.821 c -0.465,0 -1.558,0.055 -2.136,0.055 -0.547,0 -1.34,-0.055 -1.914,-0.055 v 0.821 h 1.257 l 2.711,3.199 -2.301,2.574 c -0.273,0.328 -0.902,0.328 -1.75,0.328 v 0.82 c 0.602,-0.027 1.532,-0.054 1.614,-0.054 0.437,0 1.453,0.027 1.781,0.054 v -0.82 c -0.301,0 -0.629,-0.082 -0.629,-0.191 0,-0.028 0,-0.028 0.11,-0.164 l 1.695,-1.918 1.914,2.273 h -0.684 v 0.82 c 0.465,-0.027 1.532,-0.054 2.106,-0.054 0.551,0 1.343,0.027 1.918,0.054 v -0.82 h -1.231 z"
       style="fill:#000000;fill-opacity:1;fill-rule:nonzero;stroke:none"
       transform="scale(1.3333333)" />
    <path
       id="path106"
       d="m 523.211,141.445 c 1.012,-0.437 1.449,-0.601 1.75,-0.765 0.246,-0.082 0.355,-0.137 0.355,-0.383 0,-0.192 -0.164,-0.383 -0.382,-0.383 -0.082,0 -0.11,0 -0.246,0.109 l -1.672,1.122 0.195,-1.805 c 0.027,-0.219 0,-0.52 -0.387,-0.52 -0.136,0 -0.383,0.082 -0.383,0.356 0,0.109 0.055,0.465 0.082,0.601 0.028,0.192 0.11,1.094 0.137,1.368 l -1.668,-1.122 c -0.109,-0.054 -0.137,-0.109 -0.246,-0.109 -0.246,0 -0.383,0.191 -0.383,0.383 0,0.246 0.137,0.328 0.246,0.355 l 1.832,0.793 c -0.984,0.438 -1.449,0.602 -1.75,0.739 -0.218,0.113 -0.328,0.168 -0.328,0.386 0,0.219 0.137,0.383 0.383,0.383 0.082,0 0.109,0 0.246,-0.109 l 1.668,-1.098 -0.219,1.945 c 0,0.274 0.247,0.383 0.383,0.383 0.164,0 0.387,-0.109 0.387,-0.383 0,-0.109 -0.055,-0.464 -0.055,-0.574 -0.027,-0.219 -0.109,-1.097 -0.14,-1.371 l 1.453,0.961 c 0.328,0.246 0.355,0.246 0.465,0.246 0.218,0 0.382,-0.164 0.382,-0.383 0,-0.246 -0.164,-0.3 -0.273,-0.359 z"
       style="fill:#000000;fill-opacity:1;fill-rule:nonzero;stroke:none"
       transform="scale(1.3333333)" />
    <path
       id="path107"
       d="m 532.324,146.438 c 0,-1.34 -0.191,-3.446 -1.148,-5.446 -1.039,-2.133 -2.547,-3.281 -2.711,-3.281 -0.11,0 -0.192,0.082 -0.192,0.191 0,0.055 0,0.082 0.329,0.41 1.726,1.723 2.71,4.489 2.71,8.126 0,3.011 -0.628,6.074 -2.792,8.265 -0.247,0.219 -0.247,0.246 -0.247,0.301 0,0.109 0.082,0.191 0.192,0.191 0.164,0 1.754,-1.207 2.765,-3.422 0.903,-1.914 1.094,-3.859 1.094,-5.335 z"
       style="fill:#000000;fill-opacity:1;fill-rule:nonzero;stroke:none"
       transform="scale(1.3333333)" />
    <path
       id="path108"
       d="m 539.109,146.438 c 0,-1.34 -0.195,-3.446 -1.152,-5.446 -1.039,-2.133 -2.543,-3.281 -2.707,-3.281 -0.109,0 -0.191,0.082 -0.191,0.191 0,0.055 0,0.082 0.328,0.41 1.722,1.723 2.707,4.489 2.707,8.126 0,3.011 -0.629,6.074 -2.789,8.265 -0.246,0.219 -0.246,0.246 -0.246,0.301 0,0.109 0.082,0.191 0.191,0.191 0.164,0 1.75,-1.207 2.762,-3.422 0.902,-1.914 1.097,-3.859 1.097,-5.335 z"
       style="fill:#000000;fill-opacity:1;fill-rule:nonzero;stroke:none"
       transform="scale(1.3333333)" />
    <path
       id="path109"
       d="m 155.484,246.367 3.375,-3.789 c 0.414,-0.41 0.594,-0.594 2.969,-0.594 v -1.371 c -1.004,0.047 -2.512,0.094 -2.648,0.094 -0.731,0 -2.192,-0.094 -3.012,-0.094 v 1.371 c 0.41,0 0.777,0.047 1.094,0.227 -0.09,0.184 -0.09,0.277 -0.227,0.367 l -2.418,2.738 -2.875,-3.332 h 1.184 v -1.371 c -0.774,0 -2.602,0.094 -3.559,0.094 -0.914,0 -2.234,-0.094 -3.195,-0.094 v 1.371 h 2.101 l 4.516,5.34 -3.832,4.289 c -0.457,0.551 -1.508,0.551 -2.922,0.551 v 1.367 c 1.004,-0.047 2.555,-0.09 2.695,-0.09 0.727,0 2.418,0.043 2.965,0.09 v -1.367 c -0.504,0 -1.05,-0.137 -1.05,-0.32 0,-0.047 0,-0.047 0.183,-0.274 l 2.828,-3.195 3.196,3.789 h -1.141 v 1.367 c 0.777,-0.047 2.559,-0.09 3.516,-0.09 0.914,0 2.234,0.043 3.195,0.09 v -1.367 h -2.055 z"
       style="fill:#000000;fill-opacity:1;fill-rule:nonzero;stroke:none"
       transform="scale(1.3333333)" />
    <path
       id="path110"
       d="m 169.633,237.902 c 1.687,-0.73 2.418,-1.004 2.922,-1.277 0.41,-0.137 0.593,-0.227 0.593,-0.641 0,-0.316 -0.273,-0.636 -0.64,-0.636 -0.137,0 -0.184,0 -0.41,0.183 l -2.786,1.871 0.321,-3.015 c 0.047,-0.364 0,-0.867 -0.641,-0.867 -0.226,0 -0.637,0.14 -0.637,0.593 0,0.184 0.09,0.778 0.137,1.004 0.047,0.321 0.184,1.828 0.227,2.285 l -2.781,-1.871 c -0.184,-0.093 -0.231,-0.183 -0.415,-0.183 -0.41,0 -0.636,0.32 -0.636,0.636 0,0.414 0.226,0.551 0.41,0.594 l 3.058,1.324 c -1.644,0.731 -2.417,1.004 -2.921,1.235 -0.364,0.179 -0.547,0.273 -0.547,0.636 0,0.368 0.226,0.641 0.636,0.641 0.137,0 0.184,0 0.415,-0.184 l 2.781,-1.824 -0.364,3.239 c 0,0.457 0.411,0.64 0.637,0.64 0.274,0 0.641,-0.183 0.641,-0.64 0,-0.18 -0.09,-0.774 -0.09,-0.957 -0.047,-0.368 -0.184,-1.825 -0.231,-2.282 l 2.418,1.598 c 0.551,0.41 0.594,0.41 0.778,0.41 0.367,0 0.64,-0.273 0.64,-0.641 0,-0.41 -0.273,-0.5 -0.457,-0.593 z"
       style="fill:#000000;fill-opacity:1;fill-rule:nonzero;stroke:none"
       transform="scale(1.3333333)" />
    <path
       id="path111"
       d="m 158.734,256.141 h 1.727 v 5.805 h -1.727 z"
       style="fill:#000000;fill-opacity:1;fill-rule:nonzero;stroke:none"
       transform="scale(1.3333333)" />
    <path
       id="path112"
       d="m 155.484,246.367 3.375,-3.789 c 0.414,-0.41 0.594,-0.594 2.969,-0.594 v -1.371 c -1.004,0.047 -2.512,0.094 -2.648,0.094 -0.731,0 -2.192,-0.094 -3.012,-0.094 v 1.371 c 0.41,0 0.777,0.047 1.094,0.227 -0.09,0.184 -0.09,0.277 -0.227,0.367 l -2.418,2.738 -2.875,-3.332 h 1.184 v -1.371 c -0.774,0 -2.602,0.094 -3.559,0.094 -0.914,0 -2.234,-0.094 -3.195,-0.094 v 1.371 h 2.101 l 4.516,5.34 -3.832,4.289 c -0.457,0.551 -1.508,0.551 -2.922,0.551 v 1.367 c 1.004,-0.047 2.555,-0.09 2.695,-0.09 0.727,0 2.418,0.043 2.965,0.09 v -1.367 c -0.504,0 -1.05,-0.137 -1.05,-0.32 0,-0.047 0,-0.047 0.183,-0.274 l 2.828,-3.195 3.196,3.789 h -1.141 v 1.367 c 0.777,-0.047 2.559,-0.09 3.516,-0.09 0.914,0 2.234,0.043 3.195,0.09 v -1.367 h -2.055 z"
       style="fill:#000000;fill-opacity:1;fill-rule:nonzero;stroke:none"
       transform="scale(1.3333333)" />
    <path
       id="path113"
       d="m 169.633,237.902 c 1.687,-0.73 2.418,-1.004 2.922,-1.277 0.41,-0.137 0.593,-0.227 0.593,-0.641 0,-0.316 -0.273,-0.636 -0.64,-0.636 -0.137,0 -0.184,0 -0.41,0.183 l -2.786,1.871 0.321,-3.015 c 0.047,-0.364 0,-0.867 -0.641,-0.867 -0.226,0 -0.637,0.14 -0.637,0.593 0,0.184 0.09,0.778 0.137,1.004 0.047,0.321 0.184,1.828 0.227,2.285 l -2.781,-1.871 c -0.184,-0.093 -0.231,-0.183 -0.415,-0.183 -0.41,0 -0.636,0.32 -0.636,0.636 0,0.414 0.226,0.551 0.41,0.594 l 3.058,1.324 c -1.644,0.731 -2.417,1.004 -2.921,1.235 -0.364,0.179 -0.547,0.273 -0.547,0.636 0,0.368 0.226,0.641 0.636,0.641 0.137,0 0.184,0 0.415,-0.184 l 2.781,-1.824 -0.364,3.239 c 0,0.457 0.411,0.64 0.637,0.64 0.274,0 0.641,-0.183 0.641,-0.64 0,-0.18 -0.09,-0.774 -0.09,-0.957 -0.047,-0.368 -0.184,-1.825 -0.231,-2.282 l 2.418,1.598 c 0.551,0.41 0.594,0.41 0.778,0.41 0.367,0 0.64,-0.273 0.64,-0.641 0,-0.41 -0.273,-0.5 -0.457,-0.593 z"
       style="fill:#000000;fill-opacity:1;fill-rule:nonzero;stroke:none"
       transform="scale(1.3333333)" />
    <path
       id="path114"
       d="m 158.734,256.141 h 1.727 v 5.805 h -1.727 z"
       style="fill:#000000;fill-opacity:1;fill-rule:nonzero;stroke:none"
       transform="scale(1.3333333)" />
    <path
       id="path115"
       d="m 449.785,246.242 3.379,-3.789 c 0.41,-0.41 0.594,-0.59 2.965,-0.59 v -1.371 c -1.004,0.047 -2.508,0.09 -2.649,0.09 -0.726,0 -2.187,-0.09 -3.011,-0.09 v 1.371 c 0.41,0 0.777,0.043 1.097,0.227 -0.093,0.183 -0.093,0.273 -0.23,0.363 l -2.418,2.738 -2.875,-3.328 h 1.187 v -1.371 c -0.777,0 -2.601,0.09 -3.562,0.09 -0.91,0 -2.234,-0.09 -3.195,-0.09 v 1.371 h 2.101 l 4.52,5.34 -3.836,4.289 c -0.457,0.547 -1.504,0.547 -2.922,0.547 v 1.371 c 1.004,-0.047 2.559,-0.094 2.695,-0.094 0.731,0 2.418,0.047 2.965,0.094 v -1.371 c -0.5,0 -1.047,-0.137 -1.047,-0.32 0,-0.043 0,-0.043 0.18,-0.274 l 2.832,-3.195 3.195,3.789 h -1.144 v 1.371 c 0.777,-0.047 2.558,-0.094 3.515,-0.094 0.914,0 2.239,0.047 3.196,0.094 v -1.371 h -2.055 z"
       style="fill:#000000;fill-opacity:1;fill-rule:nonzero;stroke:none"
       transform="scale(1.3333333)" />
    <path
       id="path116"
       d="m 463.934,237.781 c 1.691,-0.73 2.418,-1.004 2.921,-1.281 0.411,-0.137 0.594,-0.227 0.594,-0.637 0,-0.32 -0.273,-0.64 -0.64,-0.64 -0.137,0 -0.18,0 -0.411,0.183 l -2.785,1.871 0.321,-3.011 c 0.046,-0.364 0,-0.868 -0.637,-0.868 -0.231,0 -0.641,0.137 -0.641,0.594 0,0.184 0.09,0.778 0.137,1.004 0.047,0.32 0.184,1.824 0.23,2.281 l -2.785,-1.871 c -0.183,-0.09 -0.23,-0.183 -0.41,-0.183 -0.414,0 -0.64,0.32 -0.64,0.64 0,0.41 0.226,0.547 0.41,0.594 l 3.058,1.324 c -1.644,0.731 -2.418,1.004 -2.922,1.231 -0.363,0.183 -0.546,0.273 -0.546,0.64 0,0.364 0.226,0.637 0.64,0.637 0.137,0 0.18,0 0.41,-0.18 l 2.785,-1.828 -0.367,3.242 c 0,0.457 0.41,0.637 0.641,0.637 0.273,0 0.637,-0.18 0.637,-0.637 0,-0.183 -0.09,-0.777 -0.09,-0.961 -0.047,-0.363 -0.184,-1.824 -0.231,-2.281 l 2.422,1.598 c 0.547,0.41 0.594,0.41 0.774,0.41 0.367,0 0.64,-0.273 0.64,-0.637 0,-0.41 -0.273,-0.504 -0.457,-0.593 z"
       style="fill:#000000;fill-opacity:1;fill-rule:nonzero;stroke:none"
       transform="scale(1.3333333)" />
    <path
       id="path117"
       d="m 453.035,256.02 h 1.727 v 5.805 h -1.727 z"
       style="fill:#000000;fill-opacity:1;fill-rule:nonzero;stroke:none"
       transform="scale(1.3333333)" />
    <path
       id="path118"
       d="m 449.785,246.242 3.379,-3.789 c 0.41,-0.41 0.594,-0.59 2.965,-0.59 v -1.371 c -1.004,0.047 -2.508,0.09 -2.649,0.09 -0.726,0 -2.187,-0.09 -3.011,-0.09 v 1.371 c 0.41,0 0.777,0.043 1.097,0.227 -0.093,0.183 -0.093,0.273 -0.23,0.363 l -2.418,2.738 -2.875,-3.328 h 1.187 v -1.371 c -0.777,0 -2.601,0.09 -3.562,0.09 -0.91,0 -2.234,-0.09 -3.195,-0.09 v 1.371 h 2.101 l 4.52,5.34 -3.836,4.289 c -0.457,0.547 -1.504,0.547 -2.922,0.547 v 1.371 c 1.004,-0.047 2.559,-0.094 2.695,-0.094 0.731,0 2.418,0.047 2.965,0.094 v -1.371 c -0.5,0 -1.047,-0.137 -1.047,-0.32 0,-0.043 0,-0.043 0.18,-0.274 l 2.832,-3.195 3.195,3.789 h -1.144 v 1.371 c 0.777,-0.047 2.558,-0.094 3.515,-0.094 0.914,0 2.239,0.047 3.196,0.094 v -1.371 h -2.055 z"
       style="fill:#000000;fill-opacity:1;fill-rule:nonzero;stroke:none"
       transform="scale(1.3333333)" />
    <path
       id="path119"
       d="m 463.934,237.781 c 1.691,-0.73 2.418,-1.004 2.921,-1.281 0.411,-0.137 0.594,-0.227 0.594,-0.637 0,-0.32 -0.273,-0.64 -0.64,-0.64 -0.137,0 -0.18,0 -0.411,0.183 l -2.785,1.871 0.321,-3.011 c 0.046,-0.364 0,-0.868 -0.637,-0.868 -0.231,0 -0.641,0.137 -0.641,0.594 0,0.184 0.09,0.778 0.137,1.004 0.047,0.32 0.184,1.824 0.23,2.281 l -2.785,-1.871 c -0.183,-0.09 -0.23,-0.183 -0.41,-0.183 -0.414,0 -0.64,0.32 -0.64,0.64 0,0.41 0.226,0.547 0.41,0.594 l 3.058,1.324 c -1.644,0.731 -2.418,1.004 -2.922,1.231 -0.363,0.183 -0.546,0.273 -0.546,0.64 0,0.364 0.226,0.637 0.64,0.637 0.137,0 0.18,0 0.41,-0.18 l 2.785,-1.828 -0.367,3.242 c 0,0.457 0.41,0.637 0.641,0.637 0.273,0 0.637,-0.18 0.637,-0.637 0,-0.183 -0.09,-0.777 -0.09,-0.961 -0.047,-0.363 -0.184,-1.824 -0.231,-2.281 l 2.422,1.598 c 0.547,0.41 0.594,0.41 0.774,0.41 0.367,0 0.64,-0.273 0.64,-0.637 0,-0.41 -0.273,-0.504 -0.457,-0.593 z"
       style="fill:#000000;fill-opacity:1;fill-rule:nonzero;stroke:none"
       transform="scale(1.3333333)" />
    <path
       id="path120"
       d="m 453.035,256.02 h 1.727 v 5.805 h -1.727 z"
       style="fill:#000000;fill-opacity:1;fill-rule:nonzero;stroke:none"
       transform="scale(1.3333333)" />
    <path
       id="path121"
       d="m 162.949,102.691 c 0,1.747 -1.414,3.157 -3.156,3.157 -1.746,0 -3.16,-1.41 -3.16,-3.157 0,-1.742 1.414,-3.156 3.16,-3.156 1.742,0 3.156,1.414 3.156,3.156 z"
       style="fill:#7f63b8;fill-opacity:1;fill-rule:nonzero;stroke:#7f63b8;stroke-width:1.58266;stroke-linecap:butt;stroke-linejoin:round;stroke-miterlimit:4;stroke-dasharray:none;stroke-opacity:1;paint-order:stroke fill markers"
       transform="scale(1.3333333)" />
    <path
       id="path122"
       d="m 163.273,105.973 c 0,1.746 -1.414,3.16 -3.16,3.16 -1.742,0 -3.156,-1.414 -3.156,-3.16 0,-1.743 1.414,-3.157 3.156,-3.157 1.746,0 3.16,1.414 3.16,3.157 z"
       style="fill:#000000;fill-opacity:1;fill-rule:nonzero;stroke:#000000;stroke-width:1.58266;stroke-linecap:butt;stroke-linejoin:round;stroke-miterlimit:4;stroke-dasharray:none;stroke-opacity:1;paint-order:stroke fill markers"
       transform="scale(1.3333333)" />
  </g>
</svg>
